<?xml version="1.0" standalone="no"?>
<!DOCTYPE svg PUBLIC "-//W3C//DTD SVG 1.1//EN" "http://www.w3.org/Graphics/SVG/1.1/DTD/svg11.dtd" >
<svg xmlns="http://www.w3.org/2000/svg">
<metadata>
Created by FontPrep 20130207 at Mon Jun 17 22:43:48 2013
 By iSashok
Copyright (c) 2009 ParaType Ltd. All rights reserved.
</metadata>
<defs>
<font id="29cad5673275be89ce4ffe60ff4bb911" >
  <font-face 
    font-family="PTSans-CaptionBold"
    font-weight="700"
    font-variant="small-caps"
    font-stretch="normal"
    units-per-em="2048"
    panose-1="2 11 7 3 2 2 3 2 2 4"
    ascent="1577"
    descent="-471"
    x-height="1075"
    cap-height="1434"
    bbox="-66 -471 2183 1792"
    underline-thickness="102"
    underline-position="-102"
    unicode-range="U+0020-E000"
  />
<missing-glyph horiz-adv-x="2048" 
 />
    <glyph glyph-name=".notdef" horiz-adv-x="2048" 
 />
    <glyph glyph-name="glyph1" horiz-adv-x="0" 
 />
    <glyph glyph-name="glyph2" horiz-adv-x="2048" 
 />
    <glyph glyph-name="space" unicode=" " horiz-adv-x="565" 
 />
    <glyph glyph-name="exclam" unicode="!" horiz-adv-x="643" 
d="M215 1434h299v-670l-57 -330h-185l-57 330v670zM184 141q0 74 50 117t130 43t129.5 -43t49.5 -117t-49.5 -119t-130.5 -45t-130 45t-49 119z" />
    <glyph glyph-name="quotedbl" unicode="&#x22;" horiz-adv-x="892" 
d="M528 987v447h254l-77 -447h-177zM203 987v447h254l-78 -447h-176z" />
    <glyph glyph-name="numbersign" unicode="#" 
d="M473 623h199l53 208h-199zM18 416l50 207h168l53 208h-160l49 207h164l76 293h237l-75 -293h198l76 293h238l-76 -293h158l-54 -207h-157l-56 -208h154l-53 -207h-154l-78 -314h-237l79 314h-198l-80 -314h-238l80 314h-164z" />
    <glyph glyph-name="dollar" unicode="$" 
d="M829 391q0 61 -53 98t-135 70v-338q188 19 188 170zM424 1052q0 -46 50 -82t128 -69v313q-149 -6 -163.5 -61t-14.5 -101zM129 1038q0 186 101.5 286.5t275.5 127.5v186h231v-180q179 -11 307 -72l-77 -241q-93 42 -230 61v-356q183 -70 251.5 -131.5t102 -129
t33.5 -161.5q0 -197 -103 -304.5t-284 -137.5v-191h-231v178q-241 8 -371 74l86 248q102 -57 285 -72v385q-179 69 -245 132t-99 131.5t-33 166.5z" />
    <glyph glyph-name="percent" unicode="%" horiz-adv-x="1857" 
d="M1272 354q0 -86 28.5 -131t99.5 -45t99.5 39t28.5 131t-29 131t-99 39t-99 -39t-29 -125zM1012 346q0 179 106.5 264.5t282.5 85.5q280 0 334.5 -127t54.5 -222q0 -180 -104 -263.5t-285 -83.5q-279 0 -334 126t-55 220zM369 1116q0 -86 28.5 -131t99.5 -45t99.5 39
t28.5 131t-28.5 131t-98.5 39t-99.5 -39t-29.5 -125zM225 129l1274 1341l162 -157l-1280 -1342zM109 1108q0 179 106 264.5t283 85.5q278 0 333.5 -127t55.5 -222q0 -179 -104 -263t-285 -84q-279 0 -334 126t-55 220z" />
    <glyph glyph-name="ampersand" unicode="&#x26;" horiz-adv-x="1812" 
d="M985 1151q0 104 -127 104q-59 0 -89 -27.5t-30 -72.5q0 -84 82 -178q164 93 164 174zM492 415q0 -91 83.5 -147.5t197.5 -56.5q205 0 308 98q-211 204 -370 414q-109 -76 -164 -146.5t-55 -161.5zM758 -29q-232 0 -392.5 117t-160.5 311q0 147 99 273t276 217
q-127 152 -127 280q0 191 139.5 242t243.5 51q194 0 284 -76t90 -190q0 -82 -62.5 -173t-217.5 -173q124 -172 202 -252t125 -123q97 101 166 289l209 -119q-85 -186 -194 -313q104 -87 227 -152l-156 -209q-118 52 -249 170q-205 -170 -502 -170z" />
    <glyph glyph-name="quotesingle" unicode="'" horiz-adv-x="567" 
d="M203 987v447h254l-78 -447h-176z" />
    <glyph glyph-name="parenleft" unicode="(" horiz-adv-x="729" 
d="M422 498q0 -339 103.5 -537.5t176.5 -284.5l-196 -127q-190 183 -280.5 437.5t-90.5 511.5q0 400 137.5 628t241.5 332l184 -125q-276 -333 -276 -835z" />
    <glyph glyph-name="parenright" unicode=")" horiz-adv-x="729" 
d="M307 498q0 502 -276 835l184 125q197 -197 288 -452t91 -508q0 -403 -134 -626.5t-237 -322.5l-196 127q207 240 243.5 481.5t36.5 340.5z" />
    <glyph glyph-name="asterisk" unicode="*" horiz-adv-x="835" 
d="M94 1106v160h129l129 -37l-110 92l-62 104l139 80l62 -96l33 -125l32 117l62 104l137 -75l-65 -111l-105 -90l143 35h123v-158h-118l-134 37l109 -99l55 -92l-139 -78l-59 99l-43 133l-29 -121l-64 -106l-139 79l66 107l98 76l-123 -35h-127z" />
    <glyph glyph-name="plus" unicode="+" horiz-adv-x="1169" 
d="M96 567v246h361v369h254v-369h360v-246h-360v-370h-254v370h-361z" />
    <glyph glyph-name="comma" unicode="," horiz-adv-x="516" 
d="M104 132q0 75 50 117t132 42t135.5 -59.5t53.5 -153.5q0 -172 -93 -260.5t-206 -120.5l-82 119q57 18 99.5 68t50.5 108q-49 -6 -94.5 29.5t-45.5 110.5z" />
    <glyph glyph-name="hyphen" unicode="-" horiz-adv-x="800" 
d="M121 463v254h559v-254h-559z" />
    <glyph glyph-name="period" unicode="." horiz-adv-x="546" 
d="M94 141q0 74 50 117t130 43t129.5 -43t49.5 -117t-49.5 -119t-130.5 -45t-130 45t-49 119z" />
    <glyph glyph-name="slash" unicode="/" horiz-adv-x="907" 
d="M-49 -176l790 1634l217 -102l-794 -1643z" />
    <glyph glyph-name="zero" unicode="0" 
d="M356 725q0 -242 57.5 -378t191.5 -136t191.5 123t57.5 385q0 373 -90 438.5t-160 65.5q-133 0 -190.5 -128t-57.5 -370zM614 1462q272 0 403.5 -185t131.5 -554t-141.5 -560.5t-408.5 -191.5t-402.5 197.5t-135.5 557.5t140.5 548t412.5 188z" />
    <glyph glyph-name="one" unicode="1" 
d="M780 1458v-1218h301v-240h-884v240h307v788l35 141l-107 -122l-201 -132l-114 168l501 375h162z" />
    <glyph glyph-name="two" unicode="2" 
d="M137 1307q207 155 428 155q224 0 345.5 -97.5t121.5 -285.5q0 -309 -434 -778l-117 -84v-10l158 33h424v-240h-936v143q177 177 393.5 417.5t216.5 461.5q0 78 -46.5 132t-140.5 54q-174 0 -294 -106z" />
    <glyph glyph-name="three" unicode="3" 
d="M514 211q200 0 240.5 88t40.5 131q0 111 -75 164t-241 53h-162v152l265 323l129 95l-176 -23h-371v240h852v-154l-307 -377l-101 -55v-10l94 12q158 -12 268.5 -115.5t110.5 -288.5q0 -230 -156.5 -352.5t-406.5 -122.5q-142 0 -240 24.5t-131 41.5l78 237
q133 -63 289 -63z" />
    <glyph glyph-name="four" unicode="4" 
d="M692 618v295l17 166h-9l-73 -139l-228 -264l-114 -76l143 18h264zM18 395v160l705 889h238v-826h243v-223h-243v-395h-269v395h-674z" />
    <glyph glyph-name="five" unicode="5" 
d="M770 453q0 229 -354 229l-178 -8v760h766v-267h-517v-254l93 9q217 -8 347 -132t130 -344t-164 -347.5t-424 -127.5q-208 0 -344 60l78 237q122 -43 265 -43q144 0 223 58.5t79 169.5z" />
    <glyph glyph-name="six" unicode="6" 
d="M365 502v-50q0 -30 15 -76t65 -105.5t160 -59.5q111 0 178 65t67 156q0 217 -244 217q-90 0 -151.5 -35.5t-85.5 -85.5q-4 -23 -4 -26zM90 548q0 167 63.5 331.5t227.5 350.5t500 232l59 -223q-208 -30 -364 -168.5t-197 -308.5q47 51 114 89t173 38q210 0 336 -118.5
t126 -319.5t-141.5 -340.5t-371.5 -139.5q-229 0 -337 103.5t-148 205t-40 268.5z" />
    <glyph glyph-name="seven" unicode="7" 
d="M106 1163v271h1006v-80l-623 -1354h-282l504 1083l98 101l-135 -21h-568z" />
    <glyph glyph-name="eight" unicode="8" 
d="M424 1082q0 -94 67 -146.5t181 -101.5q129 102 129 223q0 82 -55.5 124t-143.5 42t-133 -43.5t-45 -97.5zM373 390q0 -69 60.5 -124t166.5 -55t167.5 44t61.5 128q0 109 -114.5 171t-163.5 85q-178 -92 -178 -249zM381 731q-231 131 -231 327q0 185 126 294.5t334 109.5
t330.5 -97t122.5 -251q0 -121 -56.5 -204t-172.5 -152q131 -72 200.5 -156t69.5 -196q0 -204 -141.5 -319.5t-364.5 -115.5t-356 106.5t-133 270.5q0 140 70.5 227t201.5 156z" />
    <glyph glyph-name="nine" unicode="9" 
d="M348 996q0 -112 73 -169t172 -57q165 0 247 92q2 23 4 41.5t2 52.5t-15.5 88t-67.5 121.5t-173 67.5t-181.5 -62.5t-60.5 -174.5zM206 1328q136 134 382 134t389 -140t143 -390q0 -460 -227 -698.5t-574 -262.5l-61 219q351 40 445 200.5t112 244.5q-53 -53 -115.5 -73.5
t-156.5 -20.5t-177 26.5t-189.5 116.5t-106.5 300t136 344z" />
    <glyph glyph-name="colon" unicode=":" horiz-adv-x="649" 
d="M209 874q0 74 49 117t130 43t130 -43t49 -117t-49 -118.5t-130 -44.5t-130 44.5t-49 118.5zM209 141q0 74 49 117t130 43t130 -43t49 -117t-49 -119t-130 -45t-130 45t-49 119z" />
    <glyph glyph-name="semicolon" unicode=";" horiz-adv-x="630" 
d="M176 874q0 74 49 117t130 43t130.5 -43t49.5 -117t-49.5 -118.5t-130.5 -44.5t-130 44.5t-49 118.5zM178 132q0 75 49 117t132 42t136.5 -59.5t53.5 -153.5q0 -171 -93.5 -260.5t-205.5 -120.5l-82 119q57 18 99 68t50 108q-49 -6 -94 29.5t-45 110.5z" />
    <glyph glyph-name="less" unicode="&#x3c;" horiz-adv-x="1169" 
d="M86 580v151l868 483l119 -200l-493 -283l-203 -72l201 -63l505 -279l-116 -200z" />
    <glyph glyph-name="equal" unicode="=" horiz-adv-x="1169" 
d="M96 766v246h977v-246h-977zM96 369v245h977v-245h-977z" />
    <glyph glyph-name="greater" unicode="&#x3e;" horiz-adv-x="1169" 
d="M86 1016l115 201l882 -465v-152l-872 -485l-115 204l494 281l203 74l-201 61z" />
    <glyph glyph-name="question" unicode="?" horiz-adv-x="1005" 
d="M256 141q0 74 49 117t130 43t130 -43t49 -117t-49 -119t-130 -45t-130 45t-49 119zM510 1462q207 0 326.5 -94t119.5 -268t-75.5 -250t-128 -109.5t-128 -96t-75.5 -210.5h-250q-28 273 91.5 361t163.5 120.5t73.5 68.5t29.5 98t-42 101.5t-151 39.5t-193.5 -41
t-110.5 -62l-111 213q197 129 461 129z" />
    <glyph glyph-name="at" unicode="@" horiz-adv-x="2349" 
d="M1235 776q-136 0 -225.5 -115t-89.5 -239q0 -66 29.5 -109t105.5 -43q97 0 164 87t92 130l55 242q-55 47 -131 47zM1168 -440q-456 0 -730 246t-274 677q0 227 85 412.5t231.5 318t340 204t403.5 71.5t384 -57.5t302 -165t200.5 -259t72.5 -309.5t-50 -272.5t-136 -198.5
t-203 -133t-250 -49q-191 0 -219.5 85t-19.5 153h-9q-84 -113 -171 -175.5t-206 -62.5t-193.5 85t-74.5 211t44 243.5t120 210t176.5 149.5t221.5 57t225 -79l69 67h156l-109 -549q-10 -58 -10 -78q0 -92 84 -92q125 0 217 101t92 278t-108 392.5t-606 215.5
q-172 0 -320.5 -59t-258 -161.5t-171 -242.5t-61.5 -300q0 -324 204.5 -513.5t587.5 -189.5q148 0 291 59l68 -215q-169 -75 -395 -75z" />
    <glyph glyph-name="A" unicode="A" horiz-adv-x="1347" 
d="M504 545h327l-110 299l-49 227h-10l-50 -229zM0 0l561 1444h223l564 -1444h-322l-123 305h-483l-117 -305h-303z" />
    <glyph glyph-name="B" unicode="B" horiz-adv-x="1312" 
d="M571 1208q-88 0 -147 -8v-364h102q100 0 144 6q204 64 204 185q0 66 -22.5 99t-60 51.5t-85 24.5t-135.5 6zM911 418q0 169 -131 180.5t-188 11.5h-168v-372q40 -13 148 -13t160 10.5t115.5 48t63.5 134.5zM534 1454q178 0 281 -15.5t235 -80.5t132 -257
q0 -193 -101.5 -256t-177.5 -77v-12q224 -20 275 -145t51 -223t-52.5 -177.5t-177 -155t-372.5 -75.5h-175q-176 0 -319 30v1413q223 31 401 31z" />
    <glyph glyph-name="C" unicode="C" horiz-adv-x="1243" 
d="M82 717q0 209 65.5 351t214 268t432.5 126q227 0 369 -55l-59 -254q-95 43 -293 43q-289 0 -348.5 -179t-59.5 -293q0 -226 109 -356t324 -130q171 0 290 65l60 -242q-130 -90 -418 -90t-487 184.5t-199 561.5z" />
    <glyph glyph-name="D" unicode="D" horiz-adv-x="1437" 
d="M598 244q234 0 335 136t101 345q0 304 -148.5 383.5t-278.5 79.5t-171 -6v-930q39 -8 162 -8zM537 1454q254 0 536.5 -104.5t282.5 -620.5q0 -320 -193.5 -536t-603.5 -216q-80 0 -238.5 8.5t-187.5 12.5v1436q150 20 404 20z" />
    <glyph glyph-name="E" unicode="E" horiz-adv-x="1159" 
d="M133 0v1434h924v-267h-621v-311h563v-266h-563v-324h631v-266h-934z" />
    <glyph glyph-name="F" unicode="F" horiz-adv-x="1128" 
d="M133 0v1434h924v-267h-621v-333h572v-267h-572v-567h-303z" />
    <glyph glyph-name="G" unicode="G" horiz-adv-x="1353" 
d="M837 238q108 0 181 51v248l-340 32v185h586v-643q-131 -103 -273.5 -121.5t-206.5 -18.5q-313 0 -507.5 186t-194.5 561t218.5 559.5t512.5 184.5q213 0 393 -57l-63 -252q-131 43 -263 43t-212 -25.5t-172.5 -115t-92.5 -334.5t115.5 -364t318.5 -119z" />
    <glyph glyph-name="H" unicode="H" horiz-adv-x="1445" 
d="M133 0v1434h303v-576h574v576h303v-1434h-303v592h-574v-592h-303z" />
    <glyph glyph-name="I" unicode="I" horiz-adv-x="794" 
d="M82 0v164h164v1106h-164v164h631v-164h-164v-1106h164v-164h-631z" />
    <glyph glyph-name="J" unicode="J" horiz-adv-x="741" 
d="M140 240h5q127 0 137.5 92t10.5 141v961h303v-1045q0 -168 -92 -292t-283 -124q-153 0 -272 52l65 241q57 -26 126 -26z" />
    <glyph glyph-name="K" unicode="K" horiz-adv-x="1374" 
d="M133 0v1434h303v-631l72 31l430 600h346l-455 -600l-118 -78l123 -82l520 -674h-375l-463 606h-80v-606h-303z" />
    <glyph glyph-name="L" unicode="L" horiz-adv-x="1140" 
d="M133 0v1434h303v-1168h684v-266h-987z" />
    <glyph glyph-name="M" unicode="M" horiz-adv-x="1777" 
d="M133 0v1434h275l413 -662l78 -158h10l68 162l395 658h273v-1434h-304v719l33 297h-12l-98 -225l-332 -535h-94l-353 537l-96 221h-12l43 -293v-721h-287z" />
    <glyph glyph-name="N" unicode="N" horiz-adv-x="1460" 
d="M133 0v1444h219l592 -764l117 -209h12l-33 211v752h287v-1444h-219l-588 758l-123 215h-10l33 -218v-745h-287z" />
    <glyph glyph-name="O" unicode="O" horiz-adv-x="1488" 
d="M403 717q0 -344 126 -411.5t214 -67.5q162 0 252 110.5t90 368.5q0 340 -124.5 409.5t-217.5 69.5q-160 0 -250 -114.5t-90 -364.5zM256.5 1266q174.5 196 492.5 196q317 0 487.5 -202.5t170.5 -549.5t-177.5 -543t-492.5 -196t-485 201t-170 549q0 349 174.5 545z" />
    <glyph glyph-name="P" unicode="P" horiz-adv-x="1269" 
d="M553 741q162 0 252 51t90 189q0 207 -311 207q-106 0 -148 -10v-426q44 -11 117 -11zM612 475h-62q-62 0 -114 8v-483h-303v1419q201 35 373 35t288.5 -17.5t269.5 -102.5t153 -349t-176 -387t-429 -123z" />
    <glyph glyph-name="Q" unicode="Q" horiz-adv-x="1488" 
d="M564 -326q-68 0 -118 -12v266q149 28 277.5 0t224.5 -51.5t198 -44t208 -20.5t207 20v-266q-98 -25 -213 -25t-222.5 20.5t-207 46t-193 46t-161.5 20.5zM403 717q0 -344 126 -411.5t214 -67.5q162 0 252 110.5t90 368.5q0 340 -124.5 409.5t-217.5 69.5
q-160 0 -250 -114.5t-90 -364.5zM256.5 1266q174.5 196 492.5 196q317 0 487.5 -202.5t170.5 -549.5t-177.5 -543t-492.5 -196t-485 201t-170 549q0 349 174.5 545z" />
    <glyph glyph-name="R" unicode="R" horiz-adv-x="1335" 
d="M594 1188q-122 0 -158 -8v-396h129q129 0 204 49t75 155t-64 153t-186 47zM517 1454q170 0 275 -18.5t239 -91t134 -293.5q0 -176 -87 -290t-240 -155l108 -63l359 -543h-353l-356 555l-160 25v-580h-303v1419q214 35 384 35z" />
    <glyph glyph-name="S" unicode="S" horiz-adv-x="1177" 
d="M395 1065q0 -63 53.5 -101t132 -70t171 -63.5t171 -82t132 -126t53.5 -249.5t-151.5 -288t-393.5 -114t-359.5 38t-146.5 52l101 256q99 -52 206 -68t164 -16q277 0 277 160q0 63 -53.5 100t-132 68t-171 61.5t-171 82t-132 128.5t-53.5 193q0 221 141.5 328.5
t408.5 107.5t431 -90l-96 -254q-146 82 -367 82q-102 0 -158.5 -36t-56.5 -99z" />
    <glyph glyph-name="T" unicode="T" horiz-adv-x="1261" 
d="M25 1167v267h1212v-267h-455v-1167h-303v1167h-454z" />
    <glyph glyph-name="U" unicode="U" horiz-adv-x="1390" 
d="M125 479v955h303v-899q0 -164 72 -228.5t210 -64.5t203.5 68.5t65.5 224.5v899h287v-920q0 -272 -148.5 -405.5t-419.5 -133.5q-270 0 -421.5 126t-151.5 378z" />
    <glyph glyph-name="V" unicode="V" horiz-adv-x="1339" 
d="M-20 1434h352l313 -828l41 -244h10l45 246l299 826h320l-580 -1444h-217z" />
    <glyph glyph-name="W" unicode="W" horiz-adv-x="1921" 
d="M0 1434h332l207 -789l28 -254h8l33 258l273 785h196l269 -789l32 -254h11l30 258l191 785h311l-430 -1444h-205l-278 780l-37 221h-15l-36 -223l-277 -778h-215z" />
    <glyph glyph-name="X" unicode="X" horiz-adv-x="1402" 
d="M20 0l480 729l-434 705h366l240 -408l55 -141l53 141l250 408h330l-451 -691l473 -743h-362l-275 436l-61 148l-59 -148l-275 -436h-330z" />
    <glyph glyph-name="Y" unicode="Y" horiz-adv-x="1318" 
d="M811 0h-303v528l-512 906h360l287 -527l33 -153h10l35 157l276 523h326l-512 -904v-530z" />
    <glyph glyph-name="Z" unicode="Z" horiz-adv-x="1196" 
d="M57 0v266l658 817l119 84h-777v267h1082v-267l-662 -823l-115 -78h777v-266h-1082z" />
    <glyph glyph-name="bracketleft" unicode="[" horiz-adv-x="716" 
d="M133 -471v1905h520v-240h-245v-1425h245v-240h-520z" />
    <glyph glyph-name="backslash" unicode="\" horiz-adv-x="942" 
d="M-49 1352l221 104l807 -1636l-225 -107z" />
    <glyph glyph-name="bracketright" unicode="]" horiz-adv-x="716" 
d="M63 -231h246v1425h-246v240h521v-1905h-521v240z" />
    <glyph glyph-name="asciicircum" unicode="^" horiz-adv-x="1095" 
d="M47 842l436 602h154l412 -602h-291l-160 243l-47 144l-55 -146l-172 -241h-277z" />
    <glyph glyph-name="underscore" unicode="_" horiz-adv-x="989" 
d="M0 -231h989v-232h-989v232z" />
    <glyph glyph-name="grave" unicode="`" horiz-adv-x="716" 
d="M139 1493h301l138 -324h-152l-287 263v61z" />
    <glyph glyph-name="a" unicode="a" horiz-adv-x="1185" 
d="M356 353q0 -140 168 -140q84 0 141.5 45t84.5 94v123q-62 25 -175 25t-166 -40t-53 -107zM61 295q0 369 492 369q63 0 195 -23q6 43 6 74q0 78 -39 114.5t-146 36.5q-187 0 -356 -82l-76 217q92 41 226.5 68t262.5 27q232 0 321 -98.5t89 -282.5q0 -104 -8 -206.5
t-8 -242.5t43 -268h-234l-47 160h-24q-128 -174 -346 -174q-158 0 -254.5 88t-96.5 223z" />
    <glyph glyph-name="b" unicode="b" horiz-adv-x="1267" 
d="M887 561q0 147 -55.5 224t-163.5 77q-175 0 -234 -170v-448q64 -31 187 -31q266 0 266 348zM147 1434h287v-451h25q106 119 305 119t308.5 -136.5t109.5 -407.5t-153 -428t-432 -157t-450 70v1391z" />
    <glyph glyph-name="c" unicode="c" horiz-adv-x="1024" 
d="M86 537q0 268 132 418.5t384 150.5q204 0 342 -70l-70 -229q-104 45 -227 45q-266 0 -266 -315q0 -218 104.5 -266t207.5 -48t200 58l65 -215q-144 -97 -368 -97q-504 0 -504 568z" />
    <glyph glyph-name="d" unicode="d" horiz-adv-x="1286" 
d="M642 864q-261 0 -261 -328q-1 -328 219 -327q108 0 161.5 44t78.5 126v430q-70 55 -198 55zM1126 377q0 -246 21 -379h-199l-41 149h-26q-47 -82 -134.5 -130t-207.5 -48q-215 0 -334 134.5t-119 411.5t136.5 433t389.5 156q101 0 228 -39v369h286v-1057z" />
    <glyph glyph-name="e" unicode="e" horiz-adv-x="1216" 
d="M841 668q0 215 -204 213q-127 0 -188.5 -69t-71.5 -175h463q1 16 1 31zM1106 679q0 -114 -23 -212h-716q10 -139 80.5 -205.5t230.5 -66.5q96 0 173 27.5t118 56.5l98 -181q-70 -53 -189.5 -91t-256.5 -38q-276 0 -405.5 151.5t-129.5 424.5t145.5 417t409.5 144
q318 0 391.5 -156.5t73.5 -270.5z" />
    <glyph glyph-name="f" unicode="f" horiz-adv-x="757" 
d="M195 1143q0 315 354 315q190 0 307 -39l-53 -223q-92 29 -180 29t-115 -33t-27 -117h262v-239h-262v-836h-286v836h-162v239h162v68z" />
    <glyph glyph-name="g" unicode="g" horiz-adv-x="1267" 
d="M641 864q-260 0 -260 -310q0 -163 57.5 -234.5t152.5 -71.5t155.5 34.5t87.5 86.5v462q-76 33 -193 33zM264 -113q147 -75 260 -75t214.5 29.5t101.5 211.5v80h-25q-75 -108 -293 -108q-217 0 -326.5 120.5t-109.5 396.5t144.5 419t419.5 143t470 -64v-999
q0 -463 -518 -463q-270 0 -407 70q37 112 51 169.5t18 69.5z" />
    <glyph glyph-name="h" unicode="h" horiz-adv-x="1306" 
d="M807 1106q183 0 267.5 -101t84.5 -350v-655h-287v592q0 139 -42 199.5t-139 60.5t-165.5 -52t-91.5 -138v-662h-287v1434h287v-490h25q124 162 348 162z" />
    <glyph glyph-name="i" unicode="i" horiz-adv-x="649" 
d="M182 0v1075h287v-1075h-287zM139 1346q0 62 47 106.5t134 44.5q86 0 138 -45q52 -44 52 -106t-51 -105t-139 -43t-134.5 43t-46.5 105z" />
    <glyph glyph-name="j" unicode="j" horiz-adv-x="649" 
d="M141 1346q0 62 46.5 106.5t134.5 44.5t139 -44.5t51 -106.5t-51 -105t-138 -43t-135 43q-47 43 -47 105zM34 -201q28 1 62 13q71 26 83 118q7 45 7 105v1040h287v-1124q0 -195 -80 -299t-258 -105q-70 0 -147 15v239q18 -2 46 -2z" />
    <glyph glyph-name="k" unicode="k" horiz-adv-x="1155" 
d="M147 0v1434h287v-824l90 39l269 426h315l-274 -391h2l-131 -94l137 -90h-2l315 -500h-332l-291 446h-98v-446h-287z" />
    <glyph glyph-name="l" unicode="l" horiz-adv-x="690" 
d="M154 213v1221h286v-1057q0 -156 101 -156q54 0 114 23l35 -224q-121 -53 -260 -53t-207.5 57.5t-68.5 188.5z" />
    <glyph glyph-name="m" unicode="m" horiz-adv-x="1925" 
d="M651 852q-152 0 -217 -152v-700h-287v1075h222l32 -149h27q139 180 350 180q109 0 181.5 -48t115.5 -161q126 209 334 209q209 0 289 -103t80 -382v-621h-287v575q0 147 -24.5 194.5t-58.5 65t-89 17.5q-166 0 -213 -166v-686h-287v561q0 156 -32.5 223.5t-135.5 67.5z
" />
    <glyph glyph-name="n" unicode="n" horiz-adv-x="1306" 
d="M147 0v1075h226l30 -153h31q128 184 371 184q183 0 268.5 -102t85.5 -355v-649h-287v590q0 139 -43 200.5t-143 61.5t-164.5 -50t-89.5 -128l2 -674h-287z" />
    <glyph glyph-name="o" unicode="o" horiz-adv-x="1261" 
d="M381 537q0 -225 91 -276.5t159 -51.5q250 0 250 328q0 237 -91.5 283t-158.5 46q-117 0 -183.5 -77.5t-66.5 -251.5zM227.5 954.5q141.5 151.5 405.5 151.5t403.5 -159t139.5 -416t-143 -409.5t-407 -152.5t-402 157.5t-138 417.5q0 259 141.5 410.5z" />
    <glyph glyph-name="p" unicode="p" horiz-adv-x="1275" 
d="M895 571q0 137 -52.5 216t-162.5 79t-163.5 -44t-82.5 -136v-418q74 -61 200 -61q261 0 261 364zM434 -408h-287v1483h205l35 -133h25q126 164 344 164t326 -130t108 -408t-138.5 -439.5t-384.5 -161.5q-119 0 -233 49v-424z" />
    <glyph glyph-name="q" unicode="q" horiz-adv-x="1267" 
d="M381 526q0 -154 58.5 -235.5t162.5 -81.5t155.5 41t76.5 121v463q-69 30 -198 30q-128 0 -191.5 -92t-63.5 -246zM86 522q0 280 155.5 431t448.5 151q164 0 279.5 -26.5t150.5 -39.5v-1446h-286v510h-25q-87 -133 -292 -133q-206 0 -318.5 136.5t-112.5 416.5z" />
    <glyph glyph-name="r" unicode="r" horiz-adv-x="831" 
d="M696 1100q55 0 127 -23l-41 -264q-61 21 -137 21t-134 -43t-77 -109v-682h-287v1075h226l30 -149h27q85 174 266 174z" />
    <glyph glyph-name="s" unicode="s" horiz-adv-x="989" 
d="M477 195q72 0 112 22.5t40 77.5t-53.5 78t-121.5 43q-172 50 -268 120.5t-96 234.5q0 165 100.5 250t314.5 85t378 -72l-60 -217q-170 64 -305 64q-72 0 -106.5 -21.5t-34.5 -71.5t53.5 -74t121.5 -43q172 -48 267.5 -115.5t95.5 -232.5t-111.5 -259.5t-353.5 -94.5
t-376 84l71 226q174 -84 332 -84z" />
    <glyph glyph-name="t" unicode="t" horiz-adv-x="827" 
d="M180 299v537h-164v239h164v148l287 75v-223h289v-239h-289v-373q0 -129 25.5 -185.5t103.5 -56.5t147 31l60 -215q-159 -70 -318 -70q-158 0 -231.5 79t-73.5 253z" />
    <glyph glyph-name="u" unicode="u" horiz-adv-x="1314" 
d="M1141 328q0 -184 35 -328h-211l-56 168h-22q-53 -86 -151 -142.5t-206 -56.5t-245.5 46t-137.5 403v657h287v-596q0 -133 37 -194.5t134 -61.5t158.5 47t90.5 119v686h287v-747z" />
    <glyph glyph-name="v" unicode="v" horiz-adv-x="1118" 
d="M-25 1075h334l217 -557l43 -166h33l31 170l201 553h309l-492 -1085h-164z" />
    <glyph glyph-name="w" unicode="w" horiz-adv-x="1689" 
d="M-12 1075h311l172 -530l29 -199h30l41 201l195 528h211q55 -135 108.5 -272t108.5 -273l41 -180h31l30 182q37 137 76 271.5t76 271.5h262l-367 -1085h-206q-55 141 -119 295.5t-119 296.5l-29 139h-36q-6 -35 -14.5 -71t-14.5 -70l-223 -590h-217z" />
    <glyph glyph-name="x" unicode="x" horiz-adv-x="1202" 
d="M12 0l381 551l-352 524h348l146 -209l-3 2l84 -190l82 190l-2 -2l156 209h315l-354 -516l377 -559h-340l-174 242l2 -2l-86 188l-90 -188l2 2l-176 -242h-316z" />
    <glyph glyph-name="y" unicode="y" horiz-adv-x="1107" 
d="M398 -135.5q44 34.5 69 129.5l-492 1081h347l219 -596l45 -172h20l39 172l182 596h293l-356 -973q-45 -121 -128 -320.5t-271 -199.5q-129 0 -201 37l59 221q31 -10 81 -10t94 34.5z" />
    <glyph glyph-name="z" unicode="z" horiz-adv-x="1077" 
d="M86 0v244l453 487h-2l133 105h-584v239h905v-244l-448 -493h2l-135 -98h581v-240h-905z" />
    <glyph glyph-name="braceleft" unicode="{" horiz-adv-x="825" 
d="M98 590q178 0 178 174v416q0 111 56.5 183.5t179.5 72.5h266v-240h-112q-59 0 -87 -29.5t-28 -95.5v-383q0 -90 -48 -136t-108 -56v-21q59 -8 107.5 -61.5t48.5 -139.5v-380q0 -63 27.5 -94t89.5 -31h110v-240h-266q-115 0 -175.5 66.5t-60.5 187.5v407q0 104 -46 143.5
t-132 39.5v217z" />
    <glyph glyph-name="bar" unicode="|" horiz-adv-x="503" 
d="M133 -266v1700h238v-1700h-238z" />
    <glyph glyph-name="braceright" unicode="}" horiz-adv-x="825" 
d="M727 375q-178 0 -178 -174v-414q0 -111 -60.5 -184.5t-183.5 -73.5h-258v240h111q59 0 87.5 29.5t28.5 95.5v382q0 90 47.5 136.5t108.5 56.5v20q-59 8 -107.5 61.5t-48.5 139.5v381q0 63 -27.5 94t-90.5 31h-109v240h264q117 0 177.5 -68t60.5 -188v-406q0 -104 46 -143
t132 -39v-217z" />
    <glyph glyph-name="asciitilde" unicode="~" horiz-adv-x="1169" 
d="M403 918q88 0 182.5 -38t143.5 -55.5t119 -17.5t156 61l104 -221q-140 -100 -268 -100q-87 0 -179 42t-143 60.5t-108 18.5q-124 0 -252 -105l-97 215q187 140 342 140z" />
    <glyph glyph-name="uni00A0" unicode="&#xa0;" horiz-adv-x="565" 
 />
    <glyph glyph-name="cent" unicode="&#xa2;" 
d="M625 786q-179 -40 -179 -266t179 -278v544zM160 512q0 229 105.5 365.5t309.5 166.5v185h267v-185q118 -15 202 -55l-69 -235q-79 29 -144 37v-560q89 14 160 54l70 -219q-79 -52 -219 -78v-193h-267v182q-415 51 -415 535z" />
    <glyph glyph-name="sterling" unicode="&#xa3;" 
d="M1141 254v-254h-1051v254h4q141 4 211 71.5t70 166.5q0 41 -10 86h-275v233h152q-70 113 -70 231q0 212 134 316t367 104t435 -86l-94 -260q-135 76 -312 76q-106 0 -166.5 -43t-60.5 -120t28.5 -124t63.5 -94h307v-233h-206l2 -48q0 -63 -22.5 -129.5t-72.5 -111.5
l-83 -58v-10l137 33h512z" />
    <glyph glyph-name="yen" unicode="&#xa5;" 
d="M1049 692v-192h-291v-119h291v-193h-291v-188h-303v188h-291v193h291v119h-291v192h198l-419 742h360l287 -527l33 -153h10l35 157l276 523h326l-420 -742h199z" />
    <glyph glyph-name="dieresis" unicode="&#xa8;" horiz-adv-x="1095" 
d="M655 1352q0 66 42 108.5t113 42.5t113 -43t42 -109t-42 -109.5t-113 -43.5t-113 44t-42 110zM137 1352q0 66 44 108.5t114 42.5t112 -43t42 -109t-42 -109.5t-112 -43.5t-114 44t-44 110z" />
    <glyph glyph-name="copyright" unicode="&#xa9;" horiz-adv-x="1822" 
d="M543 589q0 196 99 304t248 108t281 -69l-73 -197q-64 31 -129 31q-131 0 -131 -181t147 -182q71 0 135 33l66 -196q-100 -70 -278 -70q-179 0 -272 111.5t-93 307.5zM338 586q0 -135 43 -244t120 -183.5t181 -115.5t229 -41t229.5 41t181.5 115.5t120 183.5t43 244
t-43 242.5t-120 182t-181.5 115.5t-229.5 41t-229 -41t-181 -115.5t-120 -182t-43 -242.5zM119 585q0 181 61.5 327.5t168 250t251.5 158.5t311 55t310.5 -55t251 -158.5t168 -250t61.5 -327.5t-61.5 -327.5t-168 -249t-251 -159t-318.5 -56.5t-321.5 56.5t-250 159
t-157.5 249t-55 327.5z" />
    <glyph glyph-name="guillemotleft" unicode="&#xab;" horiz-adv-x="1085" 
d="M496 535l344 440l151 -129l-174 -234l-102 -80l102 -71l187 -232l-152 -129zM63 530l357 471l170 -143l-187 -242l-106 -84l106 -73l201 -238l-172 -143z" />
    <glyph glyph-name="uni00AD" unicode="&#xad;" horiz-adv-x="800" 
d="M121 463v254h559v-254h-559z" />
    <glyph glyph-name="registered" unicode="&#xae;" horiz-adv-x="1505" 
d="M721 1100q-61 0 -80 -8v-156h76q133 0 133 86q0 37 -34 57.5t-95 20.5zM721 1198q250 0 250 -159q0 -81 -45 -118.5t-111 -41.5l59 -31l142 -238h-133l-138 228l-104 32v-260h-113v566q77 22 193 22zM459 583q117 -110 296 -110t293.5 106t114.5 310t-117 312t-297 108
t-293.5 -112t-113.5 -308t117 -306zM308.5 1343.5q177.5 167.5 445.5 167.5q267 0 443.5 -165.5t176.5 -452t-177 -455t-445 -168.5t-444.5 166t-176.5 453t177.5 454.5z" />
    <glyph glyph-name="acute" unicode="&#xb4;" horiz-adv-x="690" 
d="M575 1493v-59l-258 -265h-155l123 324h290z" />
    <glyph glyph-name="cedilla" unicode="&#xb8;" horiz-adv-x="751" 
d="M618 -264q0 -93 -93.5 -144t-211.5 -51t-174 13l21 96q110 -7 147 8.5t44 29t7 29.5q0 68 -198 76l127 195h178l-57 -94q210 -13 210 -158z" />
    <glyph glyph-name="guillemotright" unicode="&#xbb;" horiz-adv-x="1085" 
d="M481 858l170 143l371 -452l-356 -471l-170 145l186 240l106 84l-106 74zM82 850l149 129l359 -434l-344 -441l-154 132l174 231l103 80l-103 71z" />
    <glyph glyph-name="circumflex" unicode="&#x2c6;" horiz-adv-x="1005" 
d="M143 1155l283 385h188l256 -385h-225l-86 141l-49 131l-51 -129l-107 -143h-209z" />
    <glyph glyph-name="ring" unicode="&#x2da;" horiz-adv-x="770" 
d="M387 1290q105 0 105 72q0 39 -32 58.5t-73 19.5t-70.5 -18.5t-29.5 -56.5t29.5 -56.5t70.5 -18.5zM139 1361q0 87 62.5 145.5t182.5 58.5t186.5 -52.5t66.5 -141.5t-68 -148.5t-184 -59.5q-117 0 -181.5 55.5t-64.5 142.5z" />
    <glyph glyph-name="tilde" unicode="&#x2dc;" horiz-adv-x="1021" 
d="M728 1432q58 0 128 53l35 -154q-110 -123 -223 -123q-47 0 -89 15.5t-123 48.5t-150 33t-138 -56l-31 137q122 140 238 140q65 0 138 -33t115 -47t100 -14z" />
    <glyph glyph-name="afii10023" unicode="&#x401;" horiz-adv-x="1159" 
d="M659 1635q0 54 40 88t128 34t128 -34t40 -88t-40 -85.5t-128 -31.5t-128 32t-40 85zM182 1634q0 55 40 89t128 34t128 -34t40 -88t-40 -86t-126 -31q-170 0 -170 116zM133 0v1434h924v-267h-621v-311h563v-266h-563v-324h631v-266h-934z" />
    <glyph glyph-name="afii10051" unicode="&#x402;" horiz-adv-x="1644" 
d="M1241 467q0 174 -106.5 190.5t-159.5 16.5t-109.5 -11.5t-83.5 -25.5v-637h-303v1167h-454v267h1216v-267h-459v-270q125 43 308 43q325 0 399 -163t74 -300q0 -238 -129 -364.5t-412 -126.5q-105 0 -137 8v262q28 -4 127 -4q229 0 229 215z" />
    <glyph glyph-name="afii10052" unicode="&#x403;" horiz-adv-x="1019" 
d="M1001 1782v-64l-356 -178h-229l233 242h352zM133 0v1434h905v-267h-602v-1167h-303z" />
    <glyph glyph-name="afii10053" unicode="&#x404;" horiz-adv-x="1284" 
d="M82 717q0 209 65.5 351t214 268t432.5 126q223 0 365 -55l-59 -254q-95 43 -270 43q-357 0 -416 -342h606v-240h-610q23 -170 129 -273t285 -103t298 65l60 -242q-130 -90 -416 -90t-485 184.5t-199 561.5z" />
    <glyph glyph-name="afii10054" unicode="&#x405;" horiz-adv-x="1177" 
d="M805 393q0 63 -53 101q-74 52 -291.5 125t-315.5 215q-53 78 -53 193q0 322 310 409q198 54 471 2q122 -24 200 -66l-96 -254q-146 82 -367 82q-102 0 -158 -36t-56 -99t52 -101q54 -38 133 -70t171 -64t171 -82t132 -125.5t53 -250t-152 -288t-394 -113.5
q-241 0 -428 61q-48 15 -77 29l101 256q46 -24 150 -53t220 -31q277 0 277 160z" />
    <glyph glyph-name="afii10055" unicode="&#x406;" horiz-adv-x="794" 
d="M82 0v164h164v1106h-164v164h631v-164h-164v-1106h164v-164h-631z" />
    <glyph glyph-name="afii10056" unicode="&#x407;" horiz-adv-x="794" 
d="M420 1622q0 133 130 133t130 -131t-131 -131q-61 0 -95 33t-34 96zM115 1624q0 64 34.5 97.5t96.5 33.5t96.5 -33.5t34.5 -97.5t-35 -97.5t-96 -33.5t-96 33.5t-35 97.5zM82 0v164h164v1106h-164v164h631v-164h-164v-1106h164v-164h-631z" />
    <glyph glyph-name="afii10057" unicode="&#x408;" horiz-adv-x="741" 
d="M293 473v961h303v-1045q0 -169 -85 -283q-99 -134 -290 -133q-153 0 -272 52l65 241q58 -26 118 -26t110.5 29.5t50.5 203.5z" />
    <glyph glyph-name="afii10058" unicode="&#x409;" horiz-adv-x="2078" 
d="M1708 465q0 175 -124 192t-190 17t-143 -17v-401q62 -10 150 -10q307 0 307 219zM57 262q82 0 129 70q131 179 146 1102h919v-510q80 16 199 16q265 0 422.5 -106t157.5 -356q0 -249 -169 -373.5t-466 -124.5t-447 34v1153h-330q-23 -452 -57 -667t-129 -359
q-110 -157 -315 -157q-78 0 -148 32l33 254q24 -8 55 -8z" />
    <glyph glyph-name="afii10059" unicode="&#x40a;" horiz-adv-x="2140" 
d="M1769 451q0 167 -119.5 183.5t-191.5 16.5t-145 -18v-377q63 -10 141 -10q162 0 238.5 43.5t76.5 161.5zM1524 918q567 0 567 -450q0 -488 -643 -488q-217 0 -438 26v610h-574v-616h-303v1434h303v-551h574v551h303v-533q102 17 211 17z" />
    <glyph glyph-name="afii10060" unicode="&#x40b;" horiz-adv-x="1683" 
d="M1065 651q-196 0 -283 -69v-582h-303v1167h-454v267h1216v-267h-459v-346q140 84 385 84q302 0 364 -145.5t62 -249.5v-510h-303v410q0 119 -53 180t-172 61z" />
    <glyph glyph-name="afii10061" unicode="&#x40c;" horiz-adv-x="1374" 
d="M1055 1782v-64l-357 -178h-229l233 242h353zM133 0v1434h303v-631l72 31l430 600h346l-455 -600l-118 -78l123 -82l520 -674h-375l-463 606h-80v-606h-303z" />
    <glyph glyph-name="afii10062" unicode="&#x40e;" horiz-adv-x="1261" 
d="M666 1675q147 0 165 115l248 -35q-25 -133 -129 -191t-293 -58t-301 55q-113 56 -131 188l275 43q19 -117 166 -117zM416 252q106 0 147 143l-583 1039h356l315 -625l45 -182h15l34 190l234 617h317l-415 -998q-95 -231 -198 -342q-103 -110 -267 -108q-74 0 -117 8
t-96 41l76 244q59 -27 137 -27z" />
    <glyph glyph-name="afii10145" unicode="&#x40f;" horiz-adv-x="1421" 
d="M133 0v1434h303v-1168h549v1168h303v-1434h-440l-33 -356h-194l-46 356h-442z" />
    <glyph glyph-name="afii10017" unicode="&#x410;" horiz-adv-x="1347" 
d="M504 545h327l-110 299l-49 227h-10l-50 -229zM0 0l561 1444h223l564 -1444h-322l-123 305h-483l-117 -305h-303z" />
    <glyph glyph-name="afii10018" unicode="&#x411;" horiz-adv-x="1265" 
d="M572 225q311 0 311 215q0 185 -123 203.5t-188 18.5t-136 -15v-411q45 -11 136 -11zM650 907q554 0 554 -444q0 -236 -167.5 -359.5t-452.5 -123.5t-451 34v1420h959v-267h-656v-276q104 16 214 16z" />
    <glyph glyph-name="afii10019" unicode="&#x412;" horiz-adv-x="1312" 
d="M605 1208q-123 0 -181 -8v-364h102q100 0 144 6q204 64 204 184q0 66 -22 100q-23 34 -73 58q-51 24 -174 24zM592 610h-168v-372q39 -13 147 -13q109 1 161 11t92 34q89 52 87 148q0 169 -130.5 180.5t-188.5 11.5zM534 1454q178 0 280 -15q219 -32 318 -165
q50 -69 50 -178q0 -188 -101.5 -251t-177.5 -77v-12q141 -12 234 -104q92 -91 92 -249q0 -210 -189 -323q-168 -102 -413 -100h-98q-254 0 -396 30v1413q223 31 401 31z" />
    <glyph glyph-name="afii10020" unicode="&#x413;" horiz-adv-x="1019" 
d="M133 0v1434h905v-267h-602v-1167h-303z" />
    <glyph glyph-name="afii10021" unicode="&#x414;" horiz-adv-x="1538" 
d="M999 266v901h-348q-12 -352 -62 -577t-102 -324h512zM0 -254v520h166q122 175 164.5 526t38.5 642h934v-1168h196v-520h-215l-33 254h-1003l-33 -254h-215z" />
    <glyph glyph-name="afii10022" unicode="&#x415;" horiz-adv-x="1159" 
d="M133 0v1434h924v-267h-621v-311h563v-266h-563v-324h631v-266h-934z" />
    <glyph glyph-name="afii10024" unicode="&#x416;" horiz-adv-x="1863" 
d="M778 825v609h287v-633l80 28l323 605h344l-364 -629l-107 -72l129 -88l410 -645h-367l-360 616h-88v-616h-287v641l-78 -29l-360 -612h-356l407 625l121 82l-117 77l-381 650h355l321 -609h88z" />
    <glyph glyph-name="afii10025" unicode="&#x417;" horiz-adv-x="1167" 
d="M506 1192q-209 0 -352 -78l-76 258q198 86 440 86q358 0 440 -127t82 -232t-61 -195.5t-197 -131.5v-12q143 -23 224 -113t81 -221q0 -232 -174.5 -343.5t-420.5 -111.5q-122 0 -254 22t-201 58l78 262q166 -75 362 -75t242.5 70.5t46.5 121.5q0 101 -82 147t-283 50
l-86 2h-53v231h108q108 0 177 13q68 13 120 51t52 120t-66.5 115t-146.5 33z" />
    <glyph glyph-name="afii10026" unicode="&#x418;" horiz-adv-x="1480" 
d="M133 0v1434h303v-772l-20 -191h12l111 191l581 772h228v-1434h-304v791l17 182h-10l-105 -185l-588 -788h-225z" />
    <glyph glyph-name="afii10027" unicode="&#x419;" horiz-adv-x="1480" 
d="M602 1792q19 -117 166 -117t166 115l248 -35q-25 -133 -129 -191t-293 -58t-301 55q-112 56 -131 188zM133 0v1434h303v-772l-20 -191h12l111 191l581 772h228v-1434h-304v791l17 182h-10l-105 -185l-588 -788h-225z" />
    <glyph glyph-name="afii10028" unicode="&#x41a;" horiz-adv-x="1374" 
d="M133 0v1434h303v-631l72 31l430 600h346l-455 -600l-118 -78l123 -82l520 -674h-375l-463 606h-80v-606h-303z" />
    <glyph glyph-name="afii10029" unicode="&#x41b;" horiz-adv-x="1384" 
d="M58 262q79 0 128 70q131 179 146 1102h919v-1434h-303v1167h-330q-23 -452 -57 -667t-129 -359q-110 -157 -315 -157q-78 0 -148 32l33 254q24 -8 56 -8z" />
    <glyph glyph-name="afii10030" unicode="&#x41c;" horiz-adv-x="1777" 
d="M133 0v1434h275l413 -662l78 -158h10l68 162l395 658h273v-1434h-304v719l33 297h-12l-98 -225l-332 -535h-94l-353 537l-96 221h-12l43 -293v-721h-287z" />
    <glyph glyph-name="afii10031" unicode="&#x41d;" horiz-adv-x="1445" 
d="M133 0v1434h303v-576h574v576h303v-1434h-303v592h-574v-592h-303z" />
    <glyph glyph-name="afii10032" unicode="&#x41e;" horiz-adv-x="1488" 
d="M403 717q0 -341 188 -445q65 -35 152 -34q162 0 252 110t90 369q0 343 -185 443q-65 36 -157 36q-160 0 -250 -114t-90 -365zM82 722q0 347 175 544q175 196 492 196t488 -202q170 -202 170 -549t-177 -542.5t-487 -197.5q-166 0 -289 55q-372 162 -372 696z" />
    <glyph glyph-name="afii10033" unicode="&#x41f;" horiz-adv-x="1421" 
d="M133 0v1434h1155v-1434h-303v1167h-549v-1167h-303z" />
    <glyph glyph-name="afii10034" unicode="&#x420;" horiz-adv-x="1269" 
d="M895 981q0 207 -294 207q-123 0 -165 -10v-426q44 -11 117 -11q161 0 239 43q103 60 103 197zM612 475h-69q-59 0 -107 8v-483h-303v1419q201 35 373 35t289 -17t210 -69q210 -119 211 -383t-176 -387t-428 -123z" />
    <glyph glyph-name="afii10035" unicode="&#x421;" horiz-adv-x="1243" 
d="M280.5 155.5q-198.5 184.5 -198.5 563.5t213 561t499 182q227 0 369 -55l-59 -254q-95 43 -293 43q-289 0 -348.5 -179t-59.5 -293q0 -346 242 -452q82 -35 191 -34q173 0 290 65l60 -242q-130 -90 -418 -90q-289 0 -487.5 184.5z" />
    <glyph glyph-name="afii10036" unicode="&#x422;" horiz-adv-x="1261" 
d="M25 1167v267h1212v-267h-455v-1167h-303v1167h-454z" />
    <glyph glyph-name="afii10037" unicode="&#x423;" horiz-adv-x="1261" 
d="M416 252q106 0 147 143l-583 1039h356l315 -625l45 -182h15l34 190l234 617h317l-415 -998q-95 -231 -197.5 -340.5t-267.5 -109.5q-74 0 -117 8t-96 41l76 244q59 -27 137 -27z" />
    <glyph glyph-name="afii10038" unicode="&#x424;" horiz-adv-x="1783" 
d="M1153 1071q-81 0 -123 -10v-672q18 -4 25 -4h75q127 0 209 86t82 255t-72.5 257t-195.5 88zM639 385q81 0 115 10v670q-48 6 -106 6q-127 0 -206.5 -89t-79.5 -257t77 -254t200 -86zM560 145q-221 0 -363 148.5t-142 421.5q0 274 150.5 435t396.5 161q98 0 139 -11v175
h301v-181q70 17 179 17q226 0 367 -151.5t141 -424.5t-155 -431.5t-382 -158.5q-96 0 -150 15v-201h-301v197q-78 -11 -181 -11z" />
    <glyph glyph-name="afii10039" unicode="&#x425;" horiz-adv-x="1402" 
d="M20 0l480 729l-434 705h366l240 -408l55 -141l53 141l250 408h330l-451 -691l473 -743h-362l-275 436l-61 148l-59 -148l-275 -436h-330z" />
    <glyph glyph-name="afii10040" unicode="&#x426;" horiz-adv-x="1517" 
d="M133 0v1434h303v-1168h541v1168h303v-1168h199v-520h-215l-33 254h-1098z" />
    <glyph glyph-name="afii10041" unicode="&#x427;" horiz-adv-x="1345" 
d="M520 492q-300 0 -361 148t-61 253v541h303v-443q0 -119 53.5 -182.5t174.5 -63.5q194 0 280 70v619h303v-1434h-303v573q-144 -81 -389 -81z" />
    <glyph glyph-name="afii10042" unicode="&#x428;" horiz-adv-x="1912" 
d="M133 0v1434h303v-1168h369v1168h303v-1168h369v1168h303v-1434h-1647z" />
    <glyph glyph-name="afii10043" unicode="&#x429;" horiz-adv-x="2027" 
d="M133 0v1434h303v-1168h369v1168h303v-1168h369v1168h303v-1168h209v-520h-215l-33 254h-1608z" />
    <glyph glyph-name="afii10044" unicode="&#x42a;" horiz-adv-x="1476" 
d="M1106 465q0 175 -124 192t-194 17t-139 -17v-401q63 -10 150 -10q307 0 307 219zM791 -20q-301 0 -445 34v1153h-356v267h659v-510q80 16 200 16q264 0 421 -106t157 -354q0 -249 -167.5 -374.5t-468.5 -125.5z" />
    <glyph glyph-name="afii10045" unicode="&#x42b;" horiz-adv-x="1771" 
d="M1335 0v1434h303v-1434h-303zM852 467q0 207 -261 207q-36 0 -55.5 -2t-43 -4.5t-56.5 -10.5v-401q52 -10 154 -10t182 51t80 170zM566 -20q-288 0 -433 34v1420h303v-510q92 16 180 16q558 0 558 -463q0 -248 -160 -372.5t-448 -124.5z" />
    <glyph glyph-name="afii10046" unicode="&#x42c;" horiz-adv-x="1263" 
d="M586 246q307 0 307 219q0 175 -124.5 192t-194.5 17t-138 -17v-401q62 -10 150 -10zM635 940q579 0 579 -461q0 -250 -168.5 -374.5t-465.5 -124.5t-447 34v1420h303v-510q80 16 199 16z" />
    <glyph glyph-name="afii10047" unicode="&#x42d;" horiz-adv-x="1271" 
d="M461 238q279 0 347.5 136t78.5 234h-600v240h598q-13 155 -120 251.5t-307 96.5t-341 -80l-66 256q126 61 247.5 75.5t178.5 14.5q507 0 610 -269t103 -480q0 -393 -214 -567.5t-542 -174.5q-235 0 -393 70l80 260q129 -63 340 -63z" />
    <glyph glyph-name="afii10048" unicode="&#x42e;" horiz-adv-x="1994" 
d="M1591 717q0 479 -311 479q-166 0 -246 -115.5t-80 -363.5q0 -479 322 -479q162 0 238.5 111.5t76.5 367.5zM133 0v1434h303v-576h211q29 289 188.5 446.5t438.5 157.5q321 0 480 -200.5t159 -550.5t-163 -545t-458 -195t-457.5 167.5t-187.5 453.5h-211v-592h-303z" />
    <glyph glyph-name="afii10049" unicode="&#x42f;" horiz-adv-x="1282" 
d="M736 1188q-134 0 -216 -45t-82 -166q0 -219 295 -219h115v422q-50 8 -112 8zM117 1008q0 110 92.5 278t558.5 168q253 0 383 -35v-1419h-303v561l-160 -39l-328 -522h-354l320 469l135 92q-241 53 -292.5 195t-51.5 252z" />
    <glyph glyph-name="afii10065" unicode="&#x430;" horiz-adv-x="1185" 
d="M524 213q84 0 142 45q57 45 84 94v123q-11 4 -69 15q-58 10 -108 10q-111 0 -163 -40t-54 -100q0 -147 168 -147zM61 295q0 367 492 369q63 0 195 -23q6 43 6 74q0 79 -39 115t-146 36q-187 0 -356 -82l-76 217q93 41 227 68t262 27t204 -27q206 -73 206 -354
q0 -105 -8 -207t-8 -243t43 -267h-234l-47 160h-24q-128 -174 -346 -174q-160 0 -255 88q-96 88 -96 223z" />
    <glyph glyph-name="afii10066" unicode="&#x431;" horiz-adv-x="1261" 
d="M381 514q0 -212 93 -258.5t157 -46.5q135 0 192.5 80t57.5 219t-54.5 208.5t-185.5 69.5t-195.5 -72.5t-64.5 -199.5zM637 -31q-551 0 -551 674q0 503 150 625.5t282 136.5t236 23t189 22.5t130 46.5l10 -248q-47 -35 -131 -46t-204 -19t-189.5 -16.5t-144.5 -55
t-103 -266.5h19l8 2q70 92 161 135t220 43q211 0 334 -115t123 -381t-140.5 -413.5t-398.5 -147.5z" />
    <glyph glyph-name="afii10067" unicode="&#x432;" horiz-adv-x="1181" 
d="M428 637h174q82 0 133 31.5t51 85.5t-44 84t-126 30t-149 -6l-39 -2v-223zM599 207q218 0 218 130t-219 130h-170v-248q62 -12 171 -12zM630 1094q430 0 429 -269q0 -76 -47 -145.5t-148 -104.5v-16q244 -52 244 -258q0 -160 -135 -239.5t-430 -79.5q-207 0 -396 18v1075
q267 19 483 19z" />
    <glyph glyph-name="afii10068" unicode="&#x433;" horiz-adv-x="897" 
d="M147 0v1075h750v-254h-446v-821h-304z" />
    <glyph glyph-name="afii10069" unicode="&#x434;" horiz-adv-x="1333" 
d="M834 240v596h-269q-13 -265 -63.5 -408t-79.5 -188h412zM1120 1075v-821h172v-498h-200l-37 244h-815l-39 -244h-201v498h135q178 248 187 821h798z" />
    <glyph glyph-name="afii10070" unicode="&#x435;" horiz-adv-x="1216" 
d="M840 637q17 244 -210 244q-120 0 -181 -69t-72 -175h463zM1106 679q0 -114 -23 -212h-716q11 -139 81 -206t230 -66q96 -1 173 27t118 57l98 -181q-69 -53 -189 -91t-257 -38q-276 0 -406 152q-129 153 -129 425t145 416t410 144q195 0 330 -101q135 -102 135 -326z" />
    <glyph glyph-name="afii10072" unicode="&#x436;" horiz-adv-x="1658" 
d="M684 639v436h270v-465l107 37q53 109 110.5 214.5t110.5 213.5h309q-66 -111 -127 -215t-127 -215h2l-96 -76l125 -90h-2l281 -479h-332l-242 446h-119v-446h-270v473l-106 -35l-240 -438h-326l303 487h-2l86 70l-125 88l-241 430h313l219 -436h119z" />
    <glyph glyph-name="afii10073" unicode="&#x437;" horiz-adv-x="995" 
d="M418 213q217 0 217 125q0 58 -58 83t-215 25h-106v193h133q92 0 145.5 29.5t53.5 85.5t-47 79t-168 23t-260 -65l-56 210q68 41 182.5 68t243.5 27q199 0 296.5 -69t97.5 -198q0 -75 -47.5 -146.5t-137.5 -102.5v-17q127 -27 178.5 -91t51.5 -152t-30 -146.5t-127 -129.5
t-323 -71t-393 86q18 69 64 222q129 -68 305 -68z" />
    <glyph glyph-name="afii10074" unicode="&#x438;" horiz-adv-x="1294" 
d="M147 0v1075h287v-506l-10 -147h25q25 35 50 74t50 73l426 506h172v-1075h-287v485l12 183l-129 -181l-424 -487h-172z" />
    <glyph glyph-name="afii10075" unicode="&#x439;" horiz-adv-x="1294" 
d="M681 1372q67 0 107 32t56 114l213 -56q-27 -134 -133 -202t-254 -68q-237 0 -310 98t-88 172l244 58q16 -86 57 -117t108 -31zM147 0v1075h287v-506l-10 -147h25q25 35 50 74q26 39 50 73l426 506h172v-1075h-287v485l12 183l-129 -181l-424 -487h-172z" />
    <glyph glyph-name="afii10076" unicode="&#x43a;" horiz-adv-x="1155" 
d="M147 0v1075h287v-465l92 39l275 426h309q-72 -98 -140.5 -197.5t-138.5 -197.5l-135 -90l144 -88q78 -127 157.5 -251t157.5 -251h-332l-288 446h-101v-446h-287z" />
    <glyph glyph-name="afii10077" unicode="&#x43b;" horiz-adv-x="1226" 
d="M90 260q39 0 76 35t73.5 170t51.5 610h788v-1075h-286v821h-252q-14 -392 -97.5 -612.5t-285.5 -220.5q-129 0 -183 28l41 254q35 -10 74 -10z" />
    <glyph glyph-name="afii10078" unicode="&#x43c;" horiz-adv-x="1581" 
d="M147 0v1075h302l268 -401v2l71 -137h23l72 141v-2l250 397h301v-1075h-273v477l21 234h-33l-96 -185v2l-217 -333h-101l-239 333v-2l-97 185h-28l30 -232v-479h-254z" />
    <glyph glyph-name="afii10079" unicode="&#x43d;" horiz-adv-x="1275" 
d="M147 0v1075h287v-399h408v399h286v-1075h-286v416h-408v-416h-287z" />
    <glyph glyph-name="afii10080" unicode="&#x43e;" horiz-adv-x="1261" 
d="M381 537q0 -226 135 -301q47 -27 115 -27q250 0 250 328q0 235 -91.5 282.5t-158.5 46.5q-117 0 -183 -78t-67 -251zM227 954q141 152 405 152t404 -158.5t140 -416.5t-144 -410t-406 -152q-263 0 -401.5 157t-138.5 417q0 259 141 411z" />
    <glyph glyph-name="afii10081" unicode="&#x43f;" horiz-adv-x="1263" 
d="M147 0v1075h969v-1075h-287v821h-395v-821h-287z" />
    <glyph glyph-name="afii10082" unicode="&#x440;" horiz-adv-x="1275" 
d="M895 571q0 137 -52.5 216t-162.5 79t-164 -44t-82 -136v-418q74 -61 200 -61q261 0 261 364zM434 -408h-287v1483h205l35 -133h25q126 164 344 164t326 -130t108 -408t-139 -440q-139 -161 -383 -161q-119 0 -234 49v-424z" />
    <glyph glyph-name="afii10083" unicode="&#x441;" horiz-adv-x="1024" 
d="M86 537q0 269 132 419t384 150q204 0 342 -70l-70 -229q-104 45 -227 45q-266 0 -266 -315q0 -218 156 -289q53 -25 125 -25q134 0 231 58l65 -215q-144 -97 -368 -97q-504 0 -504 568z" />
    <glyph glyph-name="afii10084" unicode="&#x442;" horiz-adv-x="999" 
d="M16 821v254h967v-254h-334v-821h-299v821h-334z" />
    <glyph glyph-name="afii10085" unicode="&#x443;" horiz-adv-x="1107" 
d="M164 -381l59 221q31 -10 81 -10t80 24q55 44 83 140l-492 1081h347l219 -596l45 -172h20l39 172l182 596h293l-356 -973q-45 -121 -85 -217t-111.5 -199.5t-203.5 -103.5t-200 37z" />
    <glyph glyph-name="afii10086" unicode="&#x444;" horiz-adv-x="1648" 
d="M1288 545q0 180 -53 253.5t-186 73.5q-48 0 -99 -14v-655q36 -8 111 -8q117 0 172 85t55 265zM594 872q-115 0 -174.5 -76.5t-59.5 -247.5q0 -353 228 -353q51 0 110 14v651q-52 12 -104 12zM512 -31q-213 0 -325.5 140.5t-112.5 420.5t125 423t360 143q69 0 127 -11v349
h277v-351q86 13 153 13q229 0 344 -125t115 -404t-122 -438.5t-349 -159.5q-74 0 -141 21v-400h-277v402q-76 -23 -174 -23z" />
    <glyph glyph-name="afii10087" unicode="&#x445;" horiz-adv-x="1202" 
d="M12 0l381 551l-352 524h348l146 -209l-3 2l84 -190l82 190l-2 -2l156 209h315l-354 -516l377 -559h-340l-174 242l2 -2l-86 188l-90 -188l2 2l-176 -242h-316z" />
    <glyph glyph-name="afii10088" unicode="&#x446;" horiz-adv-x="1320" 
d="M147 0v1075h287v-821h387v821h287v-821h172v-498h-203l-35 244h-895z" />
    <glyph glyph-name="afii10089" unicode="&#x447;" horiz-adv-x="1191" 
d="M549 578q126 0 209 59v438h286v-1075h-286v438q-23 -14 -51.5 -31.5t-92.5 -43t-160 -25.5q-192 0 -280 84t-88 295v358h287v-211q0 -160 25.5 -208t60.5 -63t90 -15z" />
    <glyph glyph-name="afii10090" unicode="&#x448;" horiz-adv-x="1794" 
d="M147 0v1075h287v-821h320v821h286v-821h320v821h287v-1075h-1500z" />
    <glyph glyph-name="afii10091" unicode="&#x449;" horiz-adv-x="1855" 
d="M147 0v1075h287v-821h320v821h286v-821h320v821h287v-821h168v-498h-201l-39 244h-1428z" />
    <glyph glyph-name="afii10092" unicode="&#x44a;" horiz-adv-x="1265" 
d="M700 510q-76 0 -155 -18v-252q77 -15 149 -15q227 0 228 148q0 137 -222 137zM692 -14q-273 0 -430 12v823h-262v254h545v-385q120 19 238 19q225 0 329.5 -92t104.5 -242q0 -195 -125.5 -292t-399.5 -97z" />
    <glyph glyph-name="afii10093" unicode="&#x44b;" horiz-adv-x="1669" 
d="M1235 0v1075h287v-1075h-287zM786 373q0 137 -196 137q-86 0 -156 -18v-252q73 -15 166 -15t139.5 35t46.5 113zM506 -14q-196 0 -359 12v1077h287v-385q120 19 234 19q215 0 314 -90.5t99 -243.5q0 -199 -90 -269.5t-189.5 -95t-295.5 -24.5z" />
    <glyph glyph-name="afii10094" unicode="&#x44c;" horiz-adv-x="1153" 
d="M809 373q0 137 -221 137q-84 0 -154 -18v-252q73 -15 146 -15q229 0 229 148zM506 -14q-194 0 -359 12v1077h287v-385q116 19 233 19q224 0 330.5 -91t106.5 -243q0 -196 -96.5 -268t-202 -96.5t-299.5 -24.5z" />
    <glyph glyph-name="afii10095" unicode="&#x44d;" horiz-adv-x="1079" 
d="M406 209q228 0 262 88t39 149h-443v199h441q-29 221 -283 221q-131 0 -277 -65l-77 205q150 100 411 100q514 0 514 -569q0 -283 -143 -425.5t-391 -142.5q-109 0 -220.5 20.5t-177.5 61.5l70 221q119 -63 275 -63z" />
    <glyph glyph-name="afii10096" unicode="&#x44e;" horiz-adv-x="1734" 
d="M909 549q0 -166 50.5 -253t171.5 -87t172 75t51 246t-47 253.5t-167 82.5t-175.5 -75.5t-55.5 -241.5zM147 0v1075h287v-401h205q25 207 143.5 319.5t367.5 112.5t374 -155t125 -418q0 -262 -126 -413t-384 -151q-365 0 -429.5 179.5t-74.5 285.5h-201v-434h-287z" />
    <glyph glyph-name="afii10097" unicode="&#x44f;" horiz-adv-x="1206" 
d="M643 866q-233 0 -233 -166q0 -84 66.5 -120.5t199.5 -36.5l96 4v297q-59 22 -129 22zM684 1106q172 0 375 -33v-1073h-287v367l-162 -27l-223 -340h-350l231 330l121 49q-145 15 -211.5 111.5t-66.5 236.5q0 195 140 287t433 92z" />
    <glyph glyph-name="afii10071" unicode="&#x451;" horiz-adv-x="1216" 
d="M725 1330q0 66 42 109.5t113 43.5q70 0 112 -43q42 -44 42 -110t-42 -109t-112 -43t-112.5 43t-42.5 109zM840 637q17 244 -210 244q-120 0 -181 -69t-72 -175h463zM207 1330q0 66 44 109.5t113.5 43.5t111.5 -43q42 -44 42 -110t-42 -109t-112 -43t-113.5 43t-43.5 109z
M1106 679q0 -114 -23 -212h-716q11 -139 81 -206t230 -66q96 -1 173 27t118 57l98 -181q-69 -53 -189 -91t-257 -38q-276 0 -406 152q-129 153 -129 425t145 416t410 144q195 0 330 -101q135 -102 135 -326z" />
    <glyph glyph-name="afii10099" unicode="&#x452;" horiz-adv-x="1296" 
d="M842 -424q-74 0 -146 14v240q159 -16 175 57.5t16 118.5v400q0 139 -41.5 202.5t-139.5 63.5t-166.5 -55.5t-90.5 -141.5v-475h-287v1059h-162v170h162v282h287v-282h364v-170h-364v-293h26q121 160 346 160q184 0 268.5 -103t84.5 -360v-492q0 -193 -79 -294t-253 -101z
" />
    <glyph glyph-name="afii10100" unicode="&#x453;" horiz-adv-x="897" 
d="M840 1493v-59l-258 -265h-156l123 324h291zM147 0v1075h750v-254h-446v-821h-304z" />
    <glyph glyph-name="afii10101" unicode="&#x454;" horiz-adv-x="1073" 
d="M1012 59q-138 -90 -397 -90t-394 152t-135 419t149.5 416.5t401.5 149.5q207 0 354 -70q-16 -59 -33.5 -116.5t-33.5 -116.5q-109 49 -230 49q-253 0 -305 -213h457v-188h-457q20 -98 95 -163t220 -65t236 64z" />
    <glyph glyph-name="afii10102" unicode="&#x455;" horiz-adv-x="989" 
d="M477 195q72 1 112 23t40 77q1 55 -53 79t-170 57t-196 88q-120 88 -120 252q0 165 100 250t289 85q123 0 231 -22t173 -50l-60 -217q-170 64 -305 64q-72 0 -106 -22t-35 -72q0 -49 54 -73t174 -58t181 -78q62 -44 96 -102t33 -146q0 -172 -111 -267q-112 -94 -352 -94
t-378 84l71 226q174 -84 332 -84z" />
    <glyph glyph-name="afii10103" unicode="&#x456;" horiz-adv-x="649" 
d="M182 0v1075h287v-1075h-287zM139 1268q0 62 47 106t134 43q86 0 138 -45t52 -106q0 -60 -51 -104t-139 -44t-134 44q-47 44 -47 106z" />
    <glyph glyph-name="afii10104" unicode="&#x457;" horiz-adv-x="759" 
d="M420 1328q0 64 33.5 106.5t105.5 42.5t105.5 -42.5t33.5 -106.5t-33.5 -108t-105.5 -44t-105.5 44t-33.5 108zM231 0v1075h287v-1075h-287zM61 1328q0 64 34 106.5t108 42.5q139 0 139 -150q0 -63 -33 -107t-107 -44t-107.5 44t-33.5 108z" />
    <glyph glyph-name="afii10105" unicode="&#x458;" horiz-adv-x="649" 
d="M139 1268q0 62 47 106t134 43q86 0 138 -45t52 -106q0 -60 -51 -104t-139 -44t-134 44q-47 44 -47 106zM186 35v1040h287v-1124q0 -195 -80 -299t-258 -105q-70 0 -147 15v239q171 -16 191 129q7 45 7 105z" />
    <glyph glyph-name="afii10106" unicode="&#x459;" horiz-adv-x="1798" 
d="M1225 225q229 0 229 148q0 137 -221 137q-84 0 -154 -18v-252q73 -15 146 -15zM1150 -14q-196 0 -357 12v823h-252q-14 -392 -97.5 -612.5t-285.5 -220.5q-129 0 -183 28l41 254q35 -10 74 -10t76 35t73.5 170t51.5 610h788v-385q116 19 233 19q224 0 330.5 -91
t106.5 -243q0 -197 -96.5 -268.5t-201.5 -96t-301 -24.5z" />
    <glyph glyph-name="afii10107" unicode="&#x45a;" horiz-adv-x="1847" 
d="M1297 225q206 0 206 146q0 139 -221 139q-84 0 -154 -21v-249q73 -15 169 -15zM1213 -14q-184 0 -371 14v422h-408v-422h-287v1075h287v-395h408v395h286v-385q125 19 238 19q221 0 326.5 -91.5t105.5 -244.5q0 -197 -96 -267.5t-200.5 -95t-288.5 -24.5z" />
    <glyph glyph-name="afii10108" unicode="&#x45b;" horiz-adv-x="1316" 
d="M1194 465v-465h-287v403q0 141 -42 205t-140 64t-165.5 -55.5t-90.5 -141.5v-475h-287v1059h-182v170h182v282h287v-282h344v-170h-344v-295h27q116 162 346 162q184 0 268 -102.5t84 -358.5z" />
    <glyph glyph-name="afii10109" unicode="&#x45c;" horiz-adv-x="1155" 
d="M897 1493v-59l-258 -265h-156l123 324h291zM147 0v1075h287v-465l92 39l275 426h309q-72 -98 -140 -197t-139 -198l-135 -90l144 -88q78 -127 158 -251t157 -251h-332l-288 446h-101v-446h-287z" />
    <glyph glyph-name="afii10110" unicode="&#x45e;" horiz-adv-x="1107" 
d="M581 1372q67 0 107 32t55 114l213 -56q-27 -134 -133 -202t-254 -68q-237 0 -310 98t-87 172l244 58q16 -86 57 -117t108 -31zM164 -381l59 221q31 -10 81 -10t80 24q55 44 83 140l-492 1081h347l219 -596l45 -172h20l39 172l182 596h293l-356 -973q-45 -121 -85 -217
t-111.5 -199.5t-203.5 -103.5t-200 37z" />
    <glyph glyph-name="afii10193" unicode="&#x45f;" horiz-adv-x="1249" 
d="M139 0v1075h287v-827h397v827h287v-1075h-350l-33 -356h-195l-45 356h-348z" />
    <glyph glyph-name="afii10146" unicode="&#x462;" horiz-adv-x="1447" 
d="M1077 465q0 174 -124 188.5t-190 14.5t-142 -19v-393q63 -10 137 -10q151 0 235 49t84 170zM766 -20q-296 0 -449 34v1067h-317v254h317v152h304v-152h446v-254h-446v-163q97 16 209 16q256 0 412.5 -104t156.5 -352q0 -247 -168.5 -372.5t-464.5 -125.5z" />
    <glyph glyph-name="afii10194" unicode="&#x463;" horiz-adv-x="1265" 
d="M700 510q-77 0 -151 -18v-259q41 -8 50 -8h95q117 0 172.5 34t55.5 112q0 139 -222 139zM677 -14q-288 0 -415 24v867h-262v198h262v359h287v-359h377v-198h-377v-187q120 19 235 19q221 0 327 -92t106 -242q0 -195 -126 -292t-414 -97z" />
    <glyph glyph-name="afii10147" unicode="&#x472;" horiz-adv-x="1488" 
d="M1077 840q-44 356 -335 356q-290 0 -332 -356h667zM738 238q146 0 233.5 84t107.5 278h-669q20 -166 101 -264t227 -98zM256.5 1266q174.5 196 492.5 196q317 0 487.5 -202.5t170.5 -549.5t-177.5 -543t-492.5 -196t-485 201t-170 549q0 349 174.5 545z" />
    <glyph glyph-name="afii10195" unicode="&#x473;" horiz-adv-x="1261" 
d="M381 623h500q-37 244 -250 243q-92 0 -164 -56t-86 -187zM630 209q221 0 251 240h-500q14 -113 82.5 -176.5t166.5 -63.5zM227.5 957.5q141.5 148.5 405.5 148.5t403.5 -155t139.5 -418q0 -264 -141.5 -414t-406.5 -150t-403.5 153.5t-138.5 420.5q0 266 141.5 414.5z
" />
    <glyph glyph-name="afii10148" unicode="&#x474;" horiz-adv-x="1409" 
d="M1332 1186q-60 0 -93 -32t-61 -110l-398 -1054h-217l-583 1444h354l311 -828l41 -244h10l35 246l154 465q70 213 159.5 296t237.5 83t248 -47l-66 -254q-72 35 -132 35z" />
    <glyph glyph-name="afii10196" unicode="&#x475;" horiz-adv-x="1187" 
d="M1069 1094q108 0 180 -33q-20 -119 -41 -227q-36 16 -74 16t-80 -35t-77 -110l-326 -715h-170l-506 1085h332q53 -139 109.5 -281.5t109.5 -281.5l43 -162h29q8 41 17.5 83t17.5 83l53 150q43 123 79 204.5t97.5 152.5t206.5 71z" />
    <glyph glyph-name="uni048A" unicode="&#x48a;" horiz-adv-x="1589" 
d="M739 1675q147 0 166 115l248 -35q-25 -133 -129 -191.5t-287 -58.5q-293 0 -360.5 86t-77.5 158l274 43q19 -117 166 -117zM133 0v1434h303v-772l-20 -191h12l111 191l581 772h228v-1180h266v-66l-211 -454h-211l100 266h-248v791l17 182h-10l-105 -185l-588 -788h-225z
" />
    <glyph glyph-name="uni048B" unicode="&#x48b;" horiz-adv-x="1345" 
d="M679 1372q67 0 106.5 32t56.5 114l213 -56q-27 -135 -133.5 -202.5t-253.5 -67.5q-240 0 -311.5 98.5t-86.5 171.5l244 58q16 -86 57 -117t108 -31zM147 0v1075h287v-506l-10 -147h25q25 35 50 74t50 73l426 506h172v-821h199v-66l-211 -432h-211l100 244h-164v485
l12 183l-129 -181l-424 -487h-172z" />
    <glyph glyph-name="uni048C" unicode="&#x48c;" horiz-adv-x="1447" 
d="M1077 465q0 203 -270 203q-110 0 -186 -19v-393q63 -10 149 -10q310 0 307 219zM317 1081h-317v254h317v152h304v-152h446v-254h-446v-163q97 16 209 16q399 0 522 -234q47 -88 47 -223q0 -246 -168.5 -371.5t-464.5 -125.5t-449 34v1067z" />
    <glyph glyph-name="uni048D" unicode="&#x48d;" horiz-adv-x="1265" 
d="M700 510q-77 0 -151 -18v-259q41 -8 50 -8h95q117 0 172 34t56 112q0 139 -222 139zM677 -14q-288 0 -415 24v867h-262v198h262v359h287v-359h377v-198h-377v-187q120 19 235 19q221 0 327 -92t106 -242q0 -195 -126 -292t-414 -97z" />
    <glyph glyph-name="uni048E" unicode="&#x48e;" horiz-adv-x="1269" 
d="M436 752q44 -11 120 -11t128 9l-119 172l113 71l133 -196q84 58 84 184q0 207 -311 207q-106 0 -148 -10v-426zM502 475q-14 0 -66 8v-483h-303v1419q201 35 373 35t288.5 -17.5t269.5 -102.5t153 -357q0 -271 -213 -404l145 -202l-174 -117l-168 242q-99 -21 -152 -21
h-153z" />
    <glyph glyph-name="uni048F" unicode="&#x48f;" horiz-adv-x="1275" 
d="M662 207q4 0 18 4l-102 123l127 112l122 -149q68 87 68 249t-52.5 241t-162.5 79t-163.5 -44t-82.5 -136v-418q74 -61 187 -61h41zM434 -408h-287v1483h205l35 -133h25q126 164 344 164t326 -130t108 -417t-152 -444l103 -119l-195 -170l-129 162q-196 -53 -383 28v-424z
" />
    <glyph glyph-name="afii10050" unicode="&#x490;" horiz-adv-x="1019" 
d="M133 0v1434h666l45 315h194v-582h-602v-1167h-303z" />
    <glyph glyph-name="afii10098" unicode="&#x491;" horiz-adv-x="897" 
d="M147 0v1075h510l45 316h195v-570h-446v-821h-304z" />
    <glyph glyph-name="uni0492" unicode="&#x492;" horiz-adv-x="1130" 
d="M-4 594v203h215v637h905v-267h-602v-370h506v-203h-506v-594h-303v594h-215z" />
    <glyph glyph-name="uni0493" unicode="&#x493;" horiz-adv-x="995" 
d="M25 395v199h139v481h749v-254h-446v-227h442v-199h-442v-401h-303v401h-139z" />
    <glyph glyph-name="uni0494" unicode="&#x494;" horiz-adv-x="1292" 
d="M666 6q227 0 227 272t-268 273q-51 0 -106.5 -13.5t-82.5 -27.5v-510h-303v1434h905v-267h-602v-395q112 45 247 45q134 0 222 -23.5t198.5 -119.5t110.5 -368q0 -273 -129 -419.5t-409 -146.5q-105 0 -137 8v262q28 -4 127 -4z" />
    <glyph glyph-name="uni0495" unicode="&#x495;" horiz-adv-x="1257" 
d="M635 -215q246 0 246 282q0 137 -65.5 208t-171.5 71t-210 -47v-299h-287v1075h732v-254h-445v-276q141 55 305 55q308 0 372.5 -184.5t64.5 -326.5q0 -287 -122 -422.5t-407 -135.5q-101 0 -137 8v250q20 -4 29 -4h96z" />
    <glyph glyph-name="uni0496" unicode="&#x496;" horiz-adv-x="1896" 
d="M778 825v609h287v-633l80 28l323 605h344l-364 -629l-107 -72l129 -88l240 -379h176v-520h-217l-31 254h-125l-360 616h-88v-616h-287v641l-78 -29l-360 -612h-356l407 625l121 82l-117 77l-381 650h355l321 -609h88z" />
    <glyph glyph-name="uni0497" unicode="&#x497;" horiz-adv-x="1667" 
d="M684 639v436h270v-465l107 37q53 109 110.5 214.5t110.5 213.5h309q-66 -111 -127 -215t-127 -215h2l-96 -76l125 -90h-2l133 -225h156v-498h-211l-33 244h-96l-242 446h-119v-446h-270v473l-106 -35l-240 -438h-326l303 487h-2l86 70l-125 88l-241 430h313l219 -436h119
z" />
    <glyph glyph-name="uni0498" unicode="&#x498;" horiz-adv-x="1167" 
d="M506 1192q-209 0 -352 -78l-76 258q198 86 440 86q358 0 440 -127t82 -232t-61 -195.5t-197 -131.5v-12q143 -23 224 -113t81 -237q0 -186 -131.5 -295t-337.5 -135l-30 -336h-195l-43 333q-196 19 -313 74l78 262q166 -75 362 -75t242.5 70.5t46.5 121.5q0 101 -82 147
t-283 50l-86 2h-53v231h108q108 0 177 13q68 13 120 51t52 120t-66.5 115t-146.5 33z" />
    <glyph glyph-name="uni0499" unicode="&#x499;" horiz-adv-x="995" 
d="M418 213q217 0 217 125q0 58 -58 83t-215 25h-106v193h133q92 0 145.5 29.5t53.5 85.5t-47 79t-168 23t-260 -65l-56 210q68 41 182.5 68t243.5 27q199 0 296.5 -69t97.5 -198q0 -75 -47.5 -146.5t-137.5 -102.5v-17q127 -27 178.5 -91t51.5 -176t-89.5 -201t-273.5 -113
l-31 -338h-194l-43 340q-136 21 -242 75q18 69 64 222q129 -68 305 -68z" />
    <glyph glyph-name="uni049A" unicode="&#x49a;" horiz-adv-x="1406" 
d="M133 0v1434h303v-631l72 31l430 600h346l-455 -600l-118 -78l123 -82l313 -408h244v-520h-217l-31 254h-164l-463 606h-80v-606h-303z" />
    <glyph glyph-name="uni049B" unicode="&#x49b;" horiz-adv-x="1177" 
d="M147 0v1075h287v-465l92 39l275 426h309q-72 -98 -140.5 -197.5t-138.5 -197.5l-135 -90l144 -88q108 -175 155 -248h170v-498h-211l-32 244h-99l-288 446h-101v-446h-287z" />
    <glyph glyph-name="uni049C" unicode="&#x49c;" horiz-adv-x="1591" 
d="M133 0v1434h303v-633l127 6v278h205v-260l47 4l361 605h329l-383 -600l-118 -78l124 -80l443 -676h-354l-394 608h-55v-260h-205v260h-127v-608h-303z" />
    <glyph glyph-name="uni049D" unicode="&#x49d;" horiz-adv-x="1335" 
d="M147 0v1075h287v-461l117 9v262h162v-244l59 6l219 428h301l-221 -395l-135 -92l143 -88l256 -500h-323l-232 446h-67v-256h-162v256h-117v-446h-287z" />
    <glyph glyph-name="uni049E" unicode="&#x49e;" horiz-adv-x="1538" 
d="M0 1116v205h297v113h303v-113h203v-180h-203v-338l123 28l393 603h332l-418 -600l-143 -78l135 -80l496 -676h-375l-438 606h-105v-606h-303v1116h-297z" />
    <glyph glyph-name="uni049F" unicode="&#x49f;" horiz-adv-x="1204" 
d="M0 1135v170h197v129h286v-129h330v-170h-330v-525l90 39l269 426h315l-274 -391h2l-131 -94l137 -90h-2l315 -500h-332l-290 446h-99v-446h-286v1135h-197z" />
    <glyph glyph-name="uni04A0" unicode="&#x4a0;" horiz-adv-x="1595" 
d="M0 1167v267h657v-631l72 31l430 600h346l-454 -600l-117 -78l121 -82l520 -674h-375l-463 606h-80v-606h-303v1167h-354z" />
    <glyph glyph-name="uni04A1" unicode="&#x4a1;" horiz-adv-x="1267" 
d="M0 821v254h545v-465l92 41l278 424h306l-275 -399l-131 -92l139 -86l314 -498h-332l-289 446h-102v-446h-283v821h-262z" />
    <glyph glyph-name="uni04A2" unicode="&#x4a2;" horiz-adv-x="1544" 
d="M133 0v1434h303v-576h574v576h303v-1168h192v-520h-215l-33 254h-247v592h-574v-592h-303z" />
    <glyph glyph-name="uni04A3" unicode="&#x4a3;" horiz-adv-x="1314" 
d="M147 0v1075h287v-399h408v399h286v-821h146v-498h-211l-33 244h-188v416h-408v-416h-287z" />
    <glyph glyph-name="uni04A4" unicode="&#x4a4;" horiz-adv-x="1896" 
d="M133 0v1434h303v-576h574v576h905v-267h-602v-1167h-303v592h-574v-592h-303z" />
    <glyph glyph-name="uni04A5" unicode="&#x4a5;" horiz-adv-x="1560" 
d="M147 0v1075h287v-399h408v399h719v-254h-433v-821h-286v416h-408v-416h-287z" />
    <glyph glyph-name="uni04A6" unicode="&#x4a6;" horiz-adv-x="2138" 
d="M1450 551q-82 0 -162 -39v-512h-303v1167h-549v-1167h-303v1434h1155v-662q131 45 256 45t213 -23.5t198.5 -119.5t110.5 -370q0 -275 -130 -419.5t-408 -144.5q-105 0 -137 8v262q28 -4 125 -4q229 0 229 273q0 218 -106.5 245t-188.5 27z" />
    <glyph glyph-name="uni04A7" unicode="&#x4a7;" horiz-adv-x="1931" 
d="M1323 346q-104 0 -209 -47l2 -299h-287v821h-395v-821h-287v1075h969v-528q155 53 271 53t194 -24.5t177.5 -121t99.5 -374.5t-122 -413.5t-407 -135.5q-101 0 -137 8v250q14 -4 51 -4h74q237 0 237 276q0 145 -63.5 215t-167.5 70z" />
    <glyph glyph-name="uni04A8" unicode="&#x4a8;" horiz-adv-x="1943" 
d="M1489 803q0 323 -227 323q-113 0 -179.5 -91t-66.5 -271q0 -121 59.5 -238.5t173.5 -189.5q104 68 172 189.5t68 277.5zM82 719q0 348 182 545.5t524 197.5v-266q-178 0 -281.5 -114.5t-103.5 -339.5t137.5 -364.5t305.5 -139.5q60 0 92 12q-166 98 -205 256t-39 279
t41 240.5t157.5 243.5t377.5 124q262 0 401 -160.5t139 -417.5q0 -209 -98.5 -366t-214.5 -207q24 -4 53 -4q135 0 230 67l96 -237q-97 -97 -324 -97q-149 0 -229 39t-106 64q-149 -103 -351 -103q-378 0 -581 200t-203 548z" />
    <glyph glyph-name="uni04A9" unicode="&#x4a9;" horiz-adv-x="1675" 
d="M1100 836q-180 0 -180 -256q0 -185 165 -299q82 47 132.5 133t50.5 188t-43 168t-125 66zM1319 207q129 -48 242 33l65 -189q-100 -82 -279 -82t-290 94q-144 -94 -375 -94q-277 0 -436.5 156t-159.5 412q0 532 547 569v-240q-133 -10 -192.5 -85.5t-59.5 -229.5t90 -248
t229 -94q71 0 101 27q-63 43 -111.5 133t-48.5 188q0 210 113.5 364t352.5 154q240 0 348 -124t108 -318q0 -136 -75 -255t-169 -171z" />
    <glyph glyph-name="uni04AA" unicode="&#x4aa;" horiz-adv-x="1243" 
d="M836 238q171 0 290 65l60 -242q-90 -63 -293 -84l-31 -333h-194l-43 342q-378 67 -460.5 313.5t-82.5 436.5t65.5 332t214 268t432.5 126q227 0 369 -55l-59 -254q-95 43 -293 43q-289 0 -348.5 -179t-59.5 -293q0 -226 109 -356t324 -130z" />
    <glyph glyph-name="uni04AB" unicode="&#x4ab;" horiz-adv-x="1024" 
d="M647 852q-266 0 -266 -315q0 -218 104.5 -266t207.5 -48t200 58l65 -215q-94 -64 -253 -89l-31 -333h-195l-43 342q-350 73 -350 551q0 268 132 418.5t384 150.5q204 0 342 -70l-70 -229q-104 45 -227 45z" />
    <glyph glyph-name="uni04AC" unicode="&#x4ac;" horiz-adv-x="1261" 
d="M25 1167v267h1212v-267h-455v-901h195v-520h-215l-33 254h-250v1167h-454z" />
    <glyph glyph-name="uni04AD" unicode="&#x4ad;" horiz-adv-x="999" 
d="M16 821v254h967v-254h-334v-567h156v-498h-211l-33 244h-211v821h-334z" />
    <glyph glyph-name="uni04AE" unicode="&#x4ae;" horiz-adv-x="1318" 
d="M811 0h-303v528l-512 906h360l287 -527l33 -153h10l35 157l276 523h326l-512 -904v-530z" />
    <glyph glyph-name="uni04AF" unicode="&#x4af;" horiz-adv-x="1114" 
d="M715 -410h-287v404l-453 1081h332l223 -641l45 -196h19l39 200l196 637h310l-424 -1081v-404z" />
    <glyph glyph-name="uni04B0" unicode="&#x4b0;" horiz-adv-x="1318" 
d="M1139 606v-198h-328v-408h-303v408h-328v198h283l-467 828h360l287 -527l33 -153h10l35 157l276 523h326l-469 -828h285z" />
    <glyph glyph-name="uni04B1" unicode="&#x4b1;" horiz-adv-x="1114" 
d="M977 0v-170h-262v-240h-287v240h-262v170h258l-449 1075h332l223 -641l45 -196h19l39 200l196 637h310l-422 -1075h260z" />
    <glyph glyph-name="uni04B2" unicode="&#x4b2;" horiz-adv-x="1476" 
d="M1460 266v-520h-215l-33 254h-192l-275 436l-61 148l-59 -148l-275 -436h-330l480 729l-434 705h366l240 -408l55 -141l53 141l250 408h330l-451 -691l303 -477h248z" />
    <glyph glyph-name="uni04B3" unicode="&#x4b3;" horiz-adv-x="1208" 
d="M1196 254v-498h-211l-33 244h-102l-174 242l2 -2l-86 188l-90 -188l2 2l-176 -242h-316l381 551l-352 524h348l146 -209l-3 2l84 -190l82 190l-2 -2l156 209h315l-354 -516l207 -305h176z" />
    <glyph glyph-name="uni04B4" unicode="&#x4b4;" horiz-adv-x="1865" 
d="M25 1167v267h1075v-267h-316v-901h541v1168h303v-1168h199v-520h-215l-33 254h-1098v1167h-456z" />
    <glyph glyph-name="uni04B5" unicode="&#x4b5;" horiz-adv-x="1525" 
d="M16 821v254h875v-254h-248v-567h383v821h287v-821h172v-498h-203l-35 244h-891v821h-340z" />
    <glyph glyph-name="uni04B6" unicode="&#x4b6;" horiz-adv-x="1441" 
d="M520 492q-300 0 -361 148t-61 253v541h303v-443q0 -119 53.5 -182.5t174.5 -63.5q194 0 280 70v619h303v-1168h191v-520h-215l-33 254h-246v573q-144 -81 -389 -81z" />
    <glyph glyph-name="uni04B7" unicode="&#x4b7;" horiz-adv-x="1234" 
d="M549 578q126 0 209 59v438h286v-821h150v-498h-211l-33 244h-192v438q-23 -14 -51.5 -31.5t-92.5 -43t-160 -25.5q-192 0 -280 84t-88 295v358h287v-211q0 -160 25.5 -208t60.5 -63t90 -15z" />
    <glyph glyph-name="uni04B8" unicode="&#x4b8;" horiz-adv-x="1429" 
d="M807 246h-205v248q-18 -2 -22 -2h-48q-310 0 -372 146t-62 253v543h303v-443q0 -232 201 -246v238h205v-223q126 18 186 55v619h303v-1434h-303v573q-57 -32 -186 -57v-270z" />
    <glyph glyph-name="uni04B9" unicode="&#x4b9;" horiz-adv-x="1265" 
d="M420 340q-159 0 -246.5 81.5t-87.5 285.5v368h287v-221q0 -137 31.5 -201.5t127.5 -72.5v251h162v-241q99 18 137 43v442h287v-1075h-287v436q-40 -31 -137 -59v-250h-162v217q-46 -4 -112 -4z" />
    <glyph glyph-name="uni04BA" unicode="&#x4ba;" horiz-adv-x="1343" 
d="M715 688q-193 0 -279 -70v-618h-303v1434h303v-576q145 84 385 84q302 0 363 -145.5t61 -249.5v-547h-303v446q0 121 -54 181.5t-173 60.5z" />
    <glyph glyph-name="uni04BB" unicode="&#x4bb;" horiz-adv-x="1306" 
d="M807 1106q183 0 268 -101q86 -101 84 -350v-655h-287v592q0 140 -42 200t-139 60t-166 -52t-91 -138v-662h-287v1434h287v-490h25q124 162 348 162z" />
    <glyph glyph-name="uni04BC" unicode="&#x4bc;" horiz-adv-x="1792" 
d="M1098 1212q-322 0 -336 -368h624q29 180 -56 274t-232 94zM1094 1462q290 0 439.5 -159.5t149.5 -460.5q0 -98 -22 -248h-897q13 -157 117.5 -256.5t295.5 -99.5t351 102l76 -254q-205 -115 -490 -115t-462 159t-193 464h-72q-206 0 -296.5 92.5t-90.5 233.5q2 94 51 149
h256q-51 -51 -41 -123q0 -77 63.5 -93.5t129.5 -10.5q21 287 183 453.5t452 166.5z" />
    <glyph glyph-name="uni04BD" unicode="&#x4bd;" horiz-adv-x="1531" 
d="M1155 637q17 244 -210 244q-120 0 -181.5 -69t-71.5 -175h463zM248 790q0 -69 33.5 -101t128.5 -30q35 215 175 331t371 116q318 0 391.5 -156.5t73.5 -269.5t-22 -213h-717q10 -139 81 -205.5t230 -66.5q96 0 173 27.5t118 56.5l98 -181q-70 -53 -189.5 -91t-256.5 -38
q-493 0 -530 486h-23q-182 0 -278.5 76.5t-90.5 230.5q4 79 60 147h233q-59 -50 -59 -119z" />
    <glyph glyph-name="uni04BE" unicode="&#x4be;" horiz-adv-x="1792" 
d="M1098 1212q-322 0 -336 -368h624q29 180 -56 274t-232 94zM1094 1462q290 0 439.5 -159.5t149.5 -460.5q0 -98 -22 -248h-897q13 -157 117.5 -256.5t295.5 -99.5t351 102l76 -254q-158 -90 -365 -109l-31 -333h-194l-43 340q-231 39 -364.5 192.5t-147.5 417.5h-72
q-206 0 -296.5 92.5t-90.5 233.5q2 94 51 149h256q-51 -51 -41 -123q0 -77 63.5 -93.5t129.5 -10.5q21 287 183 453.5t452 166.5z" />
    <glyph glyph-name="uni04BF" unicode="&#x4bf;" horiz-adv-x="1531" 
d="M1155 637q17 244 -210 244q-120 0 -181.5 -69t-71.5 -175h463zM307 909q-59 -55 -59 -118q0 -64 34 -98t128 -34q35 215 175 331t371 116q318 0 391.5 -156.5t73.5 -269.5t-22 -213h-717q10 -139 81 -205.5t230 -66.5q96 0 173 27.5t118 56.5l98 -181q-109 -84 -315 -118
l-31 -342h-194l-43 344q-364 61 -393 473h-23q-182 0 -278.5 76.5t-90.5 230.5q2 55 16.5 83.5t43.5 63.5h233z" />
    <glyph glyph-name="uni04C0" unicode="&#x4c0;" horiz-adv-x="794" 
d="M82 0v164h164v1106h-164v164h631v-164h-164v-1106h164v-164h-631z" />
    <glyph glyph-name="uni04C3" unicode="&#x4c3;" horiz-adv-x="1355" 
d="M133 0v1434h303v-631l70 31l432 600h346l-438 -572l-135 -84h114q213 -49 310.5 -186t97.5 -397v-56q0 -276 -124 -418.5t-341 -142.5q-66 0 -135 12v242q154 -10 229.5 65t75.5 259q0 316 -152.5 383t-271.5 67h-78v-606h-303z" />
    <glyph glyph-name="uni04C4" unicode="&#x4c4;" horiz-adv-x="1183" 
d="M147 0v1075h287v-473l92 41l275 432h309l-283 -409l-125 -84l119 -4q228 -66 253.5 -221.5t25.5 -229.5v-41q0 -264 -107.5 -388t-302.5 -124q-68 0 -145 14v240q268 -31 268 252q0 181 -66.5 260.5t-218.5 95.5h-94v-436h-287z" />
    <glyph glyph-name="uni04C5" unicode="&#x4c5;" horiz-adv-x="1445" 
d="M58 262q79 0 128 70q131 179 146 1102h919v-1180h219v-66l-210 -454h-211l100 266h-201v1167h-330q-23 -452 -57 -667t-129 -359q-110 -157 -315 -157q-78 0 -148 32l33 254q24 -8 56 -8z" />
    <glyph glyph-name="uni04C6" unicode="&#x4c6;" horiz-adv-x="1265" 
d="M90 260q39 0 76 35t73.5 170t51.5 610h788v-821h187v-66l-211 -432h-211l100 244h-151v821h-252q-14 -392 -97.5 -612.5t-285.5 -220.5q-129 0 -183 28l41 254q35 -10 74 -10z" />
    <glyph glyph-name="uni04C7" unicode="&#x4c7;" horiz-adv-x="1445" 
d="M983 -426q-65 0 -147 16v238q111 -11 142.5 30.5t31.5 141.5v592h-574v-592h-303v1434h303v-576h574v576h303v-1465q0 -186 -77 -290.5t-253 -104.5z" />
    <glyph glyph-name="uni04C8" unicode="&#x4c8;" horiz-adv-x="1275" 
d="M797 -426q-74 0 -146 14v240q159 -16 175 55.5t16 116.5v416h-408v-416h-287v1075h287v-399h408v399h286v-1106q0 -193 -78.5 -294t-252.5 -101z" />
    <glyph glyph-name="uni04C9" unicode="&#x4c9;" horiz-adv-x="1517" 
d="M133 0v1434h303v-576h574v576h303v-1180h229v-66l-211 -454h-211l101 266h-211v592h-574v-592h-303z" />
    <glyph glyph-name="uni04CA" unicode="&#x4ca;" horiz-adv-x="1308" 
d="M147 0v1075h287v-399h408v399h286v-821h181v-66l-211 -432h-211l100 244h-145v416h-408v-416h-287z" />
    <glyph glyph-name="uni04CB" unicode="&#x4cb;" horiz-adv-x="1345" 
d="M520 492q-300 0 -361 148t-61 253v541h303v-443q0 -119 53.5 -182.5t174.5 -63.5q194 0 280 70v619h303v-1434h-243l-31 -254h-217v520h188v307q-144 -81 -389 -81z" />
    <glyph glyph-name="uni04CC" unicode="&#x4cc;" horiz-adv-x="1191" 
d="M86 733v342h287v-201q0 -139 25.5 -182t59.5 -59.5t89 -16.5q134 0 211 64v395h286v-1075h-288l-37 -244h-203v457h242v248q-119 -84 -301 -84q-183 0 -277 83t-94 273z" />
    <glyph glyph-name="uni04CD" unicode="&#x4cd;" horiz-adv-x="1886" 
d="M133 0v1434h275l413 -662l78 -158h10l68 162l395 658h273v-1180h266v-66l-211 -454h-211l100 266h-248v719l33 297h-12l-98 -225l-332 -535h-94l-353 537l-96 221h-12l43 -293v-721h-287z" />
    <glyph glyph-name="uni04CE" unicode="&#x4ce;" horiz-adv-x="1628" 
d="M147 0v1075h302l268 -401v2l71 -137h23l72 141v-2l250 397h301v-821h194v-66l-211 -432h-211l101 244h-146v477l21 234h-33l-96 -185v2l-217 -333h-101l-239 333v-2l-97 185h-28l30 -232v-479h-254z" />
    <glyph glyph-name="uni04CF" unicode="&#x4cf;" horiz-adv-x="581" 
d="M147 0v1434h287v-1434h-287z" />
    <glyph glyph-name="uni04D0" unicode="&#x4d0;" horiz-adv-x="1347" 
d="M504 545h327l-110 299l-49 227h-10l-50 -229zM522 1792q19 -117 166 -117t166 115l248 -35q-25 -133 -129 -191t-293 -58t-301 55q-112 56 -131 188zM0 0l561 1444h223l564 -1444h-322l-123 305h-483l-117 -305h-303z" />
    <glyph glyph-name="uni04D1" unicode="&#x4d1;" horiz-adv-x="1185" 
d="M524 213q84 0 142 45q57 45 84 94v123q-11 4 -69 15q-58 10 -108 10q-111 0 -163 -40t-54 -100q0 -147 168 -147zM600 1372q66 0 106 32t56 114l213 -56q-27 -134 -133 -202t-254 -68q-237 0 -310 98t-88 172l244 58q16 -86 58 -117t108 -31zM61 295q0 367 492 369
q63 0 195 -23q6 43 6 74q0 79 -39 115t-146 36q-187 0 -356 -82l-76 217q93 41 227 68t262 27t204 -27q206 -73 206 -354q0 -105 -8 -207t-8 -243t43 -267h-234l-47 160h-24q-128 -174 -346 -174q-160 0 -255 88q-96 88 -96 223z" />
    <glyph glyph-name="uni04D2" unicode="&#x4d2;" horiz-adv-x="1347" 
d="M745 1635q0 54 40 88t128 34t128 -34t40 -88t-40 -85.5t-128 -31.5t-128 32t-40 85zM504 545h327l-110 299l-49 227h-10l-50 -229zM268 1634q0 55 40 89t128 34t128 -34t40 -88t-40 -86t-126 -31q-170 0 -170 116zM0 0l561 1444h223l564 -1444h-322l-123 305h-483
l-117 -305h-303z" />
    <glyph glyph-name="uni04D3" unicode="&#x4d3;" horiz-adv-x="1185" 
d="M684 1332q0 66 42 109.5t113 43.5t113 -43q42 -44 41 -110q0 -66 -42.5 -109t-112.5 -43t-112 43t-42 109zM524 213q84 0 142 45q57 45 84 94v123q-11 4 -69 15q-58 10 -108 10q-111 0 -163 -40t-54 -100q0 -147 168 -147zM166 1332q0 66 44 109.5t114 43.5t112 -43
q42 -44 41 -110q0 -66 -41.5 -109t-111.5 -43t-114 43t-44 109zM61 295q0 367 492 369q63 0 195 -23q6 43 6 74q0 79 -39 115t-146 36q-187 0 -356 -82l-76 217q93 41 227 68t262 27t204 -27q206 -73 206 -354q0 -105 -8 -207t-8 -243t43 -267h-234l-47 160h-24
q-128 -174 -346 -174q-160 0 -255 88q-96 88 -96 223z" />
    <glyph glyph-name="uni04D4" unicode="&#x4d4;" horiz-adv-x="1914" 
d="M889 584v501h-15l-79 -217l-179 -284h273zM1812 1434v-267h-620v-311h565v-266h-565v-324h631v-266h-934v338h-414l-217 -338h-324l945 1434h933z" />
    <glyph glyph-name="uni04D5" unicode="&#x4d5;" horiz-adv-x="1873" 
d="M1497 637q21 242 -210 242q-120 0 -180 -69t-71 -173h461zM525 213q83 0 140 43q56 43 85 90v129q-84 22 -180 22q-97 1 -155.5 -41t-58.5 -108t43 -100.5t126 -34.5zM412 -16q-160 0 -255 88q-96 88 -96 223q0 182 127 274t361 93q99 0 199 -21q6 44 6 72
q0 151 -188 151t-353 -76l-76 201q214 107 486 107q121 0 193 -29t126 -90q60 61 154 95t192 34q330 0 435 -228q40 -85 40 -202t-20 -209h-719q10 -135 83 -204t230 -68q94 -1 172 27t121 57l94 -183q-76 -59 -196 -92t-248 -35q-329 0 -438 201h-11q-145 -186 -419 -186z
" />
    <glyph glyph-name="uni04D6" unicode="&#x4d6;" horiz-adv-x="1159" 
d="M440 1792q19 -117 166 -117t166 115l248 -35q-25 -133 -129 -191t-293 -58t-301 55q-112 56 -131 188zM133 0v1434h924v-267h-621v-311h563v-266h-563v-324h631v-266h-934z" />
    <glyph glyph-name="uni04D7" unicode="&#x4d7;" horiz-adv-x="1216" 
d="M840 637q17 244 -210 244q-120 0 -181 -69t-72 -175h463zM626 1372q66 0 106 32t56 114l213 -56q-27 -134 -133 -202t-254 -68q-237 0 -310 98t-87 172l244 58q16 -86 57 -117t108 -31zM1106 679q0 -114 -23 -212h-716q11 -139 81 -206t230 -66q96 -1 173 27t118 57
l98 -181q-69 -53 -189 -91t-257 -38q-276 0 -406 152q-129 153 -129 425t145 416t410 144q195 0 330 -101q135 -102 135 -326z" />
    <glyph glyph-name="uni04D8" unicode="&#x4d8;" horiz-adv-x="1398" 
d="M1014 596h-606q-16 -95 25.5 -235t261.5 -140q147 0 233 94.5t86 280.5zM615 1196q-188 0 -355 -96l-59 258q118 68 253.5 86t202.5 18q482 0 571 -274.5t89 -458.5q0 -368 -159 -563t-471 -195t-459.5 169t-147.5 462q0 99 22 244h912q-14 164 -112.5 257t-286.5 93z
" />
    <glyph glyph-name="afii10846" unicode="&#x4d9;" horiz-adv-x="1216" 
d="M592 195q115 0 181.5 74t70.5 188h-471q-10 -119 47 -190.5t172 -71.5zM538 881q-156 0 -288 -90l-103 188q70 51 189 89t257 38q268 0 402.5 -154t134.5 -416t-144.5 -414.5t-391.5 -152.5q-328 0 -405.5 168t-77.5 283t20 209h721q-16 135 -87 193.5t-227 58.5z" />
    <glyph glyph-name="uni04DA" unicode="&#x4da;" horiz-adv-x="1398" 
d="M764 1635q0 54 40 88t128 34t128 -34t40 -88t-40 -85.5t-128 -31.5t-128 32t-40 85zM1014 596h-606q-29 -170 62 -281q79 -94 225 -94q147 0 233 94t86 281zM287 1634q0 55 40 89t128 34t128 -34t40 -88t-40 -86t-126 -31q-170 0 -170 116zM615 1196q-188 0 -355 -96
l-59 258q112 65 320 95q69 9 136 9q481 0 570.5 -274t89.5 -458q0 -755 -645 -759q-296 0 -444 168.5t-148 462.5q0 99 22 244h912q-14 164 -112 257t-287 93z" />
    <glyph glyph-name="uni04DB" unicode="&#x4db;" horiz-adv-x="1216" 
d="M702 1330q0 66 42 109.5t113 43.5t113 -43.5t42 -109.5t-42 -109t-113 -43t-113 43t-42 109zM591 195q114 0 181 73q66 73 72 189h-471q-10 -119 47 -191t171 -71zM184 1330q0 66 44 109.5t114 43.5t112 -43.5t42 -109.5t-42 -109t-112 -43t-114 43t-44 109zM593 1106
q268 0 404 -155t133 -414q0 -263 -144.5 -415.5t-391.5 -152.5q-331 0 -442 247q-41 89 -41 204t20 209h721q-16 135 -87 193t-227 58t-288 -89l-103 188q70 51 189 89t257 38z" />
    <glyph glyph-name="uni04DC" unicode="&#x4dc;" horiz-adv-x="1863" 
d="M1004 1634q0 55 39 89q40 34 128 34t128 -34t40 -88t-40 -86t-130 -31q-165 0 -165 116zM526 1634q0 55 40 89t128 34t128 -34t40 -88t-40 -86t-126 -31q-170 0 -170 116zM778 825v609h287v-633l80 28l323 605h344l-364 -629l-107 -72l129 -88l410 -645h-367l-360 616
h-88v-616h-287v641l-78 -29l-360 -612h-356l407 625l121 82l-117 77l-381 650h355l321 -609h88z" />
    <glyph glyph-name="uni04DD" unicode="&#x4dd;" horiz-adv-x="1658" 
d="M1088 1180q-70 0 -112 43t-42 109t42 109.5t112 43.5t112.5 -43.5t42.5 -109.5t-42 -109t-113 -43zM573.5 1180q-69.5 0 -113.5 43t-44 109t44 109.5t114 43.5t111.5 -43.5t41.5 -109.5t-42 -109t-111.5 -43zM684 639v436h270v-465l107 37q53 109 110 214t111 214h309
q-66 -111 -127 -215t-127 -215h2l-96 -76l125 -90h-2l281 -479h-332l-242 446h-119v-446h-270v473l-106 -35l-240 -438h-326l303 487h-2l86 70l-125 88l-241 430h313l219 -436h119z" />
    <glyph glyph-name="uni04DE" unicode="&#x4de;" horiz-adv-x="1167" 
d="M602 1635q0 54 40 88t128 34t128 -34t40 -88t-40 -85.5t-128 -31.5t-128 32t-40 85zM125 1634q0 55 40 89t128 34t128 -34t40 -88t-40 -86t-126 -31q-170 0 -170 116zM78 1372q198 86 454 86q346 0 463 -184q45 -70 45 -175t-61 -195t-197 -132v-12q142 -23 224 -113
t82 -221t-75 -252.5t-301 -176.5q-108 -26 -201 -26q-232 0 -337.5 31.5t-136.5 48.5l78 262q170 -77 363 -76t263 105q25 37 25 88q0 103 -77 144q-82 47 -288 53l-86 2h-53v231h93q125 0 193 13q67 13 119 51t52 120t-67 115t-172 33t-196 -28t-130 -50z" />
    <glyph glyph-name="uni04DF" unicode="&#x4df;" horiz-adv-x="995" 
d="M561 1332q0 66 42 109.5t113 43.5q70 0 112 -43q42 -44 42 -110t-42 -109t-112 -43t-112.5 43t-42.5 109zM418 213q217 0 217 125q0 86 -96 97t-177 11h-106v193h133q92 0 146 30q53 30 53 85t-47 78.5t-170 23.5t-258 -65l-56 210q68 41 183 68t243 27q199 0 296 -69
t98 -198q0 -123 -103 -205q-35 -28 -82 -44v-17q127 -27 178 -91q52 -64 52 -153q1 -243 -276 -320q-93 -26 -218 -26q-212 0 -379 86q18 69 64 222q129 -68 305 -68zM43 1332q0 66 44 109.5t113.5 43.5t111.5 -43q42 -44 42 -110t-42 -109t-112 -43t-113.5 43t-43.5 109z
" />
    <glyph glyph-name="uni04E0" unicode="&#x4e0;" horiz-adv-x="1216" 
d="M805 453q0 109 -95.5 151.5t-283.5 42.5h-182v131l340 330l100 88l-131 -25h-453v263h959v-168l-373 -367l-100 -63v-11l102 21q199 -2 318.5 -100.5t119.5 -307.5t-169 -338t-445 -129q-181 0 -291 31t-149 53l73 262q153 -79 361 -79q123 0 211 53t88 162z" />
    <glyph glyph-name="uni04E1" unicode="&#x4e1;" horiz-adv-x="1124" 
d="M438 -223q154 0 244 60.5t90 170.5q0 240 -389 240h-141v117l268 366h-2l143 123l-192 -18h-391v239h917v-155l-330 -388h2l-102 -71l90 2q161 4 287.5 -113.5t126.5 -304.5q0 -234 -173.5 -371t-433.5 -137t-427 98l106 222q153 -80 307 -80z" />
    <glyph glyph-name="uni04E2" unicode="&#x4e2;" horiz-adv-x="1480" 
d="M369 1548v189h764v-189h-764zM133 0v1434h303v-772l-20 -191h12l111 191l581 772h228v-1434h-304v791l17 182h-10l-105 -185l-588 -788h-225z" />
    <glyph glyph-name="uni04E3" unicode="&#x4e3;" horiz-adv-x="1294" 
d="M268 1196v195h719v-195h-719zM147 0v1075h287v-506l-10 -147h25q25 35 50 74q26 39 50 73l426 506h172v-1075h-287v485l12 183l-129 -181l-424 -487h-172z" />
    <glyph glyph-name="uni04E4" unicode="&#x4e4;" horiz-adv-x="1480" 
d="M809 1635q0 54 40 88t128 34t128 -34t40 -88t-40 -85.5t-128 -31.5t-128 32t-40 85zM332 1634q0 55 40 89t128 34t128 -34t40 -88t-40 -86t-126 -31q-170 0 -170 116zM133 0v1434h303v-772l-20 -191h12l111 191l581 772h228v-1434h-304v791l17 182h-10l-105 -185
l-588 -788h-225z" />
    <glyph glyph-name="uni04E5" unicode="&#x4e5;" horiz-adv-x="1294" 
d="M906 1180q-70 0 -112 43t-42 109t42 109.5t112 43.5t112.5 -43.5t42.5 -109.5t-42 -109t-113 -43zM391 1180q-70 0 -114 43t-44 109q1 66 45 110q44 43 114 43t111.5 -43.5t41.5 -109.5t-42 -109t-112 -43zM147 0v1075h287v-506l-10 -147h25q25 35 50 74q26 39 50 73
l426 506h172v-1075h-287v485l12 183l-129 -181l-424 -487h-172z" />
    <glyph glyph-name="uni04E6" unicode="&#x4e6;" horiz-adv-x="1488" 
d="M815 1635q0 54 40 88t128 34t128 -34t40 -88t-40 -85.5t-128 -31.5t-128 32t-40 85zM403 717q0 -341 188 -445q65 -35 152 -34q162 0 252 110t90 369q0 343 -185 443q-65 36 -157 36q-160 0 -250 -114t-90 -365zM338 1634q0 55 40 89t128 34t128 -34t40 -88t-40 -86
t-126 -31q-170 0 -170 116zM82 722q0 347 175 544q175 196 492 196t488 -202q170 -202 170 -549t-177 -542.5t-487 -197.5q-166 0 -289 55q-372 162 -372 696z" />
    <glyph glyph-name="uni04E7" unicode="&#x4e7;" horiz-adv-x="1261" 
d="M735 1332q0 66 42 109.5t113 43.5q70 0 112 -43q42 -44 42 -110t-42 -109t-112 -43t-112.5 43t-42.5 109zM381 537q0 -226 135 -301q47 -27 115 -27q250 0 250 328q0 235 -91.5 282.5t-158.5 46.5q-117 0 -183 -78t-67 -251zM217 1332q0 66 44 109.5t113.5 43.5
t111.5 -43q42 -44 42 -110t-42 -109t-112 -43t-113.5 43t-43.5 109zM227 954q141 152 405 152t404 -158.5t140 -416.5t-144 -410t-406 -152q-263 0 -401.5 157t-138.5 417q0 259 141 411z" />
    <glyph glyph-name="uni04E8" unicode="&#x4e8;" horiz-adv-x="1488" 
d="M1077 840q-44 356 -335 356q-290 0 -332 -356h667zM738 238q146 0 234 84q87 84 107 278h-669q20 -166 100 -264q82 -98 228 -98zM82 722q0 347 175 544q175 196 492 196t488 -202q170 -202 170 -549t-177 -542.5t-487 -197.5q-166 0 -289 55q-372 162 -372 696z" />
    <glyph glyph-name="uni04E9" unicode="&#x4e9;" horiz-adv-x="1261" 
d="M381 623h500q-37 244 -250 243q-92 0 -164 -56t-86 -187zM630 209q222 0 251 240h-500q14 -113 83 -177t166 -63zM1176 533q0 -264 -142 -414t-406 -150q-265 0 -403.5 153t-138.5 420t141 415.5t405 148.5t404 -154.5t140 -418.5z" />
    <glyph glyph-name="uni04EA" unicode="&#x4ea;" horiz-adv-x="1488" 
d="M815 1635q0 54 40 88t128 34t128 -34t40 -88t-40 -85.5t-128 -31.5t-128 32t-40 85zM1077 840q-44 356 -335 356q-290 0 -332 -356h667zM738 238q146 0 234 84q87 84 107 278h-669q20 -166 100 -264q82 -98 228 -98zM338 1634q0 55 40 89t128 34t128 -34t40 -88t-40 -86
t-126 -31q-170 0 -170 116zM82 722q0 347 175 544q175 196 492 196t488 -202q170 -202 170 -549t-177 -542.5t-487 -197.5q-166 0 -289 55q-372 162 -372 696z" />
    <glyph glyph-name="uni04EB" unicode="&#x4eb;" horiz-adv-x="1261" 
d="M735 1332q0 66 42 109.5t113 43.5q70 0 112 -43q42 -44 42 -110t-42 -109t-112 -43t-112.5 43t-42.5 109zM381 623h500q-37 244 -250 243q-92 0 -164 -56t-86 -187zM630 209q222 0 251 240h-500q14 -113 83 -177t166 -63zM217 1332q0 66 44 109.5t113.5 43.5t111.5 -43
q42 -44 42 -110t-42 -109t-112 -43t-113.5 43t-43.5 109zM1176 533q0 -264 -142 -414t-406 -150q-265 0 -403.5 153t-138.5 420t141 415.5t405 148.5t404 -154.5t140 -418.5z" />
    <glyph glyph-name="uni04EC" unicode="&#x4ec;" horiz-adv-x="1271" 
d="M578 1634q0 55 39 89q40 34 128 34t128 -34t40 -88t-40 -86t-130 -31q-165 0 -165 116zM100 1634q0 55 40 89t128 34t128 -34t40 -88t-40 -86t-126 -31q-170 0 -170 116zM461 238q279 0 381 202q35 70 45 168h-600v240h598q-13 155 -120 251.5t-305 96.5t-343 -80
l-66 256q126 61 247 75.5t179 14.5q506 0 659 -396q54 -142 54 -353q0 -392 -214 -567t-542 -175q-226 0 -393 70l80 260q129 -63 340 -63z" />
    <glyph glyph-name="uni04ED" unicode="&#x4ed;" horiz-adv-x="1079" 
d="M738 1180q-70 0 -112 43t-42 109t42 109.5t112 43.5t112.5 -43.5t42.5 -109.5t-42 -109t-113 -43zM223.5 1180q-69.5 0 -113.5 43t-44 109t44 109.5t114 43.5t111.5 -43.5t41.5 -109.5t-42 -109t-111.5 -43zM406 209q228 0 262 88t39 149h-443v199h441q-29 221 -283 221
q-139 0 -277 -65l-77 205q150 100 411 100q514 0 514 -569q0 -283 -143 -425t-391 -143q-109 1 -221 21t-177 61l70 221q119 -63 275 -63z" />
    <glyph glyph-name="uni04EE" unicode="&#x4ee;" horiz-adv-x="1261" 
d="M279 1548v189h763v-189h-763zM416 252q106 0 147 143l-583 1039h356l315 -625l45 -182h15l34 190l234 617h317l-415 -998q-95 -231 -198 -342q-103 -110 -267 -108q-74 0 -117 8t-96 41l76 244q59 -27 137 -27z" />
    <glyph glyph-name="uni04EF" unicode="&#x4ef;" horiz-adv-x="1107" 
d="M186 1196v195h719v-195h-719zM164 -381l59 221q31 -10 81 -10t80 24q55 44 83 140l-492 1081h347l219 -596l45 -172h20l39 172l182 596h293l-356 -973q-45 -121 -85 -217t-111.5 -199.5t-203.5 -103.5t-200 37z" />
    <glyph glyph-name="uni04F0" unicode="&#x4f0;" horiz-adv-x="1261" 
d="M1085 1634q1 -118 -167 -117t-168 118q0 54 40 88t128 34t128 -34t39 -89zM272 1634q0 55 40 89t128 34t128 -34t40 -88t-40 -86t-126 -31q-170 0 -170 116zM416 252q106 0 147 143l-583 1039h356l315 -625l45 -182h15l34 190l234 617h317l-415 -998q-95 -231 -198 -342
q-103 -110 -267 -108q-74 0 -117 8t-96 41l76 244q59 -27 137 -27z" />
    <glyph glyph-name="uni04F1" unicode="&#x4f1;" horiz-adv-x="1107" 
d="M818 1180q-70 0 -112 43t-42 109t42 109.5t112 43.5t112.5 -43.5t42.5 -109.5t-42 -109t-113 -43zM145 1332q0 66 44 109.5t114 43.5t112 -43.5t42 -109.5t-42 -109t-112 -43t-114 43t-44 109zM164 -381l59 221q31 -10 81 -10t80 24q55 44 83 140l-492 1081h347l219 -596
l45 -172h20l39 172l182 596h293l-356 -973q-45 -121 -85 -217t-111.5 -199.5t-203.5 -103.5t-200 37z" />
    <glyph glyph-name="uni04F2" unicode="&#x4f2;" horiz-adv-x="1261" 
d="M1198 1741v-33l-317 -190h-209l217 223h309zM745 1741v-33l-223 -190h-207l134 223h296zM416 252q106 0 147 143l-583 1039h356l315 -625l45 -182h15l34 190l234 617h317l-415 -998q-95 -231 -198 -342q-103 -110 -267 -108q-74 0 -117 8t-96 41l76 244q59 -27 137 -27z
" />
    <glyph glyph-name="uni04F3" unicode="&#x4f3;" horiz-adv-x="1107" 
d="M1069 1511v-28l-274 -240h-172l165 268h281zM631 1511v-28l-174 -240h-166l80 268h260zM164 -381l59 221q31 -10 81 -10t80 24q55 44 83 140l-492 1081h347l219 -596l45 -172h20l39 172l182 596h293l-356 -973q-45 -121 -85 -217t-111.5 -199.5t-203.5 -103.5t-200 37z
" />
    <glyph glyph-name="uni04F4" unicode="&#x4f4;" horiz-adv-x="1345" 
d="M743 1635q0 54 40 88t128 34t128 -34t40 -88t-40 -85.5t-128 -31.5t-128 32t-40 85zM266 1634q0 55 40 89t128 34t128 -34t40 -88t-40 -86t-126 -31q-170 0 -170 116zM909 1434h303v-1434h-303v573q-147 -83 -389 -81q-301 0 -361.5 148.5t-60.5 252.5v541h303v-443
q-1 -119 53 -182t175 -64q196 0 280 70v619z" />
    <glyph glyph-name="uni04F5" unicode="&#x4f5;" horiz-adv-x="1191" 
d="M818 1180q-70 0 -112 43t-42 109t42 109.5t112 43.5t112.5 -43.5t42.5 -109.5t-42 -109t-113 -43zM145 1332q0 66 44 109.5t114 43.5t112 -43.5t42 -109.5t-42 -109t-112 -43t-114 43t-44 109zM758 1075h286v-1075h-286v438q-76 -47 -144 -73q-67 -27 -161 -27
q-193 0 -280 84t-87 295v358h287v-211q0 -160 33 -223t151 -63t201 59v438z" />
    <glyph glyph-name="uni04F6" unicode="&#x4f6;" horiz-adv-x="1019" 
d="M133 0v1434h905v-267h-602v-901h193v-520h-215l-33 254h-248z" />
    <glyph glyph-name="uni04F7" unicode="&#x4f7;" horiz-adv-x="897" 
d="M147 0v1075h750v-254h-446v-567h165v-483h-210l-33 229h-226z" />
    <glyph glyph-name="uni04F8" unicode="&#x4f8;" horiz-adv-x="1771" 
d="M1335 0v1434h303v-1434h-303zM954 1635q0 54 40 88t128 34t128 -34t40 -88t-40 -85.5t-128 -31.5t-128 32t-40 85zM477 1634q0 55 40 89t128 34t128 -34t40 -88t-40 -86t-126 -31q-170 0 -170 116zM590 246q102 0 182 51t80 167t-83 170q-63 40 -200 40q-14 0 -33 -2
t-49 -5t-51 -10v-401q52 -10 154 -10zM133 1434h303v-510q92 16 180 16q555 0 558 -463q0 -248 -160 -372.5t-447 -124.5t-434 34v1420z" />
    <glyph glyph-name="uni04F9" unicode="&#x4f9;" horiz-adv-x="1669" 
d="M1235 0v1075h287v-1075h-287zM1074 1180q-70 0 -112 43t-42 109t42 109.5t112 43.5t112.5 -43.5t42.5 -109.5t-42 -109t-113 -43zM786 373q0 137 -196 137q-86 0 -156 -18v-252q73 -15 166 -15q94 0 140 35t46 113zM401 1332q0 66 44 109.5t114 43.5t112 -43.5t42 -109.5
t-42 -109t-112 -43t-114 43t-44 109zM147 1075h287v-385q120 19 234 19q215 0 315 -91.5t98 -242.5q0 -96 -27 -169q-56 -147 -252 -196q-100 -24 -294 -24q-195 0 -361 12v1077z" />
    <glyph glyph-name="uni04FC" unicode="&#x4fc;" horiz-adv-x="1404" 
d="M961 -424q-66 0 -148 16v238q153 -11 172 45.5t19 104.5q0 79 -99 223l-157 233l-64 148l-59 -148l-275 -436h-330l480 729l-434 705h366l240 -408l55 -141l53 141l250 408h330l-451 -691l293 -434q115 -167 115 -350q0 -182 -89 -282.5t-267 -100.5z" />
    <glyph glyph-name="uni04FD" unicode="&#x4fd;" horiz-adv-x="1187" 
d="M784 -426q-73 0 -145 14v226q176 -11 194.5 49.5t18.5 105.5t-29.5 87t-60.5 85l-82 111v-2l-92 174l-86 -174l2 2l-178 -252h-314l381 551l-352 524h344l150 -221l-3 2l78 -168l84 168v-2l156 221h313l-352 -516l207 -291q121 -170 121 -297q0 -397 -355 -397z" />
    <glyph glyph-name="uni2000" unicode="&#x2000;" horiz-adv-x="896" 
 />
    <glyph glyph-name="uni2001" unicode="&#x2001;" horiz-adv-x="1792" 
 />
    <glyph glyph-name="uni2002" unicode="&#x2002;" horiz-adv-x="896" 
 />
    <glyph glyph-name="uni2003" unicode="&#x2003;" horiz-adv-x="1792" 
 />
    <glyph glyph-name="uni2004" unicode="&#x2004;" horiz-adv-x="597" 
 />
    <glyph glyph-name="uni2005" unicode="&#x2005;" horiz-adv-x="448" 
 />
    <glyph glyph-name="uni2006" unicode="&#x2006;" horiz-adv-x="298" 
 />
    <glyph glyph-name="uni2007" unicode="&#x2007;" horiz-adv-x="298" 
 />
    <glyph glyph-name="uni2008" unicode="&#x2008;" horiz-adv-x="224" 
 />
    <glyph glyph-name="uni2009" unicode="&#x2009;" horiz-adv-x="358" 
 />
    <glyph glyph-name="uni200A" unicode="&#x200a;" horiz-adv-x="99" 
 />
    <glyph glyph-name="uni2010" unicode="&#x2010;" horiz-adv-x="800" 
d="M121 463v254h559v-254h-559z" />
    <glyph glyph-name="uni2011" unicode="&#x2011;" horiz-adv-x="800" 
d="M121 463v254h559v-254h-559z" />
    <glyph glyph-name="figuredash" unicode="&#x2012;" horiz-adv-x="800" 
d="M121 463v254h559v-254h-559z" />
    <glyph glyph-name="endash" unicode="&#x2013;" horiz-adv-x="1470" 
d="M244 461v258h983v-258h-983z" />
    <glyph glyph-name="emdash" unicode="&#x2014;" horiz-adv-x="1824" 
d="M242 461v258h1341v-258h-1341z" />
    <glyph glyph-name="quoteleft" unicode="&#x2018;" horiz-adv-x="497" 
d="M86 1313q0 246 250 327l67 -116q-45 -16 -74.5 -50t-33.5 -75q43 2 81 -35t38 -98t-44 -98.5t-117 -37.5t-120 49.5t-47 133.5z" />
    <glyph glyph-name="quoteright" unicode="&#x2019;" horiz-adv-x="499" 
d="M86 1312q0 64 43 102t117 38t121 -51t47 -134q0 -145 -82 -226t-168 -103l-72 121q108 38 115 123q-43 -4 -82 31t-39 99z" />
    <glyph glyph-name="quotesinglbase" unicode="&#x201a;" horiz-adv-x="499" 
d="M86 124q0 64 43 102t117 38t121 -51t47 -134q0 -145 -82 -226t-168 -103l-72 121q108 38 115 123q-43 -4 -82 31t-39 99z" />
    <glyph glyph-name="quotedblleft" unicode="&#x201c;" horiz-adv-x="878" 
d="M467 1313q0 246 250 327l67 -116q-45 -16 -74.5 -50t-33.5 -75q43 2 81 -35t38 -98t-44 -98.5t-117 -37.5t-120 49.5t-47 133.5zM86 1313q0 246 250 327l67 -116q-45 -16 -74.5 -50t-33.5 -75q43 2 81 -35t38 -98t-44 -98.5t-117 -37.5t-120 49.5t-47 133.5z" />
    <glyph glyph-name="quotedblright" unicode="&#x201d;" horiz-adv-x="880" 
d="M467 1310q0 64 42.5 102t116.5 38t121.5 -51t47.5 -134q0 -145 -82.5 -225.5t-167.5 -103.5l-72 121q108 38 115 123q-43 -4 -82 31t-39 99zM86 1310q0 64 43 102t117 38t121 -51t47 -134q0 -145 -82 -226t-168 -103l-72 121q108 38 115 123q-43 -4 -82 31t-39 99z" />
    <glyph glyph-name="quotedblbase" unicode="&#x201e;" horiz-adv-x="880" 
d="M467 124q0 64 42.5 102t116.5 38t121.5 -51t47.5 -134q0 -145 -82.5 -225.5t-167.5 -103.5l-72 121q108 38 115 123q-43 -4 -82 31t-39 99zM86 124q0 64 43 102t117 38t121 -51t47 -134q0 -145 -82 -226t-168 -103l-72 121q108 38 115 123q-43 -4 -82 31t-39 99z" />
    <glyph glyph-name="bullet" unicode="&#x2022;" horiz-adv-x="1007" 
d="M263 863.5q99 90.5 243 90.5q143 0 240.5 -89t97.5 -227.5t-98 -226t-242 -87.5t-242 87t-98 224q0 138 99 228.5z" />
    <glyph glyph-name="ellipsis" unicode="&#x2026;" horiz-adv-x="1757" 
d="M1288 141q0 74 49 117t130 43t130.5 -43t49.5 -117t-49.5 -119t-130.5 -45t-130 45t-49 119zM700 141q0 74 49.5 117t130.5 43t130 -43t49 -117t-49 -119t-130 -45t-130.5 45t-49.5 119zM115 141q0 74 49 117t130 43t130 -43t49 -117t-49 -119t-130 -45t-130 45t-49 119z
" />
    <glyph glyph-name="uni202F" unicode="&#x202f;" horiz-adv-x="358" 
 />
    <glyph glyph-name="guilsinglleft" unicode="&#x2039;" horiz-adv-x="681" 
d="M66 530l356 471l162 -145l-178 -240l-107 -84l107 -73l194 -234l-166 -147z" />
    <glyph glyph-name="guilsinglright" unicode="&#x203a;" horiz-adv-x="681" 
d="M82 856l166 145l370 -452l-356 -471l-166 143l183 242l106 84l-106 74z" />
    <glyph glyph-name="uni205F" unicode="&#x205f;" horiz-adv-x="448" 
 />
    <glyph glyph-name="Euro" unicode="&#x20ac;" 
d="M1206 63q-129 -92 -421 -92q-85 0 -188 30t-231.5 124t-183.5 344h-205l70 193h111v52q0 52 2 66h-183l70 193h141q60 250 233.5 369.5t391.5 119.5t373 -57l-80 -225q-101 43 -247 43t-242.5 -59.5t-145.5 -190.5h571l-57 -193h-557q-2 -14 -2 -18v-100h514l-57 -193
h-418q95 -258 399 -258q156 0 283 74z" />
    <glyph glyph-name="trademark" unicode="&#x2122;" horiz-adv-x="2105" 
d="M952 696v738h289l203 -312l53 -129h2l57 133l187 308h287v-738h-250v291l35 211h-13l-80 -174l-151 -236h-172l-154 228l-86 182h-12l55 -209v-293h-250zM61 1194v240h811v-240h-262v-498h-286v498h-263z" />
    <glyph glyph-name="uniE000" unicode="&#xe000;" horiz-adv-x="1075" 
d="M0 0v1075h1075v-1075h-1075z" />
    </font>
</defs>
</svg>
