<?xml version="1.0" standalone="no"?>
<!DOCTYPE svg PUBLIC "-//W3C//DTD SVG 1.1//EN" "http://www.w3.org/Graphics/SVG/1.1/DTD/svg11.dtd" >
<svg xmlns="http://www.w3.org/2000/svg">
<metadata>
Created by FontPrep 20130207 at Mon Jun 17 22:43:46 2013
 By iSashok
Copyright (c) 2009 ParaType Ltd. All rights reserved.
</metadata>
<defs>
<font id="f39585f1b656e5f9297b79e526233403" >
  <font-face 
    font-family="PTSans-Regular"
    font-weight="400"
    font-stretch="normal"
    units-per-em="2048"
    panose-1="2 11 5 3 2 2 3 2 2 4"
    ascent="1577"
    descent="-471"
    x-height="1024"
    cap-height="1434"
    bbox="-76 -471 2001 1782"
    underline-thickness="102"
    underline-position="-102"
    unicode-range="U+0020-E000"
  />
<missing-glyph horiz-adv-x="2048" 
 />
    <glyph glyph-name=".notdef" horiz-adv-x="2048" 
 />
    <glyph glyph-name="glyph1" horiz-adv-x="0" 
 />
    <glyph glyph-name="glyph2" horiz-adv-x="2048" 
 />
    <glyph glyph-name="space" unicode=" " horiz-adv-x="546" 
 />
    <glyph glyph-name="exclam" unicode="!" horiz-adv-x="624" 
d="M260 1434h170v-711l-35 -361h-100l-35 361v711zM225 95q0 54 32 86t86 32t87 -31.5t33 -85.5t-33 -87.5t-87 -33.5t-86 33t-32 87z" />
    <glyph glyph-name="quotedbl" unicode="&#x22;" horiz-adv-x="686" 
d="M424 1038v396h160l-64 -396h-96zM184 1038v396h160l-63 -396h-97z" />
    <glyph glyph-name="numbersign" unicode="#" 
d="M389 592h215l64 268h-215zM57 461l29 131h162l63 268h-151l28 131h154l78 324h141l-78 -324h215l78 324h142l-78 -324h157l-32 -131h-156l-64 -268h150l-33 -131h-147l-80 -342h-141l79 342h-215l-79 -342h-142l80 342h-160z" />
    <glyph glyph-name="dollar" unicode="$" 
d="M817 365q0 130 -85 183.5t-130 76.5v-498q94 14 154.5 73t60.5 165zM332 1097q0 -81 56 -136.5t140 -100.5v449q-109 -12 -152.5 -71.5t-43.5 -140.5zM496 1638h139v-180q173 -7 291 -59l-49 -144q-101 49 -242 56v-506q169 -88 260.5 -177t91.5 -249t-89 -263.5
t-263 -131.5v-189h-139v180q-227 4 -340 66l55 149q104 -63 285 -67v553q-61 31 -197.5 108t-136.5 302q0 155 83 249.5t251 116.5v186z" />
    <glyph glyph-name="percent" unicode="%" horiz-adv-x="1583" 
d="M1026 350q0 -229 166 -229q126 0 146 80.5t20 148.5q0 182 -96 218q-31 11 -70 12q-78 0 -122 -48t-44 -182zM1231 698q185 0 232 -126t47 -222q-1 -268 -192 -330q-58 -18 -166 -18t-193 84t-85 261t86 264t271 87zM295 1110q0 -229 166 -229q127 0 154 117
q11 44 12 112q0 184 -64 206.5t-102 22.5q-78 0 -122 -48t-44 -181zM252 55l1053 1405l100 -78l-1051 -1407zM499 1458q185 0 255 -185q24 -67 24 -163q-1 -268 -191 -330q-58 -18 -165.5 -18t-193.5 83q-85 83 -85 261q0 177 86 264q85 88 270 88z" />
    <glyph glyph-name="ampersand" unicode="&#x26;" horiz-adv-x="1667" 
d="M913 1182q0 147 -139 147q-76 0 -110.5 -37t-34.5 -97q0 -106 92 -241q192 123 192 228zM504 190.5q98 -71.5 237 -71.5t219 60t103 89q-152 152 -259.5 309.5t-137.5 206.5q-124 -93 -192 -183.5t-68 -214.5t98 -195.5zM590 889q-121 183 -121 289q0 127 73.5 203.5
t226.5 76.5t224.5 -71t71.5 -165q0 -198 -277 -360q62 -110 180 -257t193 -222q83 91 160 315l127 -59q-36 -106 -103 -215t-92 -139q128 -122 256 -195l-102 -115q-109 53 -248 191q-191 -191 -448 -191q-201 0 -335 109.5t-134 298.5q0 225 140 345t208 161z" />
    <glyph glyph-name="quotesingle" unicode="'" horiz-adv-x="446" 
d="M184 1038v396h160l-63 -396h-97z" />
    <glyph glyph-name="parenleft" unicode="(" horiz-adv-x="573" 
d="M287 498q0 -361 103.5 -572t178.5 -301l-104 -76q-259 270 -300.5 552t-41.5 396q0 249 84 507.5t264 453.5l98 -72q-282 -358 -282 -888z" />
    <glyph glyph-name="parenright" unicode=")" horiz-adv-x="573" 
d="M287 510q0 350 -103.5 566t-179.5 306l105 76q259 -270 300.5 -551.5t41.5 -395.5q0 -251 -84.5 -509t-264.5 -453l-98 72q283 359 283 889z" />
    <glyph glyph-name="asterisk" unicode="*" horiz-adv-x="718" 
d="M82 1133v114h102l127 -24l-92 90l-53 94l100 57l51 -86l37 -114l43 116l49 82l99 -53l-53 -88l-95 -98l140 24h98v-114h-94l-131 24l94 -98l47 -80l-96 -57l-54 86l-47 125l-39 -119l-51 -86l-102 57l55 86l86 86l-119 -24h-102z" />
    <glyph glyph-name="plus" unicode="+" horiz-adv-x="1034" 
d="M82 618v148h360v371h148v-371h360v-148h-360v-368h-148v368h-360z" />
    <glyph glyph-name="comma" unicode="," horiz-adv-x="460" 
d="M184 -20q-28 0 -56 27.5t-28 78.5t33 82t90 31t97 -45t40 -125q0 -141 -67.5 -224t-155.5 -110l-51 80q74 29 109.5 89t35.5 122q-19 -6 -47 -6z" />
    <glyph glyph-name="hyphen" unicode="-" horiz-adv-x="737" 
d="M121 514v152h495v-152h-495z" />
    <glyph glyph-name="period" unicode="." horiz-adv-x="438" 
d="M100 95q0 54 32 86t86 32t87 -31.5t33 -85.5t-33 -87.5t-87 -33.5t-86 33t-32 87z" />
    <glyph glyph-name="slash" unicode="/" horiz-adv-x="724" 
d="M-76 -229l748 1687l129 -57l-748 -1688z" />
    <glyph glyph-name="zero" unicode="0" 
d="M258 717q0 -424 110.5 -511t188.5 -87q156 0 228.5 144.5t72.5 453.5q0 436 -108.5 517t-192.5 81q-154 0 -226.5 -145.5t-72.5 -452.5zM557 -25q-469 -1 -469 741t478 742q238 0 350 -183t112 -555t-120 -558.5t-351 -186.5z" />
    <glyph glyph-name="one" unicode="1" 
d="M668 1458v-1306h280v-152h-727v152h287v991l20 121l-82 -97l-225 -161l-78 104l451 348h74z" />
    <glyph glyph-name="two" unicode="2" 
d="M547 1458q172 0 269 -97t97 -253q0 -280 -184 -532t-264 -351l-100 -88v-8l131 23h446v-152h-815v59q463 483 539.5 709.5t76.5 319.5t-57 160t-186 67t-267 -105l-67 117q155 131 381 131z" />
    <glyph glyph-name="three" unicode="3" 
d="M803 422q0 137 -85 206.5t-235 69.5h-151v60l295 454l94 91l-133 -21h-406v152h731v-60l-325 -489l-72 -60v-4l70 15q168 -4 274.5 -112.5t106.5 -287.5q0 -213 -140.5 -337t-351.5 -124q-168 0 -295 52l43 145q108 -53 255 -53q146 0 235.5 83t89.5 220z" />
    <glyph glyph-name="four" unicode="4" 
d="M672 584v446l20 168h-6l-72 -139l-288 -391l-99 -101l144 17h301zM41 440v68l680 948h110v-872h242v-144h-242v-440h-159v440h-631z" />
    <glyph glyph-name="five" unicode="5" 
d="M762 436q0 152 -91 225.5t-251 73.5l-172 -10v709h639v-152h-486v-408l88 5q203 -2 320 -113t117 -326t-140 -340t-354 -125q-161 0 -274 41l43 140q97 -37 236 -37q140 0 232.5 82.5t92.5 234.5z" />
    <glyph glyph-name="six" unicode="6" 
d="M838 416q0 293 -277 293q-100 0 -173 -49.5t-101 -110.5q-4 -29 -4 -33v-55q0 -225 108.5 -283.5t174.5 -58.5q123 0 197.5 83t74.5 214zM123 521q0 163 52 334t144.5 298t218.5 206t273 99l35 -131q-221 -39 -369 -213.5t-182 -408.5q33 55 110.5 101t190.5 46
q193 0 302.5 -110.5t109.5 -307.5t-115.5 -328t-321.5 -131q-205 0 -295 97.5t-121.5 191.5t-31.5 257z" />
    <glyph glyph-name="seven" unicode="7" 
d="M125 1282v152h856v-56l-590 -1378h-166l514 1200l90 100l-120 -18h-584z" />
    <glyph glyph-name="eight" unicode="8" 
d="M407 931q75 -68 197 -128q92 72 136 141.5t44 163.5t-65 150.5t-137 56.5t-115 -18.5t-89 -61t-46 -139.5t75 -165zM299 376q0 -120 68.5 -188.5t182.5 -68.5t190.5 62.5t76.5 198t-115.5 204.5t-171.5 98q-125 -70 -178 -156t-53 -150zM172 1100q0 162 109.5 260
t284.5 98t276.5 -91t101.5 -221t-53 -219t-176 -175q191 -112 226.5 -210t35.5 -178q0 -172 -116 -280.5t-309 -108.5t-303 103.5t-110 247.5q0 145 67.5 240.5t211.5 172.5q-117 71 -181.5 152.5t-64.5 208.5z" />
    <glyph glyph-name="nine" unicode="9" 
d="M276 1014q0 -143 77 -216t189 -73t184.5 33t102.5 86q5 34 5 99q0 148 -72.5 260t-209.5 112q-136 0 -206 -79t-70 -222zM221 1329.5q115 128.5 327 128.5t328.5 -135t116.5 -373q0 -450 -187 -692.5t-501 -282.5l-37 131q235 36 375.5 196t173.5 396q-55 -66 -122 -91
t-163 -25t-170.5 27.5t-165 111t-90.5 281.5q0 199 115 327.5z" />
    <glyph glyph-name="colon" unicode=":" horiz-adv-x="448" 
d="M186 921q0 54 32 85.5t86 31.5t87 -31.5t33 -85.5t-33 -87t-87 -33t-86 33t-32 87zM186 95q0 54 32 86t86 32t87 -31.5t33 -85.5t-33 -87.5t-87 -33.5t-86 33t-32 87z" />
    <glyph glyph-name="semicolon" unicode=";" horiz-adv-x="524" 
d="M197 921q0 54 31.5 85.5t85.5 31.5t87 -31.5t33 -85.5t-33 -87t-87 -33t-85.5 33t-31.5 87zM266 -20q-28 0 -56 27.5t-28 78.5t33 82t90 31t97 -45t40 -125q0 -141 -67.5 -224t-155.5 -110l-51 80q74 29 109.5 89t35.5 122q-19 -6 -47 -6z" />
    <glyph glyph-name="less" unicode="&#x3c;" horiz-adv-x="1034" 
d="M86 625v59l774 473l78 -127l-485 -297l-187 -78l185 -65l497 -295l-78 -123z" />
    <glyph glyph-name="equal" unicode="=" horiz-adv-x="1034" 
d="M82 788v148h868v-148h-868zM82 449v147h868v-147h-868z" />
    <glyph glyph-name="greater" unicode="&#x3e;" horiz-adv-x="1034" 
d="M86 1032l78 125l784 -452v-60l-774 -473l-78 125l486 297l186 78l-184 65z" />
    <glyph glyph-name="question" unicode="?" horiz-adv-x="892" 
d="M266 95q0 54 32 86t86 32t87 -31.5t33 -85.5t-33 -87.5t-87 -33.5t-86 33t-32 87zM76 1356q168 102 358 102q193 0 288 -92.5t95 -244.5t-69.5 -245.5t-117.5 -142.5t-118 -140t-70 -231h-135q-2 10 -2 13v33q0 189 138 336.5t171 217.5t33 152t-54 141.5t-190 59.5
t-272 -86z" />
    <glyph glyph-name="at" unicode="@" horiz-adv-x="2179" 
d="M795 350q0 -86 32.5 -142t118.5 -56q117 0 205 130t119 189l61 334q-35 41 -70 56.5t-101 15.5t-136 -48.5t-120 -125t-79.5 -172t-29.5 -181.5zM178 485q0 221 77 401.5t208 307.5t305 195.5t364 68.5q381 0 625 -213.5t244 -576.5q0 -131 -45 -251t-122 -210
t-179.5 -144.5t-202.5 -54.5t-151.5 37t-51.5 137q0 38 8 86h-8q-106 -172 -208.5 -216t-156.5 -44q-111 0 -180 87t-69 220t43 260t115.5 225.5t170 159t189.5 60.5t137 -22.5t88 -55.5l70 64h70l-105 -588q-20 -106 -20 -164t17.5 -81t73.5 -23t124.5 36.5t155.5 146.5
t87 335q0 308 -199.5 479.5t-525.5 171.5q-166 0 -312 -61.5t-253.5 -170t-170 -260t-62.5 -331.5q0 -361 214.5 -563.5t575.5 -202.5q159 0 273 57l41 -131q-156 -66 -342 -66t-353.5 57.5t-291 170t-195.5 279.5t-72 388z" />
    <glyph glyph-name="A" unicode="A" horiz-adv-x="1198" 
d="M383 545h422l-160 436l-51 217h-2l-51 -221zM16 0l543 1456h78l545 -1456h-178l-148 397h-528l-144 -397h-168z" />
    <glyph glyph-name="B" unicode="B" horiz-adv-x="1196" 
d="M508 1303q-102 0 -164 -13v-487h107q101 0 165 8q242 79 242 269q0 115 -87.5 169t-262.5 54zM901 395q0 264 -379 264h-178v-514q49 -14 167 -14t179.5 15.5t136 68.5t74.5 180zM503 1450q146 0 229 -13.5t194.5 -75.5t111.5 -255q0 -113 -68.5 -208.5t-201.5 -129.5v-8
q212 -35 262.5 -151.5t50.5 -214.5t-46 -178.5t-156.5 -156t-331.5 -75.5h-136q-136 0 -237 26v1411q183 29 329 29z" />
    <glyph glyph-name="C" unicode="C" horiz-adv-x="1169" 
d="M1092 59q-109 -84 -369 -84t-434 187.5t-174 557.5t184 554t438 184q217 0 334 -49l-41 -149q-98 47 -284 47t-318.5 -142.5t-132.5 -437.5t134 -447.5t345 -152.5q170 0 277 66z" />
    <glyph glyph-name="D" unicode="D" horiz-adv-x="1339" 
d="M534 133q277 0 393.5 167t116.5 427q0 381 -171 476t-312 95h-73q-74 0 -144 -10v-1147q40 -8 190 -8zM557 1450q332 0 500 -195t168 -520q0 -326 -169 -539.5t-519 -213.5q-101 0 -174.5 4t-120.5 6t-68 6v1436q104 16 383 16z" />
    <glyph glyph-name="E" unicode="E" horiz-adv-x="1097" 
d="M174 0v1434h780v-152h-610v-469h559v-151h-559v-510h621v-152h-791z" />
    <glyph glyph-name="F" unicode="F" horiz-adv-x="1058" 
d="M174 0v1434h780v-152h-610v-489h569v-152h-569v-641h-170z" />
    <glyph glyph-name="G" unicode="G" horiz-adv-x="1253" 
d="M307 1273q192 185 451 185q219 0 338 -49l-43 -149q-98 47 -281 47q-315 0 -396 -212t-81 -371q0 -298 128 -447.5t347 -149.5q131 0 223 51v400l-336 40v97h482v-631q-101 -77 -221.5 -93t-174.5 -16q-285 0 -456.5 186.5t-171.5 556.5t192 555z" />
    <glyph glyph-name="H" unicode="H" horiz-adv-x="1376" 
d="M174 0v1434h170v-625h688v625h170v-1434h-170v657h-688v-657h-170z" />
    <glyph glyph-name="I" unicode="I" horiz-adv-x="595" 
d="M213 0v1434h170v-1434h-170z" />
    <glyph glyph-name="J" unicode="J" horiz-adv-x="595" 
d="M399 315q0 -335 -293 -335q-116 0 -176 32l33 146q57 -27 134 -27t104.5 60.5t27.5 164.5v1078h170v-1119z" />
    <glyph glyph-name="K" unicode="K" horiz-adv-x="1249" 
d="M174 0v1434h170v-668l92 29l482 639h196l-479 -617l-86 -67l104 -82l525 -668h-215l-523 664h-96v-664h-170z" />
    <glyph glyph-name="L" unicode="L" horiz-adv-x="1058" 
d="M174 0v1434h170v-1282h678v-152h-848z" />
    <glyph glyph-name="M" unicode="M" horiz-adv-x="1619" 
d="M174 0v1434h127l449 -734l67 -159h4l64 164l428 729h133v-1434h-170v963l20 215h-10l-78 -197l-372 -647h-52l-395 649l-74 195h-10l29 -213v-965h-160z" />
    <glyph glyph-name="N" unicode="N" horiz-adv-x="1378" 
d="M174 0v1456h90l686 -956l107 -197h10l-23 197v934h160v-1457h-90l-682 961l-110 207h-9l21 -207v-938h-160z" />
    <glyph glyph-name="O" unicode="O" horiz-adv-x="1400" 
d="M693 127q195 0 304 144.5t109 445.5q0 399 -150.5 494.5t-257.5 95.5q-188 0 -295.5 -144.5t-107.5 -422.5t101.5 -445.5t296.5 -167.5zM266.5 1266.5q151.5 191.5 438.5 191.5t434 -196.5t147 -549.5t-152.5 -545t-437.5 -192t-433 196.5t-148 549.5q0 354 151.5 545.5z
" />
    <glyph glyph-name="P" unicode="P" horiz-adv-x="1144" 
d="M380 688h124q385 0 385 322q0 154 -106 223.5t-249 69.5t-190 -13v-594q20 -8 36 -8zM560 537h-88q-88 0 -128 8v-545h-170v1419q134 31 287 31t250.5 -18.5t227.5 -98t130 -323.5t-125 -334t-225.5 -114.5t-158.5 -24.5z" />
    <glyph glyph-name="Q" unicode="Q" horiz-adv-x="1400" 
d="M1258 -223q96 0 184 20v-147q-88 -25 -190 -25q-103 0 -200.5 21.5t-188.5 47t-175 47t-146 21.5t-108 -12v150q68 14 132 14q65 0 150 -21.5t173 -47t180.5 -47t188.5 -21.5zM693 127q195 0 304 144.5t109 445.5q0 399 -150.5 494.5t-257.5 95.5q-188 0 -295.5 -144.5
t-107.5 -422.5t101.5 -445.5t296.5 -167.5zM266.5 1266.5q151.5 191.5 438.5 191.5t434 -196.5t147 -549.5t-152.5 -545t-437.5 -192t-433 196.5t-148 549.5q0 354 151.5 545.5z" />
    <glyph glyph-name="R" unicode="R" horiz-adv-x="1218" 
d="M543 1303h-77q-77 0 -122 -13v-528h160q141 0 233 69.5t92 217.5q0 111 -75.5 182.5t-210.5 71.5zM490 1450q143 0 228 -20.5t188.5 -96t103.5 -278.5q0 -168 -92.5 -272.5t-233.5 -139.5l98 -76l357 -567h-199l-395 618l-201 31v-649h-170v1419q173 31 316 31z" />
    <glyph glyph-name="S" unicode="S" horiz-adv-x="1087" 
d="M913 1243q-131 64 -354 64q-125 0 -192.5 -60.5t-67.5 -141.5t51 -134t128 -95t167 -83t167 -95.5t128 -130t51 -177.5q0 -196 -130.5 -305.5t-372.5 -109.5t-394 76l58 154q47 -27 138.5 -52.5t183.5 -25.5q170 0 258.5 60.5t88.5 177.5q0 86 -51 140t-128 96t-167 79
t-218 123.5t-128 290.5q0 168 116.5 266t350.5 98t369 -65z" />
    <glyph glyph-name="T" unicode="T" horiz-adv-x="1136" 
d="M37 1282v152h1063v-152h-447v-1282h-170v1282h-446z" />
    <glyph glyph-name="U" unicode="U" horiz-adv-x="1335" 
d="M686 -18q-512 0 -512 462v990h170v-910q0 -309 129 -350t215 -41q166 0 237.5 91t71.5 300v910h164v-957q0 -376 -184 -435.5t-291 -59.5z" />
    <glyph glyph-name="V" unicode="V" horiz-adv-x="1163" 
d="M-4 1434h186l365 -985l49 -218h2l53 222l346 981h170l-542 -1457h-76z" />
    <glyph glyph-name="W" unicode="W" horiz-adv-x="1695" 
d="M16 1434h181l258 -961l32 -237h2l35 241l295 957h82l297 -961l35 -237h2l37 241l241 957h166l-399 -1457h-94l-291 961l-37 217h-10l-37 -219l-291 -959h-94z" />
    <glyph glyph-name="X" unicode="X" horiz-adv-x="1265" 
d="M53 0l477 729l-436 705h205l291 -486l51 -117l49 117l307 486h189l-451 -691l471 -743h-198l-324 514l-55 123l-54 -123l-331 -514h-191z" />
    <glyph glyph-name="Y" unicode="Y" horiz-adv-x="1142" 
d="M659 0h-170v569l-473 865h199l336 -627l35 -125h2l37 129l321 623h182l-469 -863v-571z" />
    <glyph glyph-name="Z" unicode="Z" 
d="M78 0v154l723 1046l86 82h-809v152h962v-154l-727 -1053l-86 -75h813v-152h-962z" />
    <glyph glyph-name="bracketleft" unicode="[" horiz-adv-x="622" 
d="M174 -471v1905h371v-144h-211v-1618h211v-143h-371z" />
    <glyph glyph-name="backslash" unicode="\" horiz-adv-x="778" 
d="M-76 1401l137 57l756 -1685l-135 -60z" />
    <glyph glyph-name="bracketright" unicode="]" horiz-adv-x="622" 
d="M78 -328h213v1618h-213v144h373v-1905h-373v143z" />
    <glyph glyph-name="asciicircum" unicode="^" horiz-adv-x="1024" 
d="M98 891l381 565h60l346 -565h-168l-164 276l-47 142l-64 -144l-188 -274h-156z" />
    <glyph glyph-name="underscore" unicode="_" horiz-adv-x="835" 
d="M0 -276h836v-144h-836v144z" />
    <glyph glyph-name="grave" unicode="`" horiz-adv-x="573" 
d="M123 1475h194l134 -306h-93l-235 263v43z" />
    <glyph glyph-name="a" unicode="a" horiz-adv-x="1015" 
d="M582 463q-332 0 -332 -172q0 -72 51 -118t119 -46q117 0 186 50t92 112v170q-58 4 -116 4zM353.5 -16q-99.5 0 -186.5 79.5t-87 210.5q0 248 196.5 281t267.5 33h63q63 0 91 -4q6 61 7 110q0 113 -45.5 158t-161.5 45t-196.5 -27.5t-108.5 -44.5l-52 123q153 92 398 92
q193 0 259 -89.5t66 -225.5l-12 -461q0 -171 29 -268h-121l-43 143h-10q-64 -103 -159 -129t-194.5 -26z" />
    <glyph glyph-name="b" unicode="b" horiz-adv-x="1105" 
d="M836 530q0 263 -93 319t-163 56q-200 0 -258 -219v-516q76 -45 212 -45q135 0 218.5 98.5t83.5 306.5zM618 1049q388 0 388 -521q0 -268 -131.5 -407t-368.5 -139q-115 0 -208 24.5t-140 52.5v1375h164v-510h8q99 125 288 125z" />
    <glyph glyph-name="c" unicode="c" horiz-adv-x="923" 
d="M100 512q0 260 115 398.5t330 138.5q175 0 291 -60l-48 -141q-99 57 -227 57q-291 0 -291 -393q0 -270 109.5 -331.5t195.5 -61.5q134 0 228 74l53 -125q-126 -93 -321 -93q-435 0 -435 537z" />
    <glyph glyph-name="d" unicode="d" horiz-adv-x="1101" 
d="M270 508q0 -389 260 -389q207 0 250 219v508q-68 53 -209 53t-221 -93t-80 -298zM565 1042q119 0 215 -34v426h164v-1082q0 -104 2 -189t19 -167h-111l-41 145h-8q-41 -72 -119 -119t-182 -47q-205 0 -304.5 129.5t-99.5 397.5t124 404t341 136z" />
    <glyph glyph-name="e" unicode="e" horiz-adv-x="1040" 
d="M780 625q0 156 -59 218t-174 62t-187.5 -63.5t-87.5 -216.5h508zM905 82q-133 -107 -359 -107q-224 0 -335 144t-111 399q0 256 117 393.5t334 137.5q169 0 279 -86t110 -318q0 -68 -12 -149h-658q0 -279 120 -328t200 -49t149.5 24.5t104.5 57.5z" />
    <glyph glyph-name="f" unicode="f" horiz-adv-x="653" 
d="M533 1303q-72 0 -102 -16.5t-46 -56t-16 -177.5v-29h272v-143h-272v-881h-164v881h-160v143h160v57q0 194 67 279.5t210 85.5q144 0 237 -39l-37 -137q-77 33 -149 33z" />
    <glyph glyph-name="g" unicode="g" horiz-adv-x="1099" 
d="M270 510q0 -389 260 -389q104 0 164 52t84 163v524q-82 39 -215 39t-213 -94t-80 -295zM100 503q0 267 125 403t369 136q189 0 348 -61v-1028q0 -199 -105.5 -293t-310.5 -94t-327 55l43 139q47 -18 103.5 -34.5t146.5 -16.5q169 0 228.5 64.5t59.5 228.5v98h-8
q-85 -123 -281 -123t-293.5 129.5t-97.5 396.5z" />
    <glyph glyph-name="h" unicode="h" horiz-adv-x="1120" 
d="M330 909q118 140 305 140q188 0 266 -92t78 -339v-618h-164v584q0 171 -46 246t-158 75q-111 0 -189 -62.5t-100 -160.5v-682h-164v1434h164v-525h8z" />
    <glyph glyph-name="i" unicode="i" horiz-adv-x="548" 
d="M193 0v1024h163v-1024h-163zM158 1335q0 47 31.5 81t80.5 34t84 -34t35 -81t-35 -77.5t-84 -30.5t-80.5 30.5t-31.5 77.5z" />
    <glyph glyph-name="j" unicode="j" horiz-adv-x="546" 
d="M156 1335q0 47 31.5 81t80.5 34t84 -34t35 -81t-35 -77.5t-84 -30.5t-80.5 30.5t-31.5 77.5zM80 -434q-28 0 -62 4v139q108 0 140 64.5t32 232.5v1018h164v-1079q0 -190 -65.5 -284.5t-208.5 -94.5z" />
    <glyph glyph-name="k" unicode="k" horiz-adv-x="980" 
d="M158 0v1434h164v-873l84 29l317 434h190l-313 -412l-84 -67l102 -82l343 -463h-203l-342 461h-94v-461h-164z" />
    <glyph glyph-name="l" unicode="l" horiz-adv-x="598" 
d="M434 119q66 0 127 22l19 -129q-33 -16 -91.5 -26.5t-101.5 -10.5q-92 0 -151.5 52.5t-59.5 177.5v1229h164v-1182q0 -133 94 -133z" />
    <glyph glyph-name="m" unicode="m" horiz-adv-x="1662" 
d="M922 0h-164v580q0 172 -28 228t-65.5 76.5t-115.5 20.5t-140.5 -57t-86.5 -143v-705h-164v1024h114l31 -125h8q55 66 128 108t181 42t170 -38t97 -132q47 80 130 125t178 45t154.5 -19.5t116 -91t56.5 -324.5v-614h-164v616q0 158 -39.5 223.5t-155.5 65.5
q-191 0 -241 -221v-684z" />
    <glyph glyph-name="n" unicode="n" horiz-adv-x="1120" 
d="M158 0v1024h114l31 -125h8q49 66 132 108t183 42t226.5 -39t126.5 -392v-618h-164v584q0 160 -46 240.5t-162 80.5t-186.5 -58.5t-98.5 -146.5v-700h-164z" />
    <glyph glyph-name="o" unicode="o" horiz-adv-x="1097" 
d="M270 512q0 -269 101.5 -331t177.5 -62h3q275 0 275 390q0 276 -101 336t-177 60h-3q-276 0 -276 -393zM100 512q0 260 116 398.5t338 138.5t332.5 -143t110.5 -399q0 -255 -115.5 -393.5t-332.5 -138.5q-336 0 -392.5 208t-56.5 329z" />
    <glyph glyph-name="p" unicode="p" horiz-adv-x="1107" 
d="M534 119q137 0 220.5 105.5t83.5 310.5q0 370 -267 370q-202 0 -249 -219v-508q75 -59 212 -59zM530 -25q-113 0 -208 41v-426h-164v1434h112l31 -123h8q97 148 297 148q201 0 301.5 -121t100.5 -386t-129 -416t-349 -151z" />
    <glyph glyph-name="q" unicode="q" horiz-adv-x="1099" 
d="M270 510q0 -391 260 -391q104 0 164 53t84 164v524q-76 39 -213 39t-216 -95t-79 -294zM100 508q0 264 127 399t371 135q109 0 204 -20.5t140 -42.5v-1389h-164v512h-8q-85 -127 -279 -127q-391 0 -391 533z" />
    <glyph glyph-name="r" unicode="r" horiz-adv-x="696" 
d="M311 899q81 145 219 145q72 0 146 -20l-35 -158q-61 20 -133 20t-123 -47.5t-63 -121.5v-717h-164v1024h114l31 -125h8z" />
    <glyph glyph-name="s" unicode="s" horiz-adv-x="862" 
d="M129 190q124 -71 282 -71q197 0 197 160q0 61 -36.5 96t-91 58.5t-119 45t-155.5 77.5t-91 205q0 288 317 288q179 0 316 -66l-39 -135q-116 57 -231 57t-157 -30.5t-42 -94.5t36.5 -94.5t91 -54t119 -46t155.5 -85t91 -215.5q0 -214 -133 -262t-237 -48q-188 0 -322 76z
" />
    <glyph glyph-name="t" unicode="t" horiz-adv-x="694" 
d="M182 283v598h-159v143h159v203l164 47v-250h279v-143h-279v-568q0 -106 26.5 -150t95.5 -44t167 41l37 -125q-122 -60 -255 -60q-132 0 -183.5 71t-51.5 237z" />
    <glyph glyph-name="u" unicode="u" horiz-adv-x="1103" 
d="M141 406v618h164v-584q0 -166 43.5 -243.5t157.5 -77.5q148 0 204 88t72 133v684h164v-733q0 -187 23 -291h-113l-41 162h-10q-110 -187 -330 -187q-174 0 -254 94.5t-80 336.5z" />
    <glyph glyph-name="v" unicode="v" horiz-adv-x="987" 
d="M18 1024h189l246 -600l57 -195h2l51 199l230 596h176l-437 -1047h-69z" />
    <glyph glyph-name="w" unicode="w" horiz-adv-x="1505" 
d="M16 1024h179l202 -596l35 -199h2l49 203l219 592h119l236 -598l51 -197h4l39 201l182 594h156l-344 -1047h-80l-268 676l-39 168h-6l-41 -170l-258 -674h-80z" />
    <glyph glyph-name="x" unicode="x" horiz-adv-x="1054" 
d="M57 0l369 524l-344 500h201l194 -283l58 -116l59 116l199 283h184l-346 -492l366 -532h-194l-217 311l-62 123l-63 -123l-221 -311h-183z" />
    <glyph glyph-name="y" unicode="y" horiz-adv-x="954" 
d="M276 -420q-70 0 -118 21l28 141q27 -10 52 -10q57 0 110 60.5t88 207.5l-411 1024h188l246 -664l57 -196h10l45 198l199 662h166l-303 -920q-35 -100 -69 -194t-74.5 -168t-92 -118t-121.5 -44z" />
    <glyph glyph-name="z" unicode="z" horiz-adv-x="915" 
d="M86 0v143l473 652l86 86h-559v143h729v-143l-477 -658l-84 -80h561v-143h-729z" />
    <glyph glyph-name="braceleft" unicode="{" horiz-adv-x="708" 
d="M117 553q164 0 164 172v496q0 96 48 155.5t146 59.5h174v-144h-102q-55 0 -81 -27.5t-26 -93.5v-485q0 -90 -43 -137t-100 -57v-13q55 -8 99 -62.5t44 -140.5v-483q0 -63 24.5 -92t84.5 -29h100v-143h-174q-92 0 -143 54.5t-51 158.5v487q0 104 -43 142.5t-121 38.5v143z
" />
    <glyph glyph-name="bar" unicode="|" horiz-adv-x="487" 
d="M174 -266v1700h139v-1700h-139z" />
    <glyph glyph-name="braceright" unicode="}" horiz-adv-x="708" 
d="M645 412q-164 0 -164 -172v-496q0 -96 -48 -155.5t-146 -59.5h-174v143h102q55 0 81 28t26 93v486q0 90 42 137t99 57v12q-55 8 -98 62.5t-43 140.5v483q0 63 -25 92t-82 29h-102v144h176q90 0 141 -54.5t51 -158.5v-488q0 -104 43 -142t121 -38v-143z" />
    <glyph glyph-name="asciitilde" unicode="~" horiz-adv-x="1034" 
d="M354 860q83 0 164.5 -39t124.5 -56t90 -17q84 0 168 73l70 -125q-141 -96 -237 -96t-172.5 39t-118.5 56.5t-91 17.5q-100 0 -219 -97l-70 123q157 121 291 121z" />
    <glyph glyph-name="uni00A0" unicode="&#xa0;" horiz-adv-x="546" 
 />
    <glyph glyph-name="cent" unicode="&#xa2;" 
d="M348 512q0 -232 81 -301.5t144 -83.5v772q-225 -43 -225 -387zM178 512q0 236 97.5 372t277.5 158v187h145v-182q128 -7 228 -58l-47 -139q-93 45 -195 53v-784q121 7 207 74l53 -125q-97 -69 -246 -86v-187h-145v185q-375 37 -375 532z" />
    <glyph glyph-name="sterling" unicode="&#xa3;" 
d="M518 451q0 -170 -74 -252l-79 -68v-8l127 29h524v-152h-914v147q120 0 183 80t63 192t-47 222h-199v143h136q-58 123 -58 267q0 201 115 304t330 103t352 -65l-53 -146q-123 60 -318 60q-123 0 -189.5 -66.5t-66.5 -189.5t70 -267h330v-143h-269q37 -108 37 -190z" />
    <glyph glyph-name="yen" unicode="&#xa5;" 
d="M897 672v-123h-250v-146h250v-122h-250v-281h-170v281h-250v122h250v146h-250v123h193l-416 762h199l336 -627l34 -125h2l37 129l322 623h182l-416 -762h197z" />
    <glyph glyph-name="dieresis" unicode="&#xa8;" horiz-adv-x="841" 
d="M516 1339q0 45 27.5 74t73.5 29t74 -29t28 -74t-27.5 -73.5t-73.5 -28.5t-74 28.5t-28 73.5zM123 1339q0 45 27.5 74t72.5 29t73 -29t28 -74t-28 -73.5t-73 -28.5t-72.5 28.5t-27.5 73.5z" />
    <glyph glyph-name="copyright" unicode="&#xa9;" horiz-adv-x="1650" 
d="M481 597q0 183 93.5 284.5t246.5 101.5q97 0 147 -21.5t81 -33.5l-54 -125q-76 39 -159 39q-82 0 -136.5 -53.5t-54.5 -183.5q0 -257 211 -261q96 0 164 37l43 -121q-96 -55 -252 -55t-243 104.5t-87 287.5zM413 163q165 -155 413 -155q249 0 413 155t164 430.5t-164 431
t-413.5 155.5t-413.5 -155.5t-164 -431t165 -430.5zM1546 594q0 -331 -207.5 -526t-525.5 -195t-513.5 192t-195.5 525.5t208 529t513.5 195.5t513 -195t207.5 -526z" />
    <glyph glyph-name="guillemotleft" unicode="&#xab;" horiz-adv-x="978" 
d="M455 530l323 467l109 -86l-199 -295l-98 -84l98 -73l211 -289l-106 -88zM80 530l328 471l110 -88l-201 -297l-98 -84l98 -73l213 -291l-110 -90z" />
    <glyph glyph-name="uni00AD" unicode="&#xad;" horiz-adv-x="737" 
d="M121 514v152h495v-152h-495z" />
    <glyph glyph-name="registered" unicode="&#xae;" horiz-adv-x="1433" 
d="M688 1118q-59 0 -76 -8v-145h70q59 0 92 18t33 64q0 71 -119 71zM684 1210q236 0 236 -148q0 -77 -42 -112t-104 -39l57 -28l152 -224h-125l-147 213l-99 31v-244h-106v531q65 20 178 20zM420.5 611q117.5 -109 299.5 -109t296 107t114 313t-118.5 315t-298.5 109
q-181 0 -295.5 -108.5t-114.5 -313t117.5 -313.5zM330.5 1322q156.5 144 389.5 144q232 0 386 -143.5t154 -398.5t-157.5 -399t-388.5 -144t-385.5 143.5t-154.5 398.5t156.5 399z" />
    <glyph glyph-name="acute" unicode="&#xb4;" horiz-adv-x="548" 
d="M426 1475v-43l-207 -263h-96l121 306h182z" />
    <glyph glyph-name="cedilla" unicode="&#xb8;" horiz-adv-x="587" 
d="M156 -340h28q115 0 122 34t7 46q0 57 -176 76l99 184h116l-49 -88q86 -16 124 -53t38 -109t-65.5 -124t-184.5 -52q-44 0 -92 8l18 80q12 -2 15 -2z" />
    <glyph glyph-name="guillemotright" unicode="&#xbb;" horiz-adv-x="978" 
d="M449 911l108 90l342 -452l-328 -471l-110 88l201 297l98 84l-98 74zM80 909l106 88l340 -448l-327 -467l-107 86l197 295l100 84l-100 74z" />
    <glyph glyph-name="circumflex" unicode="&#x2c6;" horiz-adv-x="790" 
d="M123 1126l252 373h65l228 -373h-148l-80 136l-43 118l-45 -118l-92 -136h-137z" />
    <glyph glyph-name="ring" unicode="&#x2da;" horiz-adv-x="645" 
d="M322 1231q90 0 90 65.5t-28 87t-62 21.5t-61.5 -20.5t-27.5 -64.5t27 -66.5t62 -22.5zM123 1316q0 87 54.5 137t142.5 50t145 -45t57 -133t-57 -140t-143 -52t-142.5 48t-56.5 135z" />
    <glyph glyph-name="tilde" unicode="&#x2dc;" horiz-adv-x="817" 
d="M322 1462q48 0 98.5 -28.5t76 -41t62.5 -12.5t86 50l49 -89q-92 -102 -178 -102q-44 0 -94.5 27.5t-78.5 41t-56 13.5q-53 0 -117 -64l-47 86q103 119 199 119z" />
    <glyph glyph-name="afii10023" unicode="&#x401;" horiz-adv-x="1097" 
d="M856 1627q0 -43 -31 -69t-79 -26t-78 26t-29 69q0 42 29.5 68.5t77.5 26.5t79 -26t31 -69zM463 1627q0 -43 -30 -69t-78 -26q-49 0 -79 26t-30 69q0 42 30 69q31 26 79 26t78 -26t30 -69zM174 0v1434h780v-152h-610v-469h559v-151h-559v-510h621v-152h-791z" />
    <glyph glyph-name="afii10051" unicode="&#x402;" horiz-adv-x="1490" 
d="M653 0h-170v1282h-446v152h1063v-152h-447v-432q134 43 251 43q116 0 195 -19.5t178 -99t99 -318.5t-125 -355.5t-352 -116.5q-119 0 -143 6v147q40 -6 149 -6q291 0 291 320q0 160 -82.5 227t-253.5 67q-90 0 -207 -45v-700z" />
    <glyph glyph-name="afii10052" unicode="&#x403;" horiz-adv-x="905" 
d="M879 1782v-43l-334 -199h-142l242 242h234zM174 0v1434h768v-152h-598v-1282h-170z" />
    <glyph glyph-name="afii10053" unicode="&#x404;" horiz-adv-x="1193" 
d="M1114 59q-109 -84 -375 -84t-445 186.5t-179 556.5t188 555t430 185t361 -49l-41 -152q-102 50 -285 50q-182 0 -313 -118t-158 -374h627v-151h-629q11 -257 151 -397t331 -140t294 66z" />
    <glyph glyph-name="afii10054" unicode="&#x405;" horiz-adv-x="1087" 
d="M474 127q92 0 180.5 19.5t141.5 111.5q25 46 25 120t-51 127.5t-128 95.5t-167 79t-218 123.5t-128 290.5q0 168 117 266t353 98t366 -65l-52 -150q-128 63 -354 63q-125 0 -193 -60t-67 -141q0 -81 51 -134t128 -95t167 -83t167 -95q179 -127 179 -315t-130.5 -298
t-372.5 -110t-394 76l58 154q47 -27 139 -53q91 -26 183 -25z" />
    <glyph glyph-name="afii10055" unicode="&#x406;" horiz-adv-x="595" 
d="M213 0v1434h170v-1434h-170z" />
    <glyph glyph-name="afii10056" unicode="&#x407;" horiz-adv-x="600" 
d="M330 1624q0 45 29.5 71.5t73.5 26.5t74 -26.5t30 -71.5t-30 -70.5t-74 -25.5t-73.5 25.5t-29.5 70.5zM215 0v1434h170v-1434h-170zM66 1624q0 45 29.5 71.5t73.5 26.5t73.5 -26.5t29.5 -71.5t-29.5 -70.5t-73.5 -25.5t-73.5 25.5t-29.5 70.5z" />
    <glyph glyph-name="afii10057" unicode="&#x408;" horiz-adv-x="595" 
d="M399 315q0 -335 -293 -335q-120 0 -176 32l33 146q57 -27 134 -27t105 60t27 165v1078h170v-1119z" />
    <glyph glyph-name="afii10058" unicode="&#x409;" horiz-adv-x="1896" 
d="M1263 131q182 0 283 82.5t101 238.5q0 157 -100 225t-263 68q-90 0 -180 -18v-584q58 -12 159 -12zM1218 -16q-168 0 -284 30v1268h-428q-20 -410 -54 -681t-102 -423q-86 -188 -239 -188q-67 0 -115 20l22 148q20 -6 49 -6q208 0 240.5 509.5t38.5 772.5h758v-557
q80 16 190 16q238 0 385.5 -98.5t147.5 -333.5q0 -234 -119 -327t-220.5 -121.5t-269.5 -28.5z" />
    <glyph glyph-name="afii10059" unicode="&#x40a;" horiz-adv-x="1994" 
d="M1362 131q384 0 383 299q0 159 -97.5 218t-265.5 59q-85 0 -180 -19v-545q58 -12 160 -12zM1327 -16q-158 0 -295 28v676h-688v-688h-170v1434h170v-594h688v594h170v-596q80 16 190 16q244 0 388.5 -89.5t144.5 -323.5t-118.5 -320t-220 -111.5t-259.5 -25.5z" />
    <glyph glyph-name="afii10060" unicode="&#x40b;" horiz-adv-x="1536" 
d="M973 750q-201 0 -320 -95v-655h-170v1282h-446v152h1063v-152h-447v-473q163 92 352 92t290.5 -91.5t101.5 -309.5v-500h-170v469q0 281 -254 281z" />
    <glyph glyph-name="afii10061" unicode="&#x40c;" horiz-adv-x="1249" 
d="M932 1782v-43l-334 -199h-141l241 242h234zM174 0v1434h170v-668l92 29l482 639h196l-479 -617l-86 -67l104 -82l525 -668h-215l-523 664h-96v-664h-170z" />
    <glyph glyph-name="afii10062" unicode="&#x40e;" horiz-adv-x="1132" 
d="M600 1624q82 0 130 41t58 115l146 -35q-23 -111 -104 -175t-229 -65q-320 0 -351 236l162 41q8 -76 57 -117t131 -41zM371 141q67 1 106 59t68 173l-531 1061h197l367 -756l53 -182h10l41 188l274 750h174l-362 -932q-117 -309 -171 -385t-103 -102t-143 -25t-161 45
l52 141q62 -35 129 -35z" />
    <glyph glyph-name="afii10145" unicode="&#x40f;" horiz-adv-x="1349" 
d="M174 0v1434h170v-1282h662v1282h170v-1434h-414l-31 -367h-106l-41 367h-410z" />
    <glyph glyph-name="afii10017" unicode="&#x410;" horiz-adv-x="1198" 
d="M383 545h422l-160 436l-51 217h-2l-51 -221zM16 0l543 1456h78l545 -1456h-178l-148 397h-528l-144 -397h-168z" />
    <glyph glyph-name="afii10018" unicode="&#x411;" horiz-adv-x="1126" 
d="M402 131h143q139 0 231 75.5t92 217.5q0 248 -143 273.5t-222 25.5t-159 -16v-564q42 -12 58 -12zM174 1434h778v-152h-608v-430q105 18 184 18q521 0 521 -417q0 -234 -150 -351.5t-379 -117.5t-346 30v1420z" />
    <glyph glyph-name="afii10019" unicode="&#x412;" horiz-adv-x="1196" 
d="M344 803h107q101 0 165 8q169 55 223 169q19 42 19 91q0 227 -305 232q-146 0 -209 -13v-487zM511 131q118 0 212 23t150 125q28 49 28 125q0 141 -106.5 198t-272.5 57h-178v-514q49 -14 167 -14zM503 1450q146 0 277 -20.5t214 -149.5q44 -68 44 -178t-68.5 -205
t-201.5 -129v-8q211 -35 262.5 -151.5t51.5 -214.5t-46.5 -178.5t-159 -157t-329.5 -74.5h-136q-136 0 -237 26v1411q183 29 329 29z" />
    <glyph glyph-name="afii10020" unicode="&#x413;" horiz-adv-x="905" 
d="M174 0v1434h768v-152h-598v-1282h-170z" />
    <glyph glyph-name="afii10021" unicode="&#x414;" horiz-adv-x="1370" 
d="M956 152v1130h-436q-21 -800 -184 -1130h620zM10 152h146q16 23 50 105.5t94 359t60 817.5h766v-1282h187v-416h-117l-31 264h-1005l-31 -264h-119v416z" />
    <glyph glyph-name="afii10022" unicode="&#x415;" horiz-adv-x="1097" 
d="M174 0v1434h780v-152h-610v-469h559v-151h-559v-510h621v-152h-791z" />
    <glyph glyph-name="afii10024" unicode="&#x416;" horiz-adv-x="1650" 
d="M733 791v643h164v-668l88 29l416 639h188l-413 -623l-82 -66l102 -83l457 -662h-209l-453 664h-94v-664h-164v688l-86 -29l-452 -659h-197l453 641l98 78l-94 72l-428 643h198l416 -643h92z" />
    <glyph glyph-name="afii10025" unicode="&#x417;" horiz-adv-x="1107" 
d="M471 127q138 0 240 74.5t102 208.5q0 133 -100.5 200.5t-315.5 67.5h-112v143h52q52 0 79.5 2t53.5 3t60 7q95 16 167.5 79.5t72.5 158.5q0 236 -289 236q-203 0 -313 -54l-45 136q41 23 147 46t214 23q211 0 338.5 -82t127.5 -270q0 -102 -67.5 -195.5t-202.5 -134.5v-8
q145 -20 229 -108.5t84 -220.5q0 -234 -155.5 -349t-384.5 -115t-363 54l43 153q112 -55 338 -55z" />
    <glyph glyph-name="afii10026" unicode="&#x418;" horiz-adv-x="1394" 
d="M174 0v1434h170v-983l-14 -162h8l90 168l692 977h101v-1434h-170v971l12 164h-8l-88 -168l-693 -967h-100z" />
    <glyph glyph-name="afii10027" unicode="&#x419;" horiz-adv-x="1394" 
d="M717.5 1624q81.5 0 129.5 41t58 115l146 -35q-23 -111 -104 -175t-229 -65q-320 0 -351 236l161 41q8 -76 58 -117t131.5 -41zM174 0v1434h170v-983l-14 -162h8l90 168l692 977h101v-1434h-170v971l12 164h-8l-88 -168l-693 -967h-100z" />
    <glyph glyph-name="afii10028" unicode="&#x41a;" horiz-adv-x="1249" 
d="M174 0v1434h170v-668l92 29l482 639h196l-479 -617l-86 -67l104 -82l525 -668h-215l-523 664h-96v-664h-170z" />
    <glyph glyph-name="afii10029" unicode="&#x41b;" horiz-adv-x="1277" 
d="M67 152q208 0 240.5 509.5t38.5 772.5h758v-1434h-170v1282h-428q-20 -410 -54 -681t-102 -423q-86 -188 -239 -188q-67 0 -115 20l22 148q20 -6 49 -6z" />
    <glyph glyph-name="afii10030" unicode="&#x41c;" horiz-adv-x="1619" 
d="M174 0v1434h127l449 -734l67 -159h4l64 164l428 729h133v-1434h-170v963l20 215h-10l-78 -197l-372 -647h-52l-395 649l-74 195h-10l29 -213v-965h-160z" />
    <glyph glyph-name="afii10031" unicode="&#x41d;" horiz-adv-x="1376" 
d="M174 0v1434h170v-625h688v625h170v-1434h-170v657h-688v-657h-170z" />
    <glyph glyph-name="afii10032" unicode="&#x41e;" horiz-adv-x="1400" 
d="M693 127q195 0 304 144t109 422t-103 445t-298 168q-195 0 -303 -144t-107 -421q0 -277 102 -445q101 -169 296 -169zM115 717q0 358 151 550q152 191 440 191t438 -204q142 -189 142 -542t-152 -545q-153 -191 -436 -192q-150 -1 -260 53q-220 107 -288 385
q-35 136 -35 304z" />
    <glyph glyph-name="afii10033" unicode="&#x41f;" horiz-adv-x="1349" 
d="M174 0v1434h1002v-1434h-170v1282h-662v-1282h-170z" />
    <glyph glyph-name="afii10034" unicode="&#x420;" horiz-adv-x="1144" 
d="M429 688h75q385 0 385 322q0 154 -106 223.5t-292 69.5q-99 0 -147 -13v-594q20 -8 85 -8zM399 537q-15 0 -55 8v-545h-170v1419q134 31 287 31t251 -18t177 -68q180 -111 180 -355t-160.5 -359t-396.5 -113h-113z" />
    <glyph glyph-name="afii10035" unicode="&#x421;" horiz-adv-x="1169" 
d="M297 154q-182 196 -182 566t184 554t438 184q217 0 334 -49l-41 -149q-98 47 -284 47t-309 -131q-142 -153 -142 -448t134 -448t345 -153q174 0 277 66l41 -134q-106 -82 -368 -83t-427 178z" />
    <glyph glyph-name="afii10036" unicode="&#x422;" horiz-adv-x="1136" 
d="M37 1282v152h1063v-152h-447v-1282h-170v1282h-446z" />
    <glyph glyph-name="afii10037" unicode="&#x423;" horiz-adv-x="1132" 
d="M371 141q67 0 106 58.5t68 173.5l-531 1061h197l367 -756l53 -182h10l41 188l274 750h174l-362 -932q-117 -310 -171 -385.5t-103.5 -101t-142.5 -25.5t-161 45l52 141q62 -35 129 -35z" />
    <glyph glyph-name="afii10038" unicode="&#x424;" horiz-adv-x="1597" 
d="M1337 724q0 203 -82 321t-227 118q-108 0 -147 -14v-850q30 -6 110 -6q157 0 251.5 114t94.5 317zM594 1163q-150 0 -242 -116t-92 -321t86 -319t232 -114h47q47 0 92 12v850q-50 8 -123 8zM554 150q-214 0 -342 142t-128 421t137.5 436.5t364.5 157.5q88 0 129 -9v177
h168v-183q56 15 162 15q210 0 339 -145.5t129 -424.5q0 -280 -141 -433.5t-356 -153.5q-94 0 -133 14v-205h-168v201q-58 -10 -161 -10z" />
    <glyph glyph-name="afii10039" unicode="&#x425;" horiz-adv-x="1265" 
d="M53 0l477 729l-436 705h205l291 -486l51 -117l49 117l307 486h189l-451 -691l471 -743h-198l-324 514l-55 123l-54 -123l-331 -514h-191z" />
    <glyph glyph-name="afii10040" unicode="&#x426;" horiz-adv-x="1406" 
d="M174 0v1434h170v-1282h645v1282h170v-1282h191v-416h-117l-31 264h-1028z" />
    <glyph glyph-name="afii10041" unicode="&#x427;" horiz-adv-x="1239" 
d="M895 618q-163 -92 -351 -92t-289 91t-101 311v506h170v-476q0 -281 254 -280q201 0 317 94v662h170v-1434h-170v618z" />
    <glyph glyph-name="afii10042" unicode="&#x428;" horiz-adv-x="1796" 
d="M174 0v1434h170v-1282h469v1282h170v-1282h469v1282h170v-1434h-1448z" />
    <glyph glyph-name="afii10043" unicode="&#x429;" horiz-adv-x="1869" 
d="M174 0v1434h170v-1282h469v1282h170v-1282h469v1282h170v-1282h190v-416h-118l-31 264h-1489z" />
    <glyph glyph-name="afii10044" unicode="&#x42a;" horiz-adv-x="1290" 
d="M656 131q184 0 284 83.5t100 239.5t-101 223.5t-263 67.5q-90 0 -180 -18v-584q58 -12 160 -12zM612 -16q-168 0 -286 30v1268h-328v152h498v-557q80 16 190 16q238 0 386.5 -99t148.5 -333t-119 -327t-220.5 -121.5t-269.5 -28.5z" />
    <glyph glyph-name="afii10045" unicode="&#x42b;" horiz-adv-x="1574" 
d="M1231 0v1434h170v-1434h-170zM842 451q0 294 -354 294q-75 0 -144 -18v-584q56 -12 158 -12q147 0 243.5 80t96.5 240zM448 -16q-158 0 -274 30v1420h170v-557q80 16 176 16q224 0 363 -98t139 -335t-109.5 -328t-208 -119.5t-256.5 -28.5z" />
    <glyph glyph-name="afii10046" unicode="&#x42c;" horiz-adv-x="1136" 
d="M503 131q182 0 283 82.5t101 238.5q0 157 -100 225t-263 68q-90 0 -180 -18v-584q58 -12 159 -12zM459 -16q-168 0 -285 30v1420h170v-557q80 16 190 16q238 0 385.5 -98.5t147.5 -333.5q0 -234 -119 -327t-220 -121.5t-269 -28.5z" />
    <glyph glyph-name="afii10047" unicode="&#x42d;" horiz-adv-x="1181" 
d="M480 127q243 0 327 191.5t92 338.5h-592v152h590q-20 246 -144 372t-320 126t-296 -62l-45 133q136 80 359 80q436 0 526 -271t90 -471q0 -379 -185.5 -560t-473.5 -181q-192 0 -316 52l45 149q100 -49 343 -49z" />
    <glyph glyph-name="afii10048" unicode="&#x42e;" horiz-adv-x="1828" 
d="M1159 1307q-383 0 -383 -590q0 -408 138.5 -499t244.5 -91q190 0 282.5 143.5t92.5 446.5q0 408 -134 499t-241 91zM1159 1458q555 0 555 -741q0 -358 -137 -550t-415 -192t-415.5 178.5t-150.5 503.5h-252v-657h-170v1434h170v-625h254q16 313 157.5 481t403.5 168z" />
    <glyph glyph-name="afii10049" unicode="&#x42f;" horiz-adv-x="1165" 
d="M685 1303q-349 0 -349 -287q0 -147 96.5 -220t249.5 -73h139v567q-63 13 -136 13zM724 1450q144 0 267 -31v-1419h-170v625l-211 -45l-356 -580h-201l320 510l125 88q-242 52 -292 190t-50 246t42 190.5t114.5 132.5t170 71.5t241.5 21.5z" />
    <glyph glyph-name="afii10065" unicode="&#x430;" horiz-adv-x="1015" 
d="M582 463q-332 0 -332 -172q0 -72 51 -118t119 -46q163 0 247 106q22 29 31 56v170q-58 4 -116 4zM387 -16q-66 0 -150.5 30t-133.5 140q-23 54 -23 132q2 302 495 302q95 0 123 -4q6 61 7 110q1 113 -45 158t-166 45t-235 -42q-38 -13 -66 -30l-52 123q156 94 375 93
q218 -1 292 -104q56 -76 56 -212l-12 -461q0 -171 29 -268h-121l-43 143h-10q-64 -103 -159 -129t-161 -26z" />
    <glyph glyph-name="afii10066" unicode="&#x431;" horiz-adv-x="1097" 
d="M270 510q0 -168 69.5 -279.5t209.5 -111.5q278 0 278 401q0 255 -92 306t-157 51q-308 4 -308 -367zM100 621q0 489 121 617t231.5 147.5t204.5 28.5t154.5 22.5t97.5 48.5l19 -148q-40 -36 -108 -51.5t-173 -22.5q-106 -7 -172.5 -22.5t-138 -80.5t-90.5 -318h6
q68 98 149.5 138t204.5 40q188 0 289.5 -123t101.5 -381t-117.5 -399.5t-335.5 -141.5t-331 156t-113 490z" />
    <glyph glyph-name="afii10067" unicode="&#x432;" horiz-adv-x="1021" 
d="M523 895q-98 0 -201 -6v-297h200q76 0 136.5 47t60.5 120t-49 104.5t-147 31.5zM512 129q112 0 179 39t67 133q0 166 -256 166h-180v-330q78 -8 190 -8zM463 -14q-116 0 -305 16v1020q72 4 150.5 10t195.5 6q203 0 291 -62.5t88 -189.5q0 -72 -42 -140t-139 -101v-8
q121 -23 170.5 -84.5t49.5 -163.5q0 -160 -115 -231.5t-344 -71.5z" />
    <glyph glyph-name="afii10068" unicode="&#x433;" horiz-adv-x="755" 
d="M158 0v1024h598v-143h-434v-881h-164z" />
    <glyph glyph-name="afii10069" unicode="&#x434;" horiz-adv-x="1107" 
d="M750 143v738h-308q-23 -505 -147 -738h455zM10 143h121q94 135 127 399.5t37 481.5h618v-881h150v-403h-111l-30 260h-770l-31 -260h-111v403z" />
    <glyph glyph-name="afii10070" unicode="&#x435;" horiz-adv-x="1040" 
d="M780 625q0 156 -59 218t-174 62t-188 -63t-87 -217h508zM905 82q-133 -107 -358 -107q-224 0 -335.5 144t-111.5 399q0 256 117 393t334 138q169 0 279 -86t110 -318q0 -68 -12 -149h-658q0 -278 120 -328t200 -50t150 26q70 24 104 57z" />
    <glyph glyph-name="afii10072" unicode="&#x436;" horiz-adv-x="1349" 
d="M588 582v442h160v-463l96 29l284 434h172l-278 -416l-80 -65l105 -82l303 -461h-195l-301 461h-106v-461h-160v481l-96 -28l-302 -453h-188l324 469l69 61l-104 78l-266 416h174l282 -442h107z" />
    <glyph glyph-name="afii10073" unicode="&#x437;" horiz-adv-x="903" 
d="M586 541q217 -41 217 -235q0 -154 -110.5 -239t-298.5 -85t-316 63l47 135q96 -55 258 -55q256 0 256 174q0 158 -264 158h-119v133h143q77 0 139 46.5t62 120.5q0 73 -55.5 105.5t-177.5 32.5t-238 -72l-47 127q153 88 342 88q340 0 340 -252q0 -72 -46 -140t-132 -97
v-8z" />
    <glyph glyph-name="afii10074" unicode="&#x438;" horiz-adv-x="1118" 
d="M158 0v1024h164v-625l-7 -120h9l79 127l461 618h97v-1024h-164v606l6 127h-6l-84 -131l-461 -602h-94z" />
    <glyph glyph-name="afii10075" unicode="&#x439;" horiz-adv-x="1118" 
d="M575 1151q-190 0 -250.5 88t-70.5 150l139 49q36 -168 144.5 -168t158.5 39t70 127l123 -39q-17 -119 -105 -183t-209 -63zM158 0v1024h164v-625l-7 -120h9l79 127l461 618h97v-1024h-164v606l6 127h-6l-84 -131l-461 -602h-94z" />
    <glyph glyph-name="afii10076" unicode="&#x43a;" horiz-adv-x="978" 
d="M158 0v1024h164v-463l88 29l327 434h178l-317 -412l-86 -67l106 -82l343 -463h-203l-342 461h-94v-461h-164z" />
    <glyph glyph-name="afii10077" unicode="&#x43b;" horiz-adv-x="1030" 
d="M74 139q82 0 129.5 187t58.5 698h610v-1024h-163v881h-297q-6 -86 -12.5 -185.5t-43 -401.5t-247.5 -302q-79 0 -119 18l24 137q25 -8 60 -8z" />
    <glyph glyph-name="afii10078" unicode="&#x43c;" horiz-adv-x="1320" 
d="M158 0v1024h161l287 -459l60 -119h4l61 123l268 455h164v-1024h-159v608l12 195h-10l-74 -158l-248 -401h-57l-258 401l-68 158h-8l16 -193v-610h-151z" />
    <glyph glyph-name="afii10079" unicode="&#x43d;" horiz-adv-x="1105" 
d="M158 0v1024h164v-428h462v428h164v-1024h-164v453h-462v-453h-164z" />
    <glyph glyph-name="afii10080" unicode="&#x43e;" horiz-adv-x="1097" 
d="M270 512q0 -267 101.5 -330t177.5 -63q279 -2 278 393q0 271 -101 332t-177 61q-279 2 -279 -393zM100 512q0 260 116 398t333 139q336 0 392.5 -208t55.5 -329q1 -260 -115 -398t-333 -139q-336 0 -392.5 208t-56.5 329z" />
    <glyph glyph-name="afii10081" unicode="&#x43f;" horiz-adv-x="1095" 
d="M158 0v1024h780v-1024h-164v881h-452v-881h-164z" />
    <glyph glyph-name="afii10082" unicode="&#x440;" horiz-adv-x="1107" 
d="M534 119q137 0 221 105q83 105 83 311q0 370 -267 370q-104 0 -164 -54t-85 -165v-508q75 -59 212 -59zM530 -25q-113 0 -208 41v-426h-164v1434h112l31 -123h8q97 148 297 148q201 0 301.5 -121t100.5 -386t-128 -416t-350 -151z" />
    <glyph glyph-name="afii10083" unicode="&#x441;" horiz-adv-x="923" 
d="M100 512q0 260 115 398t311 138t310 -59l-48 -141q-99 57 -227 57q-291 0 -291 -393q0 -172 73.5 -282.5t219.5 -110.5t240 74l53 -125q-126 -93 -321 -93q-435 0 -435 537z" />
    <glyph glyph-name="afii10084" unicode="&#x442;" horiz-adv-x="815" 
d="M4 881v143h807v-143h-322v-881h-163v881h-322z" />
    <glyph glyph-name="afii10085" unicode="&#x443;" horiz-adv-x="954" 
d="M276 -420q-70 0 -118 21l28 141q27 -10 52 -10q57 0 110 60t88 208l-411 1024h188l246 -664l57 -196h10l45 198l199 662h166l-303 -920q-35 -100 -69 -194t-75 -168t-92 -118t-121 -44z" />
    <glyph glyph-name="afii10086" unicode="&#x444;" horiz-adv-x="1392" 
d="M1139 517q0 189 -60.5 288.5t-214.5 99.5q-56 0 -92 -10v-778q30 -6 102 -6q131 0 198 108.5t67 297.5zM522 905q-127 0 -197.5 -95t-70.5 -298q0 -285 98 -343t159 -58t110 10v776q-50 8 -99 8zM90 506q0 268 110.5 401t319.5 133q57 0 98 -8v402h156v-404q62 10 121 10
q203 0 305.5 -117.5t102.5 -383.5t-109.5 -415t-306.5 -149q-70 0 -113 15v-400h-156v402q-50 -17 -141 -17q-186 0 -286.5 131.5t-100.5 399.5z" />
    <glyph glyph-name="afii10087" unicode="&#x445;" horiz-adv-x="1054" 
d="M57 0l369 524l-344 500h201l194 -283l58 -116l59 116l199 283h184l-346 -492l366 -532h-194l-217 311l-62 123l-63 -123l-221 -311h-183z" />
    <glyph glyph-name="afii10088" unicode="&#x446;" horiz-adv-x="1122" 
d="M158 0v1024h164v-881h444v881h164v-881h147v-403h-110l-31 260h-778z" />
    <glyph glyph-name="afii10089" unicode="&#x447;" horiz-adv-x="1003" 
d="M682 430q-116 -70 -275 -70t-233 78t-74 275v311h164v-279q0 -123 24.5 -164.5t59.5 -59t92 -17.5q158 0 242 65v455h164v-1024h-164v430z" />
    <glyph glyph-name="afii10090" unicode="&#x448;" horiz-adv-x="1507" 
d="M158 0v1024h164v-881h350v881h164v-881h350v881h164v-1024h-1192z" />
    <glyph glyph-name="afii10091" unicode="&#x449;" horiz-adv-x="1542" 
d="M158 0v1024h164v-881h350v881h164v-881h350v881h164v-881h147v-403h-111l-30 260h-1198z" />
    <glyph glyph-name="afii10092" unicode="&#x44a;" horiz-adv-x="1017" 
d="M555 512q-113 0 -164 -14v-355q80 -12 144 -12q251 0 251 193q0 82 -59 135t-172 53zM498 -12q-127 0 -271 12v881h-225v143h389v-391q86 14 185 14q194 0 287 -83t93 -222q0 -186 -111.5 -270t-346.5 -84z" />
    <glyph glyph-name="afii10093" unicode="&#x44b;" horiz-adv-x="1351" 
d="M1030 0v1024h164v-1024h-164zM484 512q-114 0 -162 -14v-355q76 -12 145 -12q129 0 180 49.5t51 137.5t-50 141t-164 53zM507 647q361 0 361 -305q0 -186 -103 -270t-335 -84q-131 0 -272 12v1024h164v-391q86 14 185 14z" />
    <glyph glyph-name="afii10094" unicode="&#x44c;" horiz-adv-x="950" 
d="M485 512q-115 0 -163 -14v-355q76 -12 145 -12q252 0 252 193q0 82 -59.5 135t-174.5 53zM508 647q195 0 288 -83t93 -222q0 -186 -111.5 -270t-347.5 -84q-131 0 -272 12v1024h164v-391q86 14 186 14z" />
    <glyph glyph-name="afii10095" unicode="&#x44d;" horiz-adv-x="952" 
d="M416 1049q436 0 436 -537q0 -262 -121 -399.5t-330 -137.5t-319 62l47 139q99 -57 250 -57q287 -2 305 330h-436v135h434q-10 145 -85 233t-214 88t-246 -71l-57 124q133 91 336 91z" />
    <glyph glyph-name="afii10096" unicode="&#x44e;" horiz-adv-x="1472" 
d="M688 512q0 -393 268 -393q131 0 188.5 95t57.5 298q0 280 -87 336.5t-161 56.5q-141 0 -203.5 -95t-62.5 -298zM1372 512q0 -537 -420 -537q-312 0 -366 185.5t-60 292.5h-204v-453h-164v1024h164v-428h206q33 453 428 453q416 0 416 -537z" />
    <glyph glyph-name="afii10097" unicode="&#x44f;" horiz-adv-x="972" 
d="M551 905q-268 0 -268 -196q0 -92 72.5 -142.5t191.5 -50.5h19q20 0 102 4v365q-54 20 -117 20zM558 1049q99 0 273 -33v-1016h-163v424l-158 -25l-270 -399h-199l246 350l82 76q-106 16 -181 86t-75 175t31.5 171t91 109t141.5 62.5t181 19.5z" />
    <glyph glyph-name="afii10071" unicode="&#x451;" horiz-adv-x="1040" 
d="M840 1300q0 -46 -28 -74t-74 -28t-74 28t-27 74q0 45 27.5 74t73.5 29t74 -29t28 -74zM780 625q0 156 -59 218t-174 62t-188 -63t-87 -217h508zM344 1198q-44 0 -72 28t-28 74q0 45 27 74q28 29 73 29t72.5 -29t27.5 -74q0 -46 -28 -74t-72 -28zM905 82
q-133 -107 -358 -107q-224 0 -335.5 144t-111.5 399q0 256 117 393t334 138q169 0 279 -86t110 -318q0 -68 -12 -149h-658q0 -278 120 -328t200 -50t150 26q70 24 104 57z" />
    <glyph glyph-name="afii10099" unicode="&#x452;" horiz-adv-x="1122" 
d="M707 -434q-28 0 -62 4v139q107 0 139.5 63t32.5 228v475q0 174 -46 249t-158 75q-111 0 -189 -62.5t-100 -161.5v-575h-164v1106h-164v123h164v205h164v-205h327v-123h-327v-303h8q117 139 305 139t266 -91t78 -339v-567q0 -190 -65.5 -284.5t-208.5 -94.5z" />
    <glyph glyph-name="afii10100" unicode="&#x453;" horiz-adv-x="755" 
d="M674 1475v-43l-207 -263h-96l121 306h182zM158 0v1024h598v-143h-434v-881h-164z" />
    <glyph glyph-name="afii10101" unicode="&#x454;" horiz-adv-x="966" 
d="M897 68q-126 -93 -343 -93t-335.5 144.5t-118.5 395.5t131 392.5t331 141.5q201 0 317 -60l-48 -141q-99 57 -239 58q-139 1 -224 -80t-102 -240h484v-135h-486q21 -233 140.5 -282.5t198.5 -49.5q147 0 241 74z" />
    <glyph glyph-name="afii10102" unicode="&#x455;" horiz-adv-x="862" 
d="M478 905q-115 0 -157 -31t-42 -95q1 -64 37 -94q36 -29 90 -53t120 -46q64 -22 155 -85t91 -216q0 -217 -200 -286q-67 -24 -170 -24q-183 0 -322 76l49 139q126 -72 282 -72q197 1 197 161q0 61 -46.5 105t-195.5 93q-148 49 -199.5 123t-51.5 164q0 147 84 216t214 69
q131 1 205 -19t130 -47l-39 -135q-116 57 -231 57z" />
    <glyph glyph-name="afii10103" unicode="&#x456;" horiz-adv-x="548" 
d="M193 0v1024h163v-1024h-163zM158 1335q0 47 31 81q32 34 81 34t84 -34t35 -81t-35 -78t-84 -31t-81 31q-31 31 -31 78z" />
    <glyph glyph-name="afii10104" unicode="&#x457;" horiz-adv-x="569" 
d="M315 1339q0 45 26 73t72 28t72.5 -28t26.5 -73t-26.5 -73.5t-72.5 -28.5t-72 28.5t-26 73.5zM201 0v1024h164v-1024h-164zM59 1339q0 45 26 73t72 28t72.5 -28t26.5 -73t-26.5 -73.5t-72.5 -28.5t-72 28.5t-26 73.5z" />
    <glyph glyph-name="afii10105" unicode="&#x458;" horiz-adv-x="546" 
d="M156 1335q0 47 31 81q32 34 81 34t84 -34t35 -81t-35 -78t-84 -31t-81 31q-31 31 -31 78zM80 -434q-28 0 -62 4v139q109 0 140.5 65t31.5 232v1018h164v-1079q0 -190 -65 -285q-66 -94 -209 -94z" />
    <glyph glyph-name="afii10106" unicode="&#x459;" horiz-adv-x="1501" 
d="M1036 512q-115 0 -164 -14v-357q76 -12 146 -12q252 0 252 195q0 82 -59.5 135t-174.5 53zM1058 647q196 0 289 -83t93 -222q0 -186 -111.5 -270t-347.5 -84q-131 0 -272 12v881h-297q-6 -86 -12.5 -185.5t-43 -401.5t-247.5 -302q-79 0 -119 18l24 137q25 -8 60 -8
q82 0 129.5 187t58.5 698h610v-391q85 14 186 14z" />
    <glyph glyph-name="afii10107" unicode="&#x45a;" horiz-adv-x="1576" 
d="M1120 512q-107 0 -172 -14v-355q76 -12 146 -12q252 0 252 193q0 82 -59.5 135t-166.5 53zM1134 647q195 0 288.5 -82.5t93.5 -222.5q0 -186 -112 -270t-347 -84q-131 0 -273 12v457h-462v-457h-164v1024h164v-424h462v424h164v-391q86 14 186 14z" />
    <glyph glyph-name="afii10108" unicode="&#x45b;" horiz-adv-x="1122" 
d="M332 803q117 139 305 139t266 -91t78 -339v-512h-164v475q0 174 -46 249t-158 75q-111 0 -189 -62.5t-100 -161.5v-575h-164v1106h-164v123h164v205h164v-205h327v-123h-327v-303h8z" />
    <glyph glyph-name="afii10109" unicode="&#x45c;" horiz-adv-x="978" 
d="M707 1475v-43l-207 -263h-97l121 306h183zM158 0v1024h164v-463l88 29l327 434h178l-317 -412l-86 -67l106 -82l343 -463h-203l-342 461h-94v-461h-164z" />
    <glyph glyph-name="afii10110" unicode="&#x45e;" horiz-adv-x="954" 
d="M466 1270q108 0 159 39t69 127l123 -39q-18 -119 -105 -183t-208 -63q-191 0 -251.5 88t-70.5 150l140 49q36 -168 144 -168zM276 -420q-70 0 -118 21l28 141q27 -10 52 -10q57 0 110 60t88 208l-411 1024h188l246 -664l57 -196h10l45 198l199 662h166l-303 -920
q-35 -100 -69 -194t-75 -168t-92 -118t-121 -44z" />
    <glyph glyph-name="afii10193" unicode="&#x45f;" horiz-adv-x="1095" 
d="M158 0v1024h164v-881h452v881h164v-1024h-299l-31 -367h-106l-41 367h-303z" />
    <glyph glyph-name="afii10146" unicode="&#x462;" horiz-adv-x="1267" 
d="M1018 451q0 292 -363 292q-90 0 -180 -18v-582q57 -12 159 -12q181 0 282.5 81.5t101.5 238.5zM590 -16q-168 0 -285 30v1112h-305v144h305v207h170v-207h424v-144h-424v-252q85 17 193 17q236 0 383 -97.5t147 -331.5t-118.5 -327.5t-220 -122t-269.5 -28.5z" />
    <glyph glyph-name="afii10194" unicode="&#x463;" horiz-adv-x="1017" 
d="M554 512q-114 0 -165 -14v-355q80 -12 146 -12q251 0 251 193q0 82 -59 135t-173 53zM575 647q195 0 288 -83t93 -222q0 -186 -111.5 -270t-346.5 -84q-131 0 -273 12v889h-223v135h223v410h164v-410h328v-135h-328v-256q86 14 186 14z" />
    <glyph glyph-name="afii10147" unicode="&#x472;" horiz-adv-x="1400" 
d="M698 1307q-260 0 -327.5 -181.5t-75.5 -322.5h811q-16 244 -128 374t-280 130zM704 127q169 0 280 122t122 402h-811q16 -264 128 -394t281 -130zM266.5 1266.5q151.5 191.5 438.5 191.5t434 -196.5t147 -549.5t-152.5 -545t-437.5 -192t-433 196.5t-148 549.5
q0 354 151.5 545.5z" />
    <glyph glyph-name="afii10195" unicode="&#x473;" horiz-adv-x="1097" 
d="M827 575q-30 330 -278 330q-182 0 -228.5 -118.5t-50.5 -211.5h557zM549 119q257 0 278 325h-557q10 -160 88 -242.5t191 -82.5zM100 512q0 260 116 398.5t338 138.5t332.5 -143t110.5 -399q0 -255 -115.5 -393.5t-332.5 -138.5q-336 0 -392.5 208t-56.5 329z" />
    <glyph glyph-name="afii10148" unicode="&#x474;" horiz-adv-x="1224" 
d="M1059 1439q45 9 130 9t157 -45l-50 -143q-64 36 -131 36t-106 -53t-80 -178l-356 -1088h-76l-551 1457h184l365 -985l49 -218h4l33 222q39 135 81 271t87 290t87 243t85 131t88 51z" />
    <glyph glyph-name="afii10196" unicode="&#x475;" horiz-adv-x="1038" 
d="M967 1038q75 0 118 -18l-24 -152q-43 19 -74 19q-74 0 -141 -158l-311 -752h-70l-445 1047h189l246 -600l57 -195h2l51 199q29 74 46.5 117t28.5 73.5t32 82.5q67 174 124 255.5t171 81.5z" />
    <glyph glyph-name="uni048A" unicode="&#x48a;" horiz-adv-x="1413" 
d="M713 1624q82 0 130 41t58 115l146 -35q-23 -111 -104 -175.5t-229 -64.5q-319 0 -352 236l162 41q8 -76 57.5 -117t131.5 -41zM174 0v1434h170v-983l-14 -162h8l90 168l692 977h101v-1291h213v-45l-187 -364h-110l92 266h-178v971l12 164h-8l-88 -168l-693 -967h-100z
" />
    <glyph glyph-name="uni048B" unicode="&#x48b;" horiz-adv-x="1148" 
d="M575 1151q-190 0 -250.5 88t-70.5 150l139 49q36 -168 144.5 -168t159.5 39t69 127l123 -39q-18 -119 -105.5 -182.5t-208.5 -63.5zM158 0v1024h164v-625l-7 -120h9l79 127l461 618h97v-881h204v-45l-186 -358h-111l93 260h-164v606l6 127h-6l-84 -131l-461 -602h-94z
" />
    <glyph glyph-name="uni048C" unicode="&#x48c;" horiz-adv-x="1267" 
d="M1018 451q0 292 -363 292q-90 0 -180 -18v-582q57 -12 159 -12q183 0 284 83q100 82 100 237zM305 1126h-305v144h305v207h170v-207h424v-144h-424v-252q85 17 193 17q235 0 382.5 -97t147.5 -332q0 -234 -162 -362q-76 -59 -177 -87.5t-269 -28.5t-285 30v1112z" />
    <glyph glyph-name="uni048D" unicode="&#x48d;" horiz-adv-x="1017" 
d="M554 512q-114 0 -165 -14v-355q80 -12 146 -12q251 0 251 193q0 82 -59 135t-173 53zM575 647q101 1 175 -23q206 -65 206 -282q0 -186 -112 -270t-346 -84q-131 0 -273 12v889h-223v135h223v410h164v-410h328v-135h-328v-256q86 14 186 14z" />
    <glyph glyph-name="uni048E" unicode="&#x48e;" horiz-adv-x="1144" 
d="M380 688h124q82 0 135 12l-131 191l88 55l145 -211q148 78 148 275q0 154 -106 223.5t-249 69.5t-190 -13v-594q20 -8 36 -8zM399 537q-15 0 -55 8v-545h-170v1419q134 31 287 31t250.5 -18.5t227.5 -98t130 -323.5q0 -154 -64.5 -252.5t-166.5 -151.5l139 -200l-94 -68
l-158 225q-98 -27 -213 -26h-113z" />
    <glyph glyph-name="uni048F" unicode="&#x48f;" horiz-adv-x="1107" 
d="M838 535q0 272 -96.5 321t-170.5 49q-202 0 -249 -219v-510q73 -57 208 -57q63 -2 111 18l-113 133l80 64l119 -141q111 111 111 342zM532 -25q-115 0 -210 41v-426h-164v1434h112l31 -123h8q97 148 297 148q201 0 301.5 -121t100.5 -411t-174 -439l108 -127l-86 -76
l-121 141q-88 -41 -203 -41z" />
    <glyph glyph-name="afii10050" unicode="&#x490;" horiz-adv-x="905" 
d="M174 0v1434h621l32 274h115v-426h-598v-1282h-170z" />
    <glyph glyph-name="afii10098" unicode="&#x491;" horiz-adv-x="755" 
d="M158 0v1024h450l33 274h115v-417h-434v-881h-164z" />
    <glyph glyph-name="uni0492" unicode="&#x492;" horiz-adv-x="987" 
d="M20 653v135h197v646h768v-152h-598v-494h440v-135h-440v-653h-170v653h-197z" />
    <glyph glyph-name="uni0493" unicode="&#x493;" horiz-adv-x="788" 
d="M0 449v122h184v453h598v-143h-434v-310h346v-122h-346v-449h-164v449h-184z" />
    <glyph glyph-name="uni0494" unicode="&#x494;" horiz-adv-x="1181" 
d="M560 623q-81 0 -216 -45v-578h-170v1434h768v-152h-598v-555q134 43 250 43q115 0 193.5 -22.5t179 -111.5t100.5 -364q0 -274 -124 -404t-353 -130q-118 0 -144 6v152q47 -7 150 -7q291 0 291 375q0 193 -83 276t-244 83z" />
    <glyph glyph-name="uni0495" unicode="&#x495;" horiz-adv-x="1095" 
d="M538 416q-121 0 -216 -43v-373h-164v1024h596v-143h-432v-365q99 43 218 43q120 0 193.5 -23.5t161.5 -110t88 -343.5q0 -258 -107.5 -384t-336.5 -126q-118 0 -144 6v143q40 -6 150 -6q274 0 274 357q0 182 -80 263t-201 81z" />
    <glyph glyph-name="uni0496" unicode="&#x496;" horiz-adv-x="1677" 
d="M733 791v643h164v-668l88 29l416 639h188l-413 -623l-82 -66l102 -83l352 -510h119v-416h-119l-30 264h-74l-453 664h-94v-664h-164v688l-86 -29l-452 -659h-197l453 641l98 78l-94 72l-428 643h198l416 -643h92z" />
    <glyph glyph-name="uni0497" unicode="&#x497;" horiz-adv-x="1419" 
d="M588 582v442h160v-463l96 29l284 434h172l-278 -416l-80 -65l105 -82l208 -318h154v-403h-111l-30 260h-113l-301 461h-106v-461h-160v481l-96 -28l-302 -453h-188l324 469l69 61l-104 78l-266 416h174l282 -442h107z" />
    <glyph glyph-name="uni0498" unicode="&#x498;" horiz-adv-x="1107" 
d="M471 129q137 0 239.5 73t102.5 207t-100.5 201.5t-315.5 67.5h-112v143h52q52 0 79.5 2t53.5 3t60 7q95 16 167.5 79.5t72.5 158.5q0 236 -289 236q-203 0 -313 -54l-45 136q41 23 147 46t214 23q211 0 338.5 -82t127.5 -270q0 -102 -67.5 -195.5t-202.5 -134.5v-8
q145 -20 229 -108.5t84 -235.5q0 -199 -131 -313t-325 -131l-29 -347h-107l-39 344q-160 7 -272 52l43 153q108 -53 338 -53z" />
    <glyph glyph-name="uni0499" unicode="&#x499;" horiz-adv-x="903" 
d="M639 299q0 158 -264 158h-119v133h143q77 0 139 46.5t62 120.5q0 73 -55.5 105.5t-177.5 32.5t-238 -72l-47 127q153 88 342 88q340 0 340 -252q0 -72 -46 -140t-132 -97v-8q121 -23 169 -86t48 -171t-77 -189t-232 -105l-29 -357h-107l-39 351q-124 6 -241 61l47 135
q96 -55 258 -55q256 0 256 174z" />
    <glyph glyph-name="uni049A" unicode="&#x49a;" horiz-adv-x="1259" 
d="M174 0v1434h170v-668l92 29l482 639h196l-479 -617l-86 -67l104 -82l406 -516h182v-416h-119l-30 264h-129l-523 664h-96v-664h-170z" />
    <glyph glyph-name="uni049B" unicode="&#x49b;" horiz-adv-x="1036" 
d="M158 0v1024h164v-463l88 29l327 434h178l-317 -412l-86 -67l106 -82l236 -320h162v-403h-111l-31 260h-116l-342 461h-94v-461h-164z" />
    <glyph glyph-name="uni049C" unicode="&#x49c;" horiz-adv-x="1402" 
d="M174 0v1434h170v-668l111 10v258h135v-243l47 4l438 639h195l-443 -617l-84 -67l103 -82l485 -668h-213l-475 664h-53v-265h-135v265h-111v-664h-170z" />
    <glyph glyph-name="uni049D" unicode="&#x49d;" horiz-adv-x="1101" 
d="M158 0v1024h164v-463l98 10v252h129v-239l53 6l268 434h172l-258 -412l-90 -67l107 -82l282 -463h-192l-283 461h-59v-260h-129v260h-98v-461h-164z" />
    <glyph glyph-name="uni049E" unicode="&#x49e;" horiz-adv-x="1359" 
d="M0 1163v140h285v131h170v-131h250v-136h-250v-401l100 29l475 639h195l-473 -617l-90 -67l106 -82l520 -668h-217l-516 664h-100v-664h-170v1163h-285z" />
    <glyph glyph-name="uni049F" unicode="&#x49f;" horiz-adv-x="985" 
d="M-4 1133v122h166v179h164v-179h325v-122h-325v-572l84 29l317 434h191l-314 -412l-84 -67l103 -82l342 -463h-203l-342 461h-94v-461h-164v1133h-166z" />
    <glyph glyph-name="uni04A0" unicode="&#x4a0;" horiz-adv-x="1402" 
d="M0 1282v152h500v-668l90 29l481 639h199l-482 -617l-83 -67l102 -82l526 -668h-217l-522 664h-94v-664h-170v1282h-330z" />
    <glyph glyph-name="uni04A1" unicode="&#x4a1;" horiz-adv-x="1048" 
d="M2 881v143h389v-463l86 29l330 434h176l-317 -412l-84 -67l106 -82l342 -463h-203l-342 461h-94v-461h-164v881h-225z" />
    <glyph glyph-name="uni04A2" unicode="&#x4a2;" horiz-adv-x="1447" 
d="M174 0v1434h170v-625h688v625h170v-1282h189v-416h-119l-31 264h-209v657h-688v-657h-170z" />
    <glyph glyph-name="uni04A3" unicode="&#x4a3;" horiz-adv-x="1118" 
d="M158 0v1024h164v-428h462v428h164v-881h150v-403h-111l-31 260h-172v453h-462v-453h-164z" />
    <glyph glyph-name="uni04A4" unicode="&#x4a4;" horiz-adv-x="1763" 
d="M174 0v1434h170v-625h688v625h768v-152h-598v-1282h-170v657h-688v-657h-170z" />
    <glyph glyph-name="uni04A5" unicode="&#x4a5;" horiz-adv-x="1382" 
d="M158 0v1024h164v-428h462v428h598v-143h-434v-881h-164v453h-462v-453h-164z" />
    <glyph glyph-name="uni04A6" unicode="&#x4a6;" horiz-adv-x="2013" 
d="M1381 623q-92 0 -205 -45v-578h-170v1282h-662v-1282h-170v1434h1002v-707q124 43 244 43t200 -22.5t180.5 -111.5t100.5 -364q0 -274 -125 -404t-355 -130q-119 0 -143 6v152q47 -7 149 -7q143 0 218 93.5t75 283.5t-66.5 257t-123.5 83.5t-149 16.5z" />
    <glyph glyph-name="uni04A7" unicode="&#x4a7;" horiz-adv-x="1712" 
d="M1156 416q-120 0 -218 -43v-373h-164v881h-452v-881h-164v1024h780v-508q99 43 217 43q119 0 191.5 -23.5t161.5 -109.5t89 -344t-106.5 -384t-335.5 -126q-119 0 -143 6v143q40 -6 149 -6q273 0 273 357q0 182 -79 263t-199 81z" />
    <glyph glyph-name="uni04A8" unicode="&#x4a8;" horiz-adv-x="1660" 
d="M766 756q0 -182 71.5 -342t202.5 -234q122 69 210.5 236t88.5 387q0 310 -99.5 374t-165.5 64t-120.5 -29.5t-95.5 -92t-66.5 -161t-25.5 -202.5zM766 -25q-299 0 -475 201t-176 547t159.5 540.5t448.5 194.5v-151q-195 0 -311.5 -147t-116.5 -441q0 -245 134 -422.5
t337 -177.5q68 0 98 12q-126 75 -202 248t-76 347q0 321 132 494t350 173t335 -153t117 -408t-92 -441t-230 -268q10 -2 13 -2h30q151 0 236 61l51 -133q-39 -31 -96.5 -52.5t-184.5 -21.5t-223 62q-106 -62 -258 -62z" />
    <glyph glyph-name="uni04A9" unicode="&#x4a9;" horiz-adv-x="1351" 
d="M692 524q0 -117 46 -214t124 -150q138 64 174.5 205t36.5 207q0 131 -47.5 220t-134.5 89q-199 0 -199 -357zM100 519q0 249 114 388.5t337 141.5v-144q-281 -2 -281 -391q0 -170 83 -282.5t243 -112.5q69 0 102 20q-74 45 -125 147t-51 212q0 229 85.5 377.5
t273.5 148.5q189 0 275.5 -121.5t86.5 -297.5q0 -177 -72 -307.5t-170 -172.5q31 -14 78 -14q99 0 162 67l51 -123q-37 -35 -99.5 -57.5t-135.5 -22.5q-137 0 -211 74q-105 -74 -275 -74q-224 0 -347.5 147.5t-123.5 396.5z" />
    <glyph glyph-name="uni04AA" unicode="&#x4aa;" horiz-adv-x="1169" 
d="M115 732q0 186 54 326t184 270t384 130q217 0 334 -49l-41 -149q-98 47 -284 47t-318.5 -142.5t-132.5 -437.5t133 -446.5t346 -151.5q173 0 277 64l41 -134q-91 -71 -293 -82l-29 -344h-106l-39 353q-358 53 -434 306.5t-76 439.5z" />
    <glyph glyph-name="uni04AB" unicode="&#x4ab;" horiz-adv-x="923" 
d="M575 119q134 0 228 74l53 -125q-90 -66 -223 -84l-29 -351h-106l-39 347q-359 44 -359 532q0 260 115 398.5t330 138.5q175 0 291 -60l-48 -141q-99 57 -227 57q-291 0 -291 -393q0 -270 109.5 -331.5t195.5 -61.5z" />
    <glyph glyph-name="uni04AC" unicode="&#x4ac;" horiz-adv-x="1136" 
d="M37 1282v152h1063v-152h-447v-1130h189v-416h-119l-31 264h-209v1282h-446z" />
    <glyph glyph-name="uni04AD" unicode="&#x4ad;" horiz-adv-x="815" 
d="M4 881v143h807v-143h-322v-738h152v-403h-111l-30 260h-174v881h-322z" />
    <glyph glyph-name="uni04AE" unicode="&#x4ae;" horiz-adv-x="1142" 
d="M659 0h-170v569l-473 865h199l336 -627l35 -125h2l37 129l321 623h182l-469 -863v-571z" />
    <glyph glyph-name="uni04AF" unicode="&#x4af;" horiz-adv-x="991" 
d="M588 -410h-164v410l-404 1024h189l250 -664l57 -217h2l51 222l226 659h176l-383 -1024v-410z" />
    <glyph glyph-name="uni04B0" unicode="&#x4b0;" horiz-adv-x="1142" 
d="M967 584v-127h-308v-457h-170v457h-307v127h299l-465 850h199l336 -627l35 -125h2l37 129l321 623h182l-460 -850h299z" />
    <glyph glyph-name="uni04B1" unicode="&#x4b1;" horiz-adv-x="991" 
d="M827 0v-123h-239v-287h-164v287h-252v123h252l-404 1024h189l250 -664l57 -217h2l51 222l226 659h176l-383 -1024h239z" />
    <glyph glyph-name="uni04B2" unicode="&#x4b2;" horiz-adv-x="1327" 
d="M1309 152v-416h-119l-31 264h-151l-324 514l-55 123l-54 -123l-331 -514h-191l477 729l-436 705h205l291 -486l51 -117l49 117l307 486h189l-451 -691l375 -591h199z" />
    <glyph glyph-name="uni04B3" unicode="&#x4b3;" horiz-adv-x="1075" 
d="M1055 143v-403h-111l-31 260h-110l-217 311l-62 123l-63 -123l-221 -311h-183l369 524l-344 500h201l194 -283l58 -116l59 116l199 283h184l-346 -492l268 -389h156z" />
    <glyph glyph-name="uni04B4" unicode="&#x4b4;" horiz-adv-x="1716" 
d="M37 1282v152h989v-152h-373v-1130h645v1282h170v-1282h189v-416h-117l-31 264h-1026v1282h-446z" />
    <glyph glyph-name="uni04B5" unicode="&#x4b5;" horiz-adv-x="1292" 
d="M4 881v143h793v-143h-308v-738h445v881h164v-881h147v-403h-110l-31 260h-778v881h-322z" />
    <glyph glyph-name="uni04B6" unicode="&#x4b6;" horiz-adv-x="1308" 
d="M895 618q-163 -92 -351 -92t-289 91t-101 311v506h170v-476q0 -281 254 -280q201 0 317 94v662h170v-1282h188v-416h-118l-31 264h-209v618z" />
    <glyph glyph-name="uni04B7" unicode="&#x4b7;" horiz-adv-x="1042" 
d="M682 430q-116 -70 -275 -70t-233 78t-74 275v311h164v-279q0 -122 24.5 -165t59.5 -59.5t92 -16.5q158 0 242 65v455h164v-881h151v-403h-110l-31 260h-174v430z" />
    <glyph glyph-name="uni04B8" unicode="&#x4b8;" horiz-adv-x="1255" 
d="M690 297h-135v229q-198 0 -299.5 90t-101.5 312v506h170v-476q0 -268 231 -280v254h135v-246q134 20 221 86v662h170v-1434h-170v618q-84 -50 -221 -77v-244z" />
    <glyph glyph-name="uni04B9" unicode="&#x4b9;" horiz-adv-x="1017" 
d="M549 139h-129v221q-169 0 -244.5 77.5t-75.5 275.5v311h164v-279q0 -118 21.5 -159t52.5 -59.5t82 -22.5v260h129v-252q99 19 147 57v455h164v-1024h-164v430q-57 -40 -147 -57v-234z" />
    <glyph glyph-name="uni04BA" unicode="&#x4ba;" horiz-adv-x="1239" 
d="M664 756q-204 0 -320 -94v-662h-170v1434h170v-619q163 92 352 92t290 -91t101 -310v-506h-169v475q0 281 -254 281z" />
    <glyph glyph-name="uni04BB" unicode="&#x4bb;" horiz-adv-x="1120" 
d="M330 909q118 140 305 140t264.5 -90t79.5 -341v-618h-164v584q0 171 -33.5 225.5t-75.5 74.5t-124 21q-82 0 -160 -62t-100 -161v-682h-164v1434h164v-525h8z" />
    <glyph glyph-name="uni04BC" unicode="&#x4bc;" horiz-adv-x="1585" 
d="M1300 919q0 160 -87 278t-268 118t-278.5 -137.5t-107.5 -382.5h733q8 58 8 124zM313 651q-172 0 -241.5 71t-69.5 175t57 164h160q-57 -47 -57 -123t35.5 -111.5t140.5 -35.5h18q19 0 33 2q14 319 157.5 492t402.5 173t390 -153.5t131 -434.5q0 -102 -18 -219h-891
q16 -268 133 -396t340 -128q160 0 301 86l45 -137q-163 -101 -379 -101q-426 0 -516 249t-96 427h-76z" />
    <glyph glyph-name="uni04BD" unicode="&#x4bd;" horiz-adv-x="1263" 
d="M1004 625q0 156 -59.5 218t-174.5 62t-187.5 -63.5t-86.5 -216.5h508zM1128 82q-133 -107 -357 -107q-218 0 -330.5 136.5t-116.5 382.5h-25q-140 0 -211.5 67.5t-71.5 176.5q0 108 84 192h160q-96 -68 -96 -180q0 -82 51 -102.5t79 -20.5t36 2q25 205 138.5 312.5
t293.5 107.5t290.5 -85t110.5 -319q0 -68 -12 -149h-657q0 -377 319 -377q80 0 149.5 24.5t104.5 57.5z" />
    <glyph glyph-name="uni04BE" unicode="&#x4be;" horiz-adv-x="1585" 
d="M1300 919q0 160 -87 278t-268 118t-278.5 -137.5t-107.5 -382.5h733q8 58 8 124zM313 651q-172 0 -241.5 71t-69.5 175t57 164h160q-57 -47 -57 -123t35.5 -111.5t140.5 -35.5h18q19 0 33 2q14 319 157.5 492t402.5 173t390 -153.5t131 -434.5q0 -102 -18 -219h-891
q16 -268 133 -396t340 -126q163 0 301 84l45 -137q-144 -90 -333 -99l-29 -344h-107l-39 353q-215 33 -343 193.5t-140 471.5h-76z" />
    <glyph glyph-name="uni04BF" unicode="&#x4bf;" horiz-adv-x="1263" 
d="M1004 625q0 156 -59.5 218t-174.5 62t-187.5 -63.5t-86.5 -216.5h508zM494 496q0 -379 319 -379q80 0 149.5 24.5t104.5 57.5l61 -117q-98 -79 -272 -100l-29 -349h-106l-39 351q-349 56 -358 510h-25q-140 0 -211.5 67.5t-71.5 177.5q0 66 20.5 107t63.5 84h160
q-96 -68 -96 -180q0 -82 51 -102.5t79 -20.5t36 2q25 205 138.5 312.5t293.5 107.5t290.5 -85t110.5 -319q0 -68 -12 -149h-657z" />
    <glyph glyph-name="uni04C0" unicode="&#x4c0;" horiz-adv-x="595" 
d="M213 0v1434h170v-1434h-170z" />
    <glyph glyph-name="uni04C3" unicode="&#x4c3;" horiz-adv-x="1228" 
d="M174 0v1434h170v-668l92 29l482 639h196l-459 -586l-116 -78h129q218 -50 311.5 -188.5t93.5 -429.5v-37q0 -424 -153.5 -485.5t-245.5 -61.5h-20q-21 0 -38 2v149q161 0 224 95t63 351t-111.5 377.5t-351.5 121.5h-96v-664h-170z" />
    <glyph glyph-name="uni04C4" unicode="&#x4c4;" horiz-adv-x="985" 
d="M158 0v1024h164v-481l88 28l327 453h178l-319 -430l-74 -53l90 -13q242 -53 266.5 -232.5t24.5 -283.5q0 -216 -97.5 -333t-264.5 -117h-26q-26 0 -44 4v141q10 -2 13 -2h24q111 0 171 84t60 244q0 215 -86 312t-237 97h-94v-442h-164z" />
    <glyph glyph-name="uni04C5" unicode="&#x4c5;" horiz-adv-x="1273" 
d="M67 152q208 0 240.5 509.5t38.5 772.5h758v-1291h190v-45l-186 -364h-111l93 266h-156v1282h-428q-20 -410 -54 -681t-102 -423q-86 -188 -239 -188q-67 0 -115 20l22 148q20 -6 49 -6z" />
    <glyph glyph-name="uni04C6" unicode="&#x4c6;" horiz-adv-x="1056" 
d="M74 139q82 0 129.5 187t58.5 698h610v-881h205v-45l-186 -358h-111l92 260h-163v881h-297q-6 -86 -12.5 -185.5t-43 -401.5t-247.5 -302q-74 0 -119 18l24 137q25 -8 60 -8z" />
    <glyph glyph-name="uni04C7" unicode="&#x4c7;" horiz-adv-x="1376" 
d="M174 0v1434h170v-625h688v625h170v-1489q0 -190 -64.5 -284.5t-207.5 -94.5h-24q-23 0 -40 4v143q108 0 137 59.5t29 227.5v657h-688v-657h-170z" />
    <glyph glyph-name="uni04C8" unicode="&#x4c8;" horiz-adv-x="1105" 
d="M674 -434q-28 0 -62 4v139q107 0 139.5 63t32.5 228v453h-462v-453h-164v1024h164v-428h462v428h164v-1079q0 -190 -65.5 -284.5t-208.5 -94.5z" />
    <glyph glyph-name="uni04C9" unicode="&#x4c9;" horiz-adv-x="1394" 
d="M174 0v1434h170v-625h688v625h170v-1291h213v-45l-186 -364h-111l92 266h-178v657h-688v-657h-170z" />
    <glyph glyph-name="uni04CA" unicode="&#x4ca;" horiz-adv-x="1138" 
d="M158 0v1024h164v-428h462v428h164v-881h205v-45l-186 -364l-111 6l92 260h-164v453h-462v-453h-164z" />
    <glyph glyph-name="uni04CB" unicode="&#x4cb;" horiz-adv-x="1239" 
d="M895 618q-163 -92 -351 -92t-289 91t-101 311v506h170v-476q0 -281 254 -280q201 0 317 94v662h170v-1434h-209l-31 -264h-118v416h188v466z" />
    <glyph glyph-name="uni04CC" unicode="&#x4cc;" horiz-adv-x="1003" 
d="M682 434q-111 -67 -271 -67q-161 0 -236 77t-75 273v307h164v-274q0 -121 24.5 -164t59.5 -59.5t92 -16.5q158 0 242 65v449h164v-1024h-180l-31 -260h-111v397h158v297z" />
    <glyph glyph-name="uni04CD" unicode="&#x4cd;" horiz-adv-x="1640" 
d="M174 0v1434h127l449 -734l67 -159h4l64 164l428 729h133v-1291h213v-45l-186 -364h-111l92 266h-178v963l20 215h-10l-78 -197l-372 -647h-52l-395 649l-74 195h-10l29 -213v-965h-160z" />
    <glyph glyph-name="uni04CE" unicode="&#x4ce;" horiz-adv-x="1353" 
d="M158 0v1024h161l287 -459l60 -119h4l61 123l268 455h164v-881h205v-45l-186 -358h-111l92 260h-159v608l12 195h-10l-74 -158l-248 -401h-57l-258 401l-68 158h-8l16 -193v-610h-151z" />
    <glyph glyph-name="uni04CF" unicode="&#x4cf;" horiz-adv-x="520" 
d="M178 0v1434h164v-1434h-164z" />
    <glyph glyph-name="uni04D0" unicode="&#x4d0;" horiz-adv-x="1198" 
d="M383 545h422l-160 436l-51 217h-2l-51 -221zM600 1624q82 0 130 41t58 115l146 -35q-23 -111 -104 -175t-229 -65q-320 0 -351 236l162 41q8 -76 57 -117t131 -41zM16 0l543 1456h78l545 -1456h-178l-148 397h-528l-144 -397h-168z" />
    <glyph glyph-name="uni04D1" unicode="&#x4d1;" horiz-adv-x="1015" 
d="M582 463q-332 0 -332 -172q0 -72 51 -118t119 -46q163 0 247 106q22 29 31 56v170q-58 4 -116 4zM463.5 1270q108.5 0 159.5 39t69 127l123 -39q-18 -119 -105 -183t-208 -63q-191 0 -251.5 88t-70.5 150l139 49q36 -168 144.5 -168zM387 -16q-66 0 -150.5 30t-133.5 140
q-23 54 -23 132q2 302 495 302q95 0 123 -4q6 61 7 110q1 113 -45 158t-166 45t-235 -42q-38 -13 -66 -30l-52 123q156 94 375 93q218 -1 292 -104q56 -76 56 -212l-12 -461q0 -171 29 -268h-121l-43 143h-10q-64 -103 -159 -129t-161 -26z" />
    <glyph glyph-name="uni04D2" unicode="&#x4d2;" horiz-adv-x="1198" 
d="M901 1627q0 -43 -31 -69q-30 -26 -78 -26t-78 26t-30 69q0 42 30 68.5t78 26.5t78 -26t31 -69zM383 545h422l-160 436l-51 217h-2l-51 -221zM508 1627q0 -43 -30 -69t-78 -26t-78 26t-31 69q0 42 30.5 68.5t78.5 26.5t78 -26t30 -69zM16 0l543 1456h78l545 -1456h-178
l-148 397h-528l-144 -397h-168z" />
    <glyph glyph-name="uni04D3" unicode="&#x4d3;" horiz-adv-x="1015" 
d="M797 1300q0 -46 -28 -74t-74 -28q-45 0 -73 28t-28 74q0 45 28 74t74 29t73.5 -29t27.5 -74zM582 463q-332 0 -332 -172q0 -72 51 -118t119 -46q163 0 247 106q22 29 31 56v170q-58 4 -116 4zM301 1198q-45 0 -73 28t-27 74q0 45 27 74q28 29 73 29t73 -29t28 -74
q0 -46 -28 -74t-73 -28zM387 -16q-66 0 -150.5 30t-133.5 140q-23 54 -23 132q2 302 495 302q95 0 123 -4q6 61 7 110q1 113 -45 158t-166 45t-235 -42q-38 -13 -66 -30l-52 123q156 94 375 93q218 -1 292 -104q56 -76 56 -212l-12 -461q0 -171 29 -268h-121l-43 143h-10
q-64 -103 -159 -129t-161 -26z" />
    <glyph glyph-name="uni04D4" unicode="&#x4d4;" horiz-adv-x="1732" 
d="M809 549v680h-8l-70 -211l-272 -469h350zM1589 1434v-152h-610v-469h559v-151h-559v-510h620v-152h-790v406h-438l-230 -406h-186l850 1434h784z" />
    <glyph glyph-name="uni04D5" unicode="&#x4d5;" horiz-adv-x="1630" 
d="M1370 625v24q0 139 -62 198q-62 58 -174 58t-186 -63t-86 -217h508zM582 463q-332 0 -332 -172q0 -72 51 -118t119 -46q163 0 247 106q22 29 31 56v170q-58 4 -116 4zM1495 82q-133 -107 -363 -107q-114 -1 -216 51t-150 146h-14q-137 -188 -365 -188q-135 0 -222 80.5
t-85 209.5q0 250 199.5 282t295.5 32q95 0 123 -4q7 106 7 110q1 113 -45 159t-166 45t-235 -43q-38 -13 -66 -30l-52 123q156 94 385 93q228 -1 291 -134q53 74 143 108t171 34q180 0 289.5 -87.5t109.5 -320.5q0 -45 -10 -145h-662q0 -178 75 -278t255 -99q72 -1 140 25
t106 57z" />
    <glyph glyph-name="uni04D6" unicode="&#x4d6;" horiz-adv-x="1097" 
d="M567 1624q82 0 130 41t59 115l145 -35q-50 -240 -336 -240q-145 1 -238 57t-110 179l162 41q8 -76 57 -117t131 -41zM174 0v1434h780v-152h-610v-469h559v-151h-559v-510h621v-152h-791z" />
    <glyph glyph-name="uni04D7" unicode="&#x4d7;" horiz-adv-x="1040" 
d="M780 625q0 156 -59 218t-174 62t-188 -63t-87 -217h508zM504.5 1270q108.5 0 159.5 39t69 127l123 -39q-18 -119 -105 -183t-208 -63q-191 0 -251.5 88t-70.5 150l139 49q36 -168 144.5 -168zM905 82q-133 -107 -358 -107q-224 0 -335.5 144t-111.5 399q0 256 117 393
t334 138q169 0 279 -86t110 -318q0 -68 -12 -149h-658q0 -278 120 -328t200 -50t150 26q70 24 104 57z" />
    <glyph glyph-name="uni04D8" unicode="&#x4d8;" horiz-adv-x="1308" 
d="M289 534q0 -167 86 -291t265 -124t280.5 136t103.5 404h-727q-8 -58 -8 -125zM109 556q0 122 20 247h895q-18 262 -123.5 383t-316.5 121q-128 0 -211.5 -35t-106.5 -49l-43 137q61 37 163.5 67.5t234.5 30.5q279 0 426 -178t147 -548q0 -369 -141.5 -563t-425.5 -194
q-251 0 -384.5 157t-133.5 424z" />
    <glyph glyph-name="afii10846" unicode="&#x4d9;" horiz-adv-x="1038" 
d="M260 406q0 -143 71 -215t181 -72t186 80t76 237h-514v-30zM133 942q133 107 359 107q223 0 334.5 -143t111.5 -398q0 -256 -114.5 -394.5t-319.5 -138.5q-265 0 -334.5 159t-69.5 292q0 53 11 139h667q-10 174 -85 257t-255 83q-70 0 -138.5 -24.5t-104.5 -57.5z" />
    <glyph glyph-name="uni04DA" unicode="&#x4da;" horiz-adv-x="1308" 
d="M940 1627q0 -43 -31 -69t-79 -26t-78 26t-29 69q0 42 29.5 68.5t77.5 26.5t79 -26t31 -69zM547 1627q0 -43 -30 -69t-78 -26q-49 0 -79 26t-30 69q0 42 30 69q31 26 79 26t78 -26t30 -69zM289 534q0 -170 80 -282q92 -133 271 -133t281 136q101 136 103 404h-727
q-8 -58 -8 -125zM584 1307q-133 0 -260 -56q-35 -14 -58 -28l-43 137q61 38 163 68t235 30q573 0 573 -741q0 -354 -141 -548t-426 -194q-251 0 -387 161q-184 215 -111 667h895q-18 262 -124 383t-316 121z" />
    <glyph glyph-name="uni04DB" unicode="&#x4db;" horiz-adv-x="1038" 
d="M803 1300q0 -46 -28 -74t-74 -28q-45 0 -73 28t-28 74q0 45 28 74t74 29t73.5 -29t27.5 -74zM260 406q0 -143 71 -215t181 -72t186 80t76 237h-514v-30zM307 1198q-45 0 -73 28t-27 74q0 45 27 74q28 29 73 29t73 -29t28 -74q0 -46 -28 -74t-73 -28zM133 942
q133 107 359 107q224 0 335 -144t111 -398q0 -255 -115 -393t-319 -139q-164 1 -270 93q-134 118 -134 358q0 55 11 139h667q-10 174 -85 257t-255 83q-70 -1 -138 -25t-105 -57z" />
    <glyph glyph-name="uni04DC" unicode="&#x4dc;" horiz-adv-x="1650" 
d="M1013 1532q-48 0 -78 26t-30 69q0 42 30 68.5t78 26.5t79 -26q30 -26 30 -69t-30 -69t-79 -26zM729 1627q0 -43 -30 -69q-29 -26 -77 -26t-79 26t-31 69q0 42 31 68.5t79 26.5t78 -26t29 -69zM733 791v643h164v-668l88 29l416 639h188l-413 -623l-82 -66l102 -83
l457 -662h-209l-453 664h-94v-664h-164v688l-86 -29l-452 -659h-197l453 641l98 78l-94 72l-428 643h198l416 -643h92z" />
    <glyph glyph-name="uni04DD" unicode="&#x4dd;" horiz-adv-x="1349" 
d="M971 1300q0 -46 -28 -74t-74 -28q-45 0 -73 28t-28 74q0 45 28 74t74 29t73.5 -29t27.5 -74zM475 1198q-45 0 -73 28t-27 74q0 45 27 74q28 29 73 29t73 -29t28 -74q0 -46 -28 -74t-73 -28zM588 582v442h160v-463l96 29l284 434h172l-278 -416l-80 -65l105 -82l303 -461
h-195l-301 461h-106v-461h-160v481l-96 -28l-302 -453h-188l324 469l69 61l-104 78l-266 416h174l282 -442h107z" />
    <glyph glyph-name="uni04DE" unicode="&#x4de;" horiz-adv-x="1107" 
d="M801 1627q0 -43 -31 -69t-79 -26q-47 0 -77 26t-30 69q0 42 29 69q30 26 78 26t79 -26t31 -69zM408 1627q0 -43 -30 -69t-78 -26t-79 26t-31 69q0 42 31 68.5t79 26.5t78 -26t30 -69zM770 1080q0 222 -289 227q-203 0 -313 -54l-45 136q41 23 147 47t214 22
q326 -2 428 -183q38 -69 38 -170t-67 -195q-68 -93 -203 -134v-8q145 -20 229 -108t84 -221q0 -235 -156.5 -349.5t-384.5 -114.5t-362 54l43 153q112 -55 338 -55q141 0 241 76q101 76 101 208t-101.5 199.5t-314.5 67.5h-112v143h52q52 0 79.5 2t53.5 3q70 3 154 37
q84 35 126 118q20 41 20 99z" />
    <glyph glyph-name="uni04DF" unicode="&#x4df;" horiz-adv-x="903" 
d="M717 1300q0 -46 -28 -74t-74 -28q-45 0 -73 28t-28 74q0 45 28 74t74 29t73.5 -29t27.5 -74zM221 1198q-45 0 -73 28t-27 74q0 45 27 74q28 29 73 29t73 -29t28 -74q0 -46 -28 -74t-73 -28zM639 299q0 158 -264 158h-119v133h143q77 0 139 47t62 120t-55 105t-177 33
q-122 0 -239 -72l-47 127q156 90 342 88q340 0 340 -252q0 -72 -46 -140t-132 -97v-8q121 -23 169 -86t48 -149q0 -154 -111.5 -240t-298.5 -85t-315 64l47 135q96 -55 258 -55q256 0 256 174z" />
    <glyph glyph-name="uni04E0" unicode="&#x4e0;" horiz-adv-x="1153" 
d="M856 425q0 138 -109.5 205.5t-302.5 67.5h-180v56l381 458l90 88l-127 -18h-491v152h850v-62l-410 -489l-72 -60v-8l70 19q206 0 335.5 -107t129.5 -305t-154.5 -322.5t-396.5 -124.5q-142 0 -236 28t-120 44l43 150q134 -70 334 -70q60 0 131 20.5t153 80t82 197.5z" />
    <glyph glyph-name="uni04E1" unicode="&#x4e1;" horiz-adv-x="972" 
d="M127 -233q114 -58 256 -58t236 80.5t94 219.5q0 140 -88 210t-240 70h-149v53l294 459l93 88l-131 -17h-406v152h735v-59l-325 -488l-70 -59v-8l66 16q168 0 274 -109.5t106 -287.5q0 -217 -139.5 -340t-336.5 -123q-196 0 -316 55z" />
    <glyph glyph-name="uni04E2" unicode="&#x4e2;" horiz-adv-x="1394" 
d="M387 1599v127h647v-127h-647zM174 0v1434h170v-983l-14 -162h8l90 168l692 977h101v-1434h-170v971l12 164h-8l-88 -168l-693 -967h-100z" />
    <glyph glyph-name="uni04E3" unicode="&#x4e3;" horiz-adv-x="1118" 
d="M266 1190v127h606v-127h-606zM158 0v1024h164v-625l-7 -120h9l79 127l461 618h97v-1024h-164v606l6 127h-6l-84 -131l-461 -602h-94z" />
    <glyph glyph-name="uni04E4" unicode="&#x4e4;" horiz-adv-x="1394" 
d="M890 1532q-48 0 -78 26t-30 69q0 42 30 68.5t78 26.5t79 -26t31 -69t-32 -69q-30 -26 -78 -26zM499 1532q-48 0 -79 26t-31 69q0 42 31 68.5t79 26.5t78 -26q29 -26 29 -69t-30 -69t-77 -26zM174 0v1434h170v-983l-14 -162h8l90 168l692 977h101v-1434h-170v971l12 164
h-8l-88 -168l-693 -967h-100z" />
    <glyph glyph-name="uni04E5" unicode="&#x4e5;" horiz-adv-x="1118" 
d="M773 1198q-45 0 -73 28t-28 74q0 45 27 74q28 29 74 29t73.5 -29t27.5 -74q0 -46 -28 -74t-73 -28zM379 1198q-45 0 -73 28t-27 74q0 45 27 74q28 29 73 29t73 -29t28 -74q0 -46 -28 -74t-73 -28zM158 0v1024h164v-625l-7 -120h9l79 127l461 618h97v-1024h-164v606l6 127
h-6l-84 -131l-461 -602h-94z" />
    <glyph glyph-name="uni04E6" unicode="&#x4e6;" horiz-adv-x="1400" 
d="M1006 1627q0 -43 -31 -69t-79 -26t-78 26t-30 69q0 42 30 68.5t78 26.5t79 -26t31 -69zM505 1532q-48 0 -79 26t-31 69q0 42 31 68.5t79 26.5t78 -26q29 -26 29 -69t-30 -69t-77 -26zM693 127q195 0 304 144t109 422t-103 445t-298 168q-195 0 -303 -144t-107 -421
q0 -277 102 -445q101 -169 296 -169zM115 717q0 358 151 550q152 191 440 191t438 -204q142 -189 142 -542t-152 -545q-153 -191 -436 -192q-150 -1 -260 53q-220 107 -288 385q-35 136 -35 304z" />
    <glyph glyph-name="uni04E7" unicode="&#x4e7;" horiz-adv-x="1097" 
d="M842 1300q0 -46 -28 -74t-74 -28t-74 28t-27 74q0 45 27.5 74t73.5 29t74 -29t28 -74zM270 512q0 -267 101.5 -330t177.5 -63q279 -2 278 393q0 271 -101 332t-177 61q-279 2 -279 -393zM346 1198q-44 0 -72 28t-28 74q0 45 27 74q28 29 73 29t72.5 -29t27.5 -74
q0 -46 -28 -74t-72 -28zM100 512q0 260 116 398t333 139q336 0 392.5 -208t55.5 -329q1 -260 -115 -398t-333 -139q-336 0 -392.5 208t-56.5 329z" />
    <glyph glyph-name="uni04E8" unicode="&#x4e8;" horiz-adv-x="1400" 
d="M698 1307q-260 0 -359 -267q-36 -96 -44 -237h811q-16 244 -128 374t-280 130zM698 127q269 0 335.5 185t72.5 339h-811q16 -264 128 -394t275 -130zM115 717q0 358 151 550q152 191 440 191t438 -204q142 -189 142 -542t-152 -545q-153 -191 -436 -192q-150 -1 -260 53
q-220 107 -288 385q-35 136 -35 304z" />
    <glyph glyph-name="uni04E9" unicode="&#x4e9;" horiz-adv-x="1097" 
d="M549 905q-185 0 -250 -174q-25 -63 -29 -156h557q-16 174 -89 252t-189 78zM549 119q181 0 248 169q25 62 30 156h-557q10 -160 88 -242t191 -83zM100 512q0 260 116 398t333 139q336 0 392.5 -208t55.5 -329q1 -260 -115 -398t-333 -139q-336 0 -392.5 208t-56.5 329z
" />
    <glyph glyph-name="uni04EA" unicode="&#x4ea;" horiz-adv-x="1400" 
d="M1006 1627q0 -43 -31 -69t-79 -26t-78 26t-30 69q0 42 30 68.5t78 26.5t79 -26t31 -69zM505 1532q-48 0 -79 26t-31 69q0 42 31 68.5t79 26.5t78 -26q29 -26 29 -69t-30 -69t-77 -26zM698 1307q-260 0 -359 -267q-36 -96 -44 -237h811q-16 244 -128 374t-280 130z
M698 127q269 0 335.5 185t72.5 339h-811q16 -264 128 -394t275 -130zM115 717q0 358 151 550q152 191 440 191t438 -204q142 -189 142 -542t-152 -545q-153 -191 -436 -192q-150 -1 -260 53q-220 107 -288 385q-35 136 -35 304z" />
    <glyph glyph-name="uni04EB" unicode="&#x4eb;" horiz-adv-x="1097" 
d="M842 1300q0 -46 -28 -74t-74 -28t-74 28t-27 74q0 45 27.5 74t73.5 29t74 -29t28 -74zM549 905q-185 0 -250 -174q-25 -63 -29 -156h557q-16 174 -89 252t-189 78zM549 119q181 0 248 169q25 62 30 156h-557q10 -160 88 -242t191 -83zM346 1198q-44 0 -72 28t-28 74
q0 45 27 74q28 29 73 29t72.5 -29t27.5 -74q0 -46 -28 -74t-72 -28zM100 512q0 260 116 398t333 139q336 0 392.5 -208t55.5 -329q1 -260 -115 -398t-333 -139q-336 0 -392.5 208t-56.5 329z" />
    <glyph glyph-name="uni04EC" unicode="&#x4ec;" horiz-adv-x="1181" 
d="M770 1627q0 -43 -31 -69t-79 -26t-78 26t-29 69q0 42 29.5 68.5t77.5 26.5t79 -26t31 -69zM377 1627q0 -43 -30 -69t-78 -26q-49 0 -79 26t-30 69q0 42 30 69q31 26 79 26t78 -26t30 -69zM480 127q243 0 366 281q45 102 53 249h-592v152h590q-20 244 -143 371
q-124 127 -320 127t-297 -62l-45 133q140 82 359 80q435 0 525.5 -271t90.5 -471q0 -378 -198 -572q-173 -169 -461 -169q-192 0 -316 52l45 149q100 -49 343 -49z" />
    <glyph glyph-name="uni04ED" unicode="&#x4ed;" horiz-adv-x="952" 
d="M713 1300q0 -46 -28 -74t-74 -28q-45 0 -73 28t-28 74q0 45 28 74t74 29t73.5 -29t27.5 -74zM217 1198q-45 0 -73 28t-27 74q0 45 27 74q28 29 73 29t73 -29t28 -74q0 -46 -28 -74t-73 -28zM416 1049q436 0 436 -537q0 -262 -121 -399t-330 -137t-319 61l47 139
q99 -57 250 -57q287 -2 305 330h-436v135h434q-10 145 -85 233t-213 88t-247 -71l-57 124q133 91 336 91z" />
    <glyph glyph-name="uni04EE" unicode="&#x4ee;" horiz-adv-x="1132" 
d="M283 1599v127h647v-127h-647zM371 141q67 1 106 59t68 173l-531 1061h197l367 -756l53 -182h10l41 188l274 750h174l-362 -932q-117 -309 -171 -385t-103 -102t-143 -25t-161 45l52 141q62 -35 129 -35z" />
    <glyph glyph-name="uni04EF" unicode="&#x4ef;" horiz-adv-x="954" 
d="M201 1190v127h606v-127h-606zM276 -420q-70 0 -118 21l28 141q27 -10 52 -10q57 0 110 60t88 208l-411 1024h188l246 -664l57 -196h10l45 198l199 662h166l-303 -920q-35 -100 -69 -194t-75 -168t-92 -118t-121 -44z" />
    <glyph glyph-name="uni04F0" unicode="&#x4f0;" horiz-adv-x="1132" 
d="M798 1532q-48 0 -78 26t-30 69q0 42 30 68.5t78 26.5t79 -26t31 -69t-32 -69q-30 -26 -78 -26zM514 1627q0 -43 -30 -69t-78 -26t-78 26q-31 26 -31 69q0 42 31 68.5t79 26.5q47 0 77 -26t30 -69zM371 141q67 1 106 59t68 173l-531 1061h197l367 -756l53 -182h10l41 188
l274 750h174l-362 -932q-117 -309 -171 -385t-103 -102t-143 -25t-161 45l52 141q62 -35 129 -35z" />
    <glyph glyph-name="uni04F1" unicode="&#x4f1;" horiz-adv-x="954" 
d="M799 1300q0 -46 -28 -74t-74 -28q-45 0 -73 28t-28 74q0 45 28 74t74 29t73.5 -29t27.5 -74zM303 1198q-45 0 -73 28t-27 74q0 45 27 74q28 29 73 29t73 -29t28 -74q0 -46 -28 -74t-73 -28zM276 -420q-70 0 -118 21l28 141q27 -10 52 -10q57 0 110 60t88 208l-411 1024
h188l246 -664l57 -196h10l45 198l199 662h166l-303 -920q-35 -100 -69 -194t-75 -168t-92 -118t-121 -44z" />
    <glyph glyph-name="uni04F2" unicode="&#x4f2;" horiz-adv-x="1132" 
d="M1028 1741v-33l-293 -190h-119l209 223h203zM684 1741v-33l-205 -190h-117l132 223h190zM371 141q67 1 106 59t68 173l-531 1061h197l367 -756l53 -182h10l41 188l274 750h174l-362 -932q-117 -309 -171 -385t-103 -102t-143 -25t-161 45l52 141q62 -35 129 -35z" />
    <glyph glyph-name="uni04F3" unicode="&#x4f3;" horiz-adv-x="954" 
d="M874 1434v-33l-233 -232h-92l149 265h176zM559 1434v-33l-145 -232h-86l71 265h160zM276 -420q-70 0 -118 21l28 141q27 -10 52 -10q57 0 110 60t88 208l-411 1024h188l246 -664l57 -196h10l45 198l199 662h166l-303 -920q-35 -100 -69 -194t-75 -168t-92 -118t-121 -44z
" />
    <glyph glyph-name="uni04F4" unicode="&#x4f4;" horiz-adv-x="1239" 
d="M932 1627q0 -43 -31 -69t-79 -26t-78 26t-29 69q0 42 29 69q30 26 78 26t79 -26t31 -69zM539 1627q0 -43 -30 -69t-78 -26q-49 0 -79 26t-30 69q0 42 30 69q31 26 79 26t78 -26t30 -69zM895 618q-163 -92 -351 -92t-290 92t-100 310v506h170v-476q0 -281 254 -280
q201 0 317 94v662h170v-1434h-170v618z" />
    <glyph glyph-name="uni04F5" unicode="&#x4f5;" horiz-adv-x="1003" 
d="M669 1403q45 0 73 -29t28 -74q0 -46 -28 -74t-74 -28t-73 28q-28 28 -28 74q0 45 28 74t74 29zM274.5 1198q-44.5 0 -72.5 28t-28 74q0 45 28 74t72 29t72.5 -29t28.5 -74q0 -46 -28 -74t-72.5 -28zM682 430q-116 -70 -275 -70t-232 77t-75 276v311h164v-279
q0 -123 24 -165t59.5 -59t92.5 -17q161 0 242 65v455h164v-1024h-164v430z" />
    <glyph glyph-name="uni04F6" unicode="&#x4f6;" horiz-adv-x="905" 
d="M174 0v1434h768v-152h-598v-1130h188v-416h-118l-31 264h-209z" />
    <glyph glyph-name="uni04F7" unicode="&#x4f7;" horiz-adv-x="755" 
d="M158 0v1024h598v-143h-434v-738h151v-403h-111l-30 260h-174z" />
    <glyph glyph-name="uni04F8" unicode="&#x4f8;" horiz-adv-x="1574" 
d="M1231 0v1434h170v-1434h-170zM970 1532q-48 0 -78 26t-30 69q0 42 30 68.5t78 26.5t79 -26t31 -69t-32 -69q-30 -26 -78 -26zM686 1627q0 -43 -30 -69t-78 -26t-78 26q-31 26 -31 69q0 42 31 68.5t79 26.5q47 0 77 -26t30 -69zM842 451q0 294 -354 294q-75 0 -144 -18
v-584q56 -12 158 -12q147 0 243 80t97 240zM174 1434h170v-557q33 7 42 7l84 7q26 2 86 2q60 1 152 -19t160 -69q154 -108 154 -345q0 -236 -149 -360q-71 -58 -169 -88q-98 -28 -255 -28q-158 0 -275 30v1420z" />
    <glyph glyph-name="uni04F9" unicode="&#x4f9;" horiz-adv-x="1351" 
d="M1030 0v1024h164v-1024h-164zM965 1300q0 -46 -28 -74t-74 -28q-45 0 -73 28t-28 74q0 45 28 74t74 29t73.5 -29t27.5 -74zM469 1198q-45 0 -73 28t-27 74q0 45 27 74q28 29 73 29t73 -29t28 -74q0 -46 -28 -74t-73 -28zM484 512q-114 0 -162 -14v-355q76 -12 145 -12
q129 0 180 49.5t51 137.5t-50 141t-164 53zM507 647q361 0 361 -305q0 -186 -103 -270t-335 -84q-131 0 -272 12v1024h164v-391q86 14 185 14z" />
    <glyph glyph-name="uni04FC" unicode="&#x4fc;" horiz-adv-x="1265" 
d="M864 -430h-24q-23 0 -39 4v139q154 0 167 80.5t13 150.5q0 120 -107 285l-186 285l-59 123l-54 -123l-331 -514h-191l477 729l-436 705h205l291 -486l51 -117l49 117l307 486h189l-451 -691l285 -440q125 -189 125 -367q0 -366 -281 -366z" />
    <glyph glyph-name="uni04FD" unicode="&#x4fd;" horiz-adv-x="1052" 
d="M657 -434q-35 0 -63 4v139q117 0 159 45t42 133t-36 162t-77 133l-96 129l-66 115l-59 -115l-221 -311h-183l369 524l-344 500h201l194 -283l58 -116l59 116l199 283h184l-346 -492l196 -274q131 -191 131 -332q0 -178 -76.5 -269t-224.5 -91z" />
    <glyph glyph-name="uni2000" unicode="&#x2000;" horiz-adv-x="891" 
 />
    <glyph glyph-name="uni2001" unicode="&#x2001;" horiz-adv-x="1782" 
 />
    <glyph glyph-name="uni2002" unicode="&#x2002;" horiz-adv-x="891" 
 />
    <glyph glyph-name="uni2003" unicode="&#x2003;" horiz-adv-x="1782" 
 />
    <glyph glyph-name="uni2004" unicode="&#x2004;" horiz-adv-x="594" 
 />
    <glyph glyph-name="uni2005" unicode="&#x2005;" horiz-adv-x="445" 
 />
    <glyph glyph-name="uni2006" unicode="&#x2006;" horiz-adv-x="297" 
 />
    <glyph glyph-name="uni2007" unicode="&#x2007;" horiz-adv-x="297" 
 />
    <glyph glyph-name="uni2008" unicode="&#x2008;" horiz-adv-x="222" 
 />
    <glyph glyph-name="uni2009" unicode="&#x2009;" horiz-adv-x="356" 
 />
    <glyph glyph-name="uni200A" unicode="&#x200a;" horiz-adv-x="99" 
 />
    <glyph glyph-name="uni2010" unicode="&#x2010;" horiz-adv-x="737" 
d="M121 514v152h495v-152h-495z" />
    <glyph glyph-name="uni2011" unicode="&#x2011;" horiz-adv-x="737" 
d="M121 514v152h495v-152h-495z" />
    <glyph glyph-name="figuredash" unicode="&#x2012;" horiz-adv-x="737" 
d="M121 514v152h495v-152h-495z" />
    <glyph glyph-name="endash" unicode="&#x2013;" horiz-adv-x="1351" 
d="M242 514v152h868v-152h-868z" />
    <glyph glyph-name="emdash" unicode="&#x2014;" horiz-adv-x="1679" 
d="M242 514v152h1196v-152h-1196z" />
    <glyph glyph-name="quoteleft" unicode="&#x2018;" horiz-adv-x="397" 
d="M82 1311q0 118 58 189t118 93l51 -71q-100 -51 -100 -156q7 2 35 2t50.5 -28.5t22.5 -72.5t-30.5 -72t-81.5 -28t-87 37t-36 107z" />
    <glyph glyph-name="quoteright" unicode="&#x2019;" horiz-adv-x="397" 
d="M82 1351q0 46 29.5 72.5t81.5 26.5t88 -36t36 -106q0 -121 -58.5 -192t-119.5 -92l-51 70q100 53 100 157q-8 -2 -34 -2t-49 28t-23 74z" />
    <glyph glyph-name="quotesinglbase" unicode="&#x201a;" horiz-adv-x="397" 
d="M154 2q-26 0 -50 28q-22 28 -22 73q0 46 30 73t82 27t88 -36t36 -106q-1 -170 -125 -256q-31 -20 -54 -28l-51 69q102 54 100 158q-8 -2 -34 -2z" />
    <glyph glyph-name="quotedblleft" unicode="&#x201c;" horiz-adv-x="696" 
d="M381 1311q0 167 124 254q30 20 52 28l51 -71q-100 -51 -100 -156q8 2 36 2t50 -28t22 -73q0 -44 -30 -72t-82 -28q-51 0 -87 37t-36 107zM82 1311q0 167 124 254q30 20 52 28l51 -71q-100 -51 -100 -156q7 2 35 2t50 -28t23 -73q-1 -44 -31 -72t-81 -28t-87 37t-36 107z
" />
    <glyph glyph-name="quotedblright" unicode="&#x201d;" horiz-adv-x="696" 
d="M381 1351q0 47 30 73q29 26 81 26t88 -36t36 -106t-33 -155t-145 -129l-51 70q102 54 100 157q-9 -2 -35 -2t-49 28q-22 28 -22 74zM82 1351q0 47 30 73t82 26t88 -36t36 -106t-33.5 -155t-145.5 -129l-51 70q102 54 100 157q-8 -2 -34 -2t-50 28q-22 28 -22 74z" />
    <glyph glyph-name="quotedblbase" unicode="&#x201e;" horiz-adv-x="696" 
d="M452 2q-26 0 -48 28t-23 73q0 46 29.5 73t81.5 27t88 -36t36 -106q-1 -170 -124 -256q-31 -20 -54 -28l-51 69q102 54 100 158q-9 -2 -35 -2zM154 2q-26 0 -50 28q-22 28 -22 73q0 46 30 73t82 27t88 -36t36 -106q-1 -170 -125 -256q-31 -20 -54 -28l-51 69
q102 54 100 158q-8 -2 -34 -2z" />
    <glyph glyph-name="bullet" unicode="&#x2022;" horiz-adv-x="925" 
d="M178 634q0 126 81 207t204 81q189 0 237 -108.5t48 -176.5t-23 -120t-60.5 -89t-90 -56.5t-111.5 -19.5t-111.5 19.5t-113 78t-60.5 184.5z" />
    <glyph glyph-name="ellipsis" unicode="&#x2026;" horiz-adv-x="1554" 
d="M1186 95q0 54 32 86t86 32t86.5 -31.5t32.5 -85.5t-32.5 -87.5t-86.5 -33.5t-86 33t-32 87zM666 95q0 54 31.5 86t85.5 32t87 -31.5t33 -85.5t-32.5 -87.5t-86.5 -33.5t-86 33t-32 87zM145 95q0 54 32 86t86 32t87 -31.5t33 -85.5t-33 -87.5t-87 -33.5t-86 33t-32 87z
" />
    <glyph glyph-name="uni202F" unicode="&#x202f;" horiz-adv-x="356" 
 />
    <glyph glyph-name="guilsinglleft" unicode="&#x2039;" horiz-adv-x="608" 
d="M80 530l328 471l108 -88l-199 -297l-98 -84l98 -73l211 -291l-108 -90z" />
    <glyph glyph-name="guilsinglright" unicode="&#x203a;" horiz-adv-x="608" 
d="M80 911l108 90l340 -452l-327 -471l-109 88l199 297l98 84l-98 74z" />
    <glyph glyph-name="uni205F" unicode="&#x205f;" horiz-adv-x="445" 
 />
    <glyph glyph-name="Euro" unicode="&#x20ac;" 
d="M168 672v52q0 48 2 71h-150l37 135h129q73 399 268.5 463.5t299.5 64.5q194 0 311 -49l-43 -149q-96 47 -264 47q-225 0 -302 -138.5t-98 -238.5h578l-35 -135h-561q-2 -23 -2 -27v-51q0 -47 2 -66h520l-35 -135h-471q37 -193 146.5 -291t273.5 -98t270 66l41 -134
q-109 -84 -339 -84q-229 0 -376 133.5t-188 407.5h-162l37 135h113q-2 18 -2 21z" />
    <glyph glyph-name="trademark" unicode="&#x2122;" horiz-adv-x="1812" 
d="M877 696v738h159l215 -344l58 -119h2l61 123l199 340h162v-738h-156v342l20 211h-8l-80 -174l-178 -287h-67l-183 285l-73 176h-9l27 -209v-344h-149zM78 1294v140h717v-140h-279v-598h-160v598h-278z" />
    <glyph glyph-name="uniE000" unicode="&#xe000;" horiz-adv-x="1024" 
d="M0 0v1024h1024v-1024h-1024z" />
    </font>
</defs>
</svg>
